<svg width="600" height="600" viewBox="0 0 600 600" fill="none" xmlns="http://www.w3.org/2000/svg">
<rect width="600" height="600" transform="translate(600) rotate(90)" fill="#F9F9F9"/>
<path fill-rule="evenodd" clip-rule="evenodd" d="M270 249C256.745 249 246 259.745 246 273V327C246 340.255 256.745 351 270 351H330C343.255 351 354 340.255 354 327V273C354 259.745 343.255 249 330 249H270ZM333.748 281.838C333.748 289.294 327.704 295.338 320.248 295.338C312.792 295.338 306.748 289.294 306.748 281.838C306.748 274.383 312.792 268.338 320.248 268.338C327.704 268.338 333.748 274.383 333.748 281.838ZM279.953 295.851C282.315 292.177 287.685 292.177 290.047 295.851L306.057 320.755C308.624 324.749 305.757 330 301.01 330H268.99C264.243 330 261.376 324.749 263.943 320.755L279.953 295.851Z" fill="black"/>
</svg>
