<svg width="160" height="170" viewBox="0 0 160 170" fill="none" xmlns="http://www.w3.org/2000/svg">
<g clip-path="url(#clip0_25_20591)">
<path d="M12.9766 44.2948C12.9766 40.5183 15.6536 35.8828 18.9261 33.9954L74.0493 2.18179C77.3218 0.293571 82.6751 0.293571 85.9484 2.18179L141.072 33.9954C144.344 35.8836 147.021 40.5191 147.021 44.2948V125.704C147.021 129.48 144.344 134.116 141.072 136.003L85.9484 167.817C82.6759 169.705 77.3225 169.705 74.0493 167.817L18.9261 136.003C15.6536 134.116 12.9766 129.477 12.9766 125.704V44.2948Z" fill="#02122E"/>
<path d="M80.0004 169.999C77.6142 169.999 75.3661 169.46 73.6692 168.481L18.5461 136.667C15.0553 134.65 12.2148 129.733 12.2148 125.704V44.2946C12.2148 40.2657 15.0553 35.3487 18.5461 33.3338L73.6692 1.52015C75.3661 0.541333 77.6142 0.00195312 80.0004 0.00195312C82.3867 0.00195312 84.6347 0.541333 86.3317 1.52015L141.455 33.3338C144.946 35.3487 147.786 40.2657 147.786 44.2946V125.704C147.786 129.733 144.946 134.65 141.455 136.665L86.3317 168.478C84.6347 169.46 82.3867 169.999 80.0004 169.999ZM80.0004 1.5255C77.8783 1.5255 75.9012 1.99164 74.4326 2.83924L19.3094 34.6529C16.2911 36.3969 13.7415 40.8111 13.7415 44.2946V125.704C13.7415 129.187 16.2911 133.602 19.3094 135.343L74.4326 167.157C75.9012 168.005 77.8783 168.471 80.0004 168.471C82.1226 168.471 84.0996 168.005 85.5683 167.157L140.691 135.343C143.71 133.602 146.259 129.187 146.259 125.704V44.2946C146.259 40.8111 143.71 36.3969 140.691 34.6552L85.5683 2.84153C84.0996 1.99393 82.1226 1.5255 80.0004 1.5255Z" fill="white"/>
<path d="M18.0918 45.6405C18.0918 43.1229 19.8635 40.0331 22.0452 38.7743L76.0393 7.62282C78.221 6.36401 81.7881 6.36401 83.9698 7.62282L137.956 38.7743C140.138 40.0331 141.907 43.1229 141.907 45.6405V124.361C141.907 126.878 140.136 129.967 137.954 131.227L83.9599 162.379C81.7782 163.637 78.2111 163.637 76.0294 162.379L22.0429 131.227C19.8612 129.968 18.0918 126.878 18.0918 124.361V45.6405Z" fill="#02122E"/>
<path d="M79.9939 164.084C78.3604 164.084 76.8169 163.713 75.6474 163.038L21.6609 131.886C20.493 131.213 19.4014 130.061 18.5869 128.645C17.7724 127.228 17.3281 125.711 17.3281 124.36V45.6401C17.3281 44.2897 17.7754 42.7677 18.5884 41.3548C19.4014 39.9419 20.4968 38.7876 21.6632 38.1132L75.6573 6.96176C76.8268 6.28658 78.371 5.91504 80.0084 5.91504C81.6458 5.91504 83.1855 6.28658 84.355 6.96099L138.341 38.1132C139.509 38.7876 140.602 39.9388 141.415 41.3548C142.229 42.7708 142.674 44.289 142.674 45.6401V124.36C142.674 125.711 142.227 127.232 141.414 128.645C140.601 130.059 139.506 131.212 138.339 131.886L84.3412 163.038C83.1718 163.713 81.6275 164.084 79.9939 164.084ZM80.0046 7.44087C78.6542 7.44087 77.3482 7.74604 76.4169 8.28008L22.4227 39.4315C20.4869 40.5484 18.851 43.3903 18.851 45.6371V124.36C18.851 126.607 20.4861 129.449 22.4204 130.565L76.4115 161.717C77.339 162.251 78.6451 162.556 79.9947 162.556C81.3443 162.556 82.6512 162.251 83.5824 161.717L137.577 130.566C139.512 129.449 141.148 126.608 141.148 124.361V45.6401C141.148 43.3926 139.513 40.5507 137.579 39.4345L83.587 8.28313C82.6603 7.74756 81.3542 7.44087 80.0046 7.44087Z" fill="white"/>
<path d="M132.594 42.5049H27.3282C24.7986 42.5049 22.748 44.5543 22.748 47.0824V122.916C22.748 125.444 24.7986 127.494 27.3282 127.494H132.594C135.124 127.494 137.174 125.444 137.174 122.916V47.0824C137.174 44.5543 135.124 42.5049 132.594 42.5049Z" fill="white"/>
<path d="M158.472 103.462H1.52734L9.16086 84.3405L1.52734 66.5371H158.472L150.839 85.0256L158.472 103.462Z" fill="#E33C4C"/>
<path d="M158.472 104.989H1.52696C1.27757 104.989 1.03196 104.928 0.811621 104.811C0.591278 104.694 0.402908 104.525 0.262976 104.319C0.123044 104.113 0.0358107 103.875 0.0089088 103.627C-0.0179931 103.38 0.0162521 103.129 0.108651 102.897L7.50859 84.3585L0.123919 67.1357C0.0250378 66.9037 -0.0148023 66.6509 0.00795834 66.3999C0.030719 66.1488 0.115373 65.9073 0.254352 65.6969C0.393331 65.4865 0.5823 65.3138 0.804376 65.1942C1.02645 65.0747 1.27471 65.012 1.52696 65.0117H158.472C158.723 65.0117 158.97 65.0735 159.191 65.1916C159.413 65.3097 159.602 65.4805 159.741 65.6889C159.881 65.8974 159.967 66.1369 159.992 66.3865C160.016 66.636 159.979 66.8878 159.884 67.1197L152.49 85.0245L159.855 102.812C159.964 103.045 160.013 103.301 159.997 103.558C159.981 103.815 159.901 104.063 159.763 104.28C159.625 104.498 159.434 104.676 159.208 104.8C158.983 104.924 158.73 104.989 158.472 104.989ZM3.77961 101.937H156.188L149.428 85.6105C149.274 85.2372 149.274 84.818 149.428 84.4447L156.191 68.0649H3.84221L10.5597 83.7413C10.7192 84.1128 10.7247 84.5323 10.575 84.9078L3.77961 101.937Z" fill="white"/>
<path d="M37.2459 83.3154H39.2894C40.0181 83.3154 40.5601 83.056 40.9153 82.5373C41.2705 82.0185 41.4486 81.2927 41.4497 80.3599C41.4497 79.5426 41.2715 78.8793 40.9153 78.3702C40.5591 77.8611 40.0502 77.6068 39.3886 77.6073C38.8512 77.6073 38.3884 77.8334 38.0001 78.2855C37.6118 78.7377 37.4176 79.3287 37.4176 80.0585H33.4604L33.4314 79.9723C33.383 78.3158 33.9273 76.9634 35.0642 75.9151C36.2011 74.8669 37.6041 74.3428 39.2733 74.3428C41.1736 74.3428 42.6894 74.8628 43.8206 75.9029C44.9519 76.943 45.5181 78.4124 45.5191 80.3111C45.5194 81.2451 45.2633 82.1614 44.7788 82.9601C44.2943 83.7589 43.5998 84.4095 42.771 84.8413C43.7497 85.2441 44.498 85.8697 45.016 86.718C45.5341 87.5664 45.7931 88.5757 45.7931 89.7461C45.7931 91.6539 45.1825 93.1543 43.9611 94.2473C42.7397 95.3403 41.1736 95.8868 39.2627 95.8868C37.5833 95.8868 36.1395 95.3713 34.9314 94.3404C33.7232 93.3094 33.1428 91.8344 33.1902 89.9154L33.2192 89.8292H37.1886C37.1886 90.6344 37.3996 91.3006 37.8214 91.8281C38.2433 92.3555 38.7662 92.6192 39.3901 92.6192C40.1026 92.6192 40.6662 92.3529 41.081 91.8204C41.4957 91.2879 41.7044 90.5759 41.7069 89.6843C41.7069 88.5719 41.5034 87.7582 41.0962 87.2429C40.6891 86.7277 40.0871 86.4711 39.2901 86.4732H37.2466L37.2459 83.3154Z" fill="white"/>
<path d="M59.7806 87.3707C59.7806 90.1609 59.2264 92.2775 58.118 93.7204C57.0096 95.1634 55.5251 95.8848 53.6646 95.8848C51.7842 95.8848 50.2875 95.1634 49.1746 93.7204C48.0616 92.2775 47.5054 90.1609 47.5059 87.3707V82.8695C47.5059 80.0889 48.0598 77.9723 49.1677 76.5197C50.2756 75.0671 51.7649 74.3408 53.6356 74.3408C55.5068 74.3408 56.9986 75.0671 58.1111 76.5197C59.2236 77.9723 59.78 80.0889 59.7806 82.8695V87.3707ZM55.6936 82.5101C55.6936 80.8226 55.5155 79.5905 55.1592 78.8138C54.803 78.0372 54.3091 77.6727 53.6776 77.7205H53.5913C52.9481 77.6727 52.4539 78.0372 52.1089 78.8138C51.7638 79.5905 51.5911 80.8226 51.5906 82.5101V87.7018C51.5906 89.4082 51.7687 90.6522 52.1249 91.434C52.4811 92.2157 52.9799 92.5776 53.6211 92.5196H53.7073C54.3409 92.5771 54.8302 92.2175 55.1753 91.4408C55.5203 90.6642 55.6931 89.4181 55.6936 87.7026V82.5101Z" fill="white"/>
<path d="M68.9883 95.5824V74.6426H75.3241C77.4727 74.6426 79.2472 75.4564 80.6477 77.0839C82.0482 78.7115 82.7487 80.8042 82.7492 83.362V86.8851C82.7492 89.4454 82.0487 91.5356 80.6477 93.1555C79.2467 94.7754 77.4722 95.5857 75.3241 95.5862L68.9883 95.5824ZM73.0898 77.904V92.3148H75.0897C76.2312 92.3148 77.1114 91.8181 77.7302 90.8248C78.349 89.8315 78.6584 88.5142 78.6584 86.8729V83.3208C78.6584 81.6896 78.349 80.3797 77.7302 79.391C77.1114 78.4022 76.2312 77.9066 75.0897 77.904H73.0898Z" fill="white"/>
<path d="M93.8541 91.1094H88.3281L87.206 95.5823H83.0762L88.9762 74.6426H93.2357L99.1212 95.5823H94.9907L93.8541 91.1094ZM89.1632 87.8449H93.0197L91.1342 80.4385H91.0479L89.1632 87.8449Z" fill="white"/>
<path d="M104.647 83.6168H104.732L108.229 74.6426H112.675L106.689 88.1325V95.5823H102.602V87.8769L96.7168 74.6426H101.192L104.647 83.6168Z" fill="white"/>
<path d="M122.58 90.1178C122.58 89.304 122.369 88.6591 121.946 88.1831C121.524 87.707 120.78 87.2396 119.716 86.7808C117.538 86.024 115.904 85.1634 114.816 84.1991C113.727 83.2348 113.183 81.8854 113.183 80.1511C113.183 78.4356 113.816 77.0369 115.082 75.9551C116.348 74.8733 117.965 74.3339 119.932 74.3369C121.927 74.3369 123.549 74.9386 124.796 76.142C126.043 77.3454 126.648 78.8625 126.609 80.6935L126.58 80.7797H122.61C122.61 79.8215 122.371 79.0451 121.891 78.4506C121.412 77.856 120.736 77.5587 119.862 77.5587C119.048 77.5587 118.412 77.8056 117.954 78.2995C117.496 78.7934 117.267 79.4141 117.267 80.1618C117.259 80.4848 117.323 80.8055 117.455 81.1004C117.588 81.3953 117.784 81.6569 118.03 81.8661C118.539 82.3117 119.422 82.8078 120.678 83.3546C122.662 84.0259 124.157 84.8768 125.16 85.9073C126.164 86.9377 126.665 88.3303 126.664 90.085C126.664 91.8972 126.06 93.3162 124.851 94.3421C123.642 95.3679 122.035 95.8809 120.03 95.8809C118.035 95.8809 116.305 95.2985 114.839 94.1338C113.374 92.9691 112.667 91.2983 112.717 89.1214L112.746 89.0352H116.732C116.732 90.3291 117.005 91.2591 117.552 91.8252C118.1 92.3913 118.924 92.6741 120.027 92.6736C120.892 92.6736 121.533 92.4434 121.949 91.9831C122.364 91.5228 122.575 90.9011 122.58 90.1178Z" fill="white"/>
<path d="M37.8041 60.7441L35.8011 53.6833H35.7408C35.8349 54.8862 35.882 55.8205 35.882 56.4863V60.7441H33.5332V50.9414H37.0621L39.1087 57.9015H39.1621L41.1682 50.9414H44.704V60.7441H42.2689V56.4459C42.2689 56.2231 42.2689 55.9744 42.2788 55.702C42.2888 55.4297 42.3155 54.7613 42.3697 53.6971H42.3086L40.33 60.7441H37.8041Z" fill="#02122E"/>
<path d="M56.1009 55.8291C56.1009 57.4786 55.6961 58.7326 54.8864 59.5911C54.0768 60.4496 52.8915 60.8786 51.3307 60.8781C49.7918 60.8781 48.6119 60.4458 47.7911 59.5812C46.9702 58.7165 46.56 57.4603 46.5605 55.8124C46.5605 54.1812 46.9677 52.9351 47.7819 52.0741C48.5962 51.213 49.7824 50.7827 51.3407 50.7832C52.902 50.7832 54.0852 51.2102 54.8903 52.0641C55.6953 52.9181 56.0989 54.1731 56.1009 55.8291ZM49.3514 55.8291C49.3514 57.7242 50.0112 58.6718 51.3307 58.6718C52.001 58.6718 52.4984 58.4416 52.8231 57.9813C53.1478 57.521 53.3099 56.8036 53.3093 55.8291C53.3093 54.8501 53.145 54.1271 52.8162 53.6602C52.4875 53.1933 51.9966 52.9588 51.3437 52.9568C50.0155 52.9568 49.3514 53.9142 49.3514 55.8291Z" fill="#02122E"/>
<path d="M67.3271 60.7441H63.8516L60.2692 53.8374H60.2089C60.2933 54.9238 60.3358 55.7531 60.3364 56.3253V60.7441H57.9883V50.9414H61.4493L65.0187 57.7535H65.0584C64.9958 56.7658 64.9645 55.9723 64.9645 55.3732V50.9414H67.3271V60.7441Z" fill="#02122E"/>
<path d="M75.4095 60.7441H69.5859V50.9414H75.4095V53.0669H72.2363V54.6088H75.1744V56.7342H72.2363V58.5851H75.4095V60.7441Z" fill="#02122E"/>
<path d="M81.0992 54.5752L82.7901 50.9414H85.661L82.4343 56.9158V60.7441H79.7626V56.9959L76.5352 50.9414H79.4206L81.0992 54.5752Z" fill="#02122E"/>
<path d="M90.9766 50.9414H94.3979C95.7307 50.9414 96.7203 51.1393 97.3666 51.535C98.0129 51.9307 98.3361 52.5463 98.3361 53.382C98.3361 53.9323 98.1953 54.4018 97.9139 54.7903C97.6474 55.1686 97.251 55.4358 96.8002 55.541V55.6082C97.4078 55.7689 97.8483 56.0369 98.1216 56.4123C98.3948 56.7877 98.5312 57.2751 98.5307 57.8748C98.5307 58.7644 98.1964 59.465 97.5277 59.9766C96.859 60.4883 95.9478 60.7441 94.7941 60.7441H90.9773L90.9766 50.9414ZM93.6262 54.7026H94.4254C94.8055 54.7026 95.0997 54.6245 95.3078 54.4684C95.516 54.3122 95.62 54.0798 95.62 53.7711C95.62 53.2208 95.204 52.9458 94.372 52.9464H93.6269L93.6262 54.7026ZM93.6262 56.6404V58.7003H94.559C95.3865 58.7003 95.8002 58.3514 95.8002 57.6536C95.8002 57.3281 95.6895 57.0778 95.4681 56.9028C95.2468 56.7279 94.9259 56.6407 94.5056 56.6412L93.6262 56.6404Z" fill="#02122E"/>
<path d="M106.367 60.744L105.884 58.9069H102.697L102.2 60.744H99.2891L102.489 50.9023H106.025L109.265 60.744H106.367ZM105.334 56.7341L104.911 55.1251C104.813 54.7691 104.693 54.3065 104.552 53.7373C104.411 53.1682 104.319 52.7613 104.274 52.5167C104.233 52.745 104.154 53.1207 104.036 53.6435C103.918 54.1664 103.655 55.1966 103.247 56.7341H105.334Z" fill="#02122E"/>
<path d="M114.54 52.9728C114.248 52.9634 113.959 53.0298 113.7 53.1655C113.442 53.3012 113.223 53.5016 113.065 53.7472C112.712 54.264 112.535 54.976 112.535 55.8834C112.535 57.7703 113.253 58.7136 114.688 58.713C115.115 58.714 115.54 58.6531 115.949 58.5322C116.366 58.408 116.776 58.2626 117.178 58.0966V60.3358C116.358 60.6984 115.432 60.8795 114.4 60.879C112.919 60.879 111.784 60.45 110.995 59.5919C110.205 58.7339 109.811 57.4934 109.811 55.8704C109.811 54.8532 110.002 53.9613 110.385 53.1948C110.743 52.4509 111.319 51.8327 112.035 51.4211C112.752 51.0076 113.597 50.8008 114.568 50.8008C115.62 50.798 116.658 51.0328 117.607 51.4874L116.793 53.5763C116.44 53.4103 116.077 53.2668 115.706 53.1468C115.329 53.0287 114.935 52.9701 114.54 52.9728Z" fill="#02122E"/>
<path d="M127.528 60.7441H124.536L122.595 56.9959L121.81 57.4651V60.7457H119.146V50.9414H121.81V55.1993C121.944 54.9353 122.215 54.5172 122.622 53.945L124.683 50.9414H127.584L124.491 55.3328L127.528 60.7441Z" fill="#02122E"/>
<path d="M37.7578 114.707H41.9913V119.99C40.8417 120.384 39.5781 120.581 38.2005 120.581C36.688 120.581 35.5194 120.142 34.6944 119.266C33.8695 118.39 33.457 117.14 33.457 115.516C33.457 113.934 33.9087 112.703 34.812 111.822C35.7153 110.941 36.9812 110.501 38.6097 110.501C39.1966 110.498 39.7822 110.556 40.357 110.675C40.8484 110.774 41.3285 110.922 41.7898 111.118L40.9501 113.196C40.2252 112.844 39.428 112.665 38.6219 112.674C37.8483 112.674 37.2501 112.925 36.8272 113.428C36.4043 113.93 36.1931 114.649 36.1936 115.584C36.1936 116.499 36.3847 117.198 36.7669 117.679C37.1491 118.161 37.7005 118.401 38.4211 118.399C38.7866 118.403 39.1512 118.365 39.5081 118.286V116.75H37.757L37.7578 114.707Z" fill="#02122E"/>
<path d="M53.4244 110.643V116.544C53.4244 117.827 53.061 118.821 52.3343 119.524C51.6076 120.228 50.5598 120.58 49.1908 120.58C47.8534 120.58 46.8259 120.238 46.1084 119.554C45.3908 118.87 45.0318 117.887 45.0312 116.604V110.643H47.6946V116.396C47.6946 117.089 47.8244 117.592 48.0839 117.905C48.3435 118.218 48.7251 118.374 49.229 118.374C49.7699 118.374 50.1623 118.219 50.4061 117.909C50.6498 117.598 50.7717 117.09 50.7717 116.383V110.643H53.4244Z" fill="#02122E"/>
<path d="M62.3657 120.446L61.8825 118.609H58.6955L58.1993 120.446H55.2871L58.4871 110.604H62.0229L65.2633 120.446H62.3657ZM61.3321 116.436L60.9092 114.827C60.811 114.471 60.6914 114.009 60.5504 113.439C60.4094 112.87 60.3166 112.463 60.2718 112.219C60.2321 112.447 60.1527 112.822 60.0336 113.345C59.9145 113.868 59.6519 114.898 59.2458 116.436H61.3321Z" fill="#02122E"/>
<path d="M70.2597 116.879V120.446H67.6094V110.643H70.8231C73.4887 110.643 74.8215 111.609 74.8215 113.542C74.8215 114.678 74.2668 115.556 73.1574 116.177L76.0162 120.449H73.0101L70.93 116.882L70.2597 116.879ZM70.2597 114.887H70.7559C71.6816 114.887 72.1444 114.479 72.1444 113.661C72.1444 112.985 71.6905 112.648 70.7826 112.648H70.2597V114.887Z" fill="#02122E"/>
<path d="M84.8786 120.446L84.3954 118.609H81.2084L80.7122 120.446H77.8008L81.0008 110.604H84.5366L87.777 120.446H84.8786ZM83.8458 116.436L83.4229 114.827C83.3246 114.471 83.2051 114.009 83.0641 113.439C82.9231 112.87 82.8303 112.463 82.7855 112.219C82.7453 112.447 82.6659 112.822 82.5473 113.345C82.4287 113.868 82.1659 114.898 81.7588 116.436H83.8458Z" fill="#02122E"/>
<path d="M99.4646 120.446H95.9891L92.4067 113.539H92.3464C92.4308 114.626 92.4733 115.455 92.4738 116.027V120.446H90.125V110.643H93.5868L97.1555 117.455H97.1959C97.1333 116.467 97.102 115.674 97.102 115.075V110.643H99.4646V120.446Z" fill="#02122E"/>
<path d="M107.008 120.446H104.358V112.808H101.963V110.643H109.396V112.808H107.008V120.446Z" fill="#02122E"/>
<path d="M117.714 120.446H111.891V110.643H117.714V112.77H114.541V114.311H117.481V116.437H114.542V118.288H117.715L117.714 120.446Z" fill="#02122E"/>
<path d="M126.582 120.446H120.762V110.643H126.585V112.77H123.412V114.311H126.35V116.437H123.412V118.288H126.585L126.582 120.446Z" fill="#02122E"/>
<path d="M82.7328 26.6283L80 21.6709L77.2634 26.6283L71.7031 27.6957L75.5771 31.8284L74.8695 37.4434L80 35.0403L85.1267 37.4434L84.4236 31.8284L88.2969 27.6957L82.7328 26.6283Z" fill="white"/>
<path d="M96.6635 28.0598L95.2666 25.5254L93.8674 28.0598L91.0254 28.6053L93.0055 30.7178L92.6437 33.5879L95.2666 32.3596L97.8879 33.5879L97.5276 30.7178L99.5085 28.6053L96.6635 28.0598Z" fill="white"/>
<path d="M66.1284 28.0608L64.7315 25.5264L63.3322 28.0608L60.4902 28.6063L62.4704 30.7188L62.1086 33.5889L64.7315 32.3606L67.3528 33.5889L66.9925 30.7188L68.9734 28.6063L66.1284 28.0608Z" fill="white"/>
<path d="M82.7328 137.404L80 132.446L77.2634 137.404L71.7031 138.471L75.5771 142.604L74.8695 148.219L80 145.816L85.1267 148.219L84.4236 142.604L88.2969 138.471L82.7328 137.404Z" fill="white"/>
<path d="M96.6635 138.835L95.2666 136.301L93.8674 138.835L91.0254 139.381L93.0055 141.493L92.6437 144.363L95.2666 143.135L97.8879 144.363L97.5276 141.493L99.5085 139.381L96.6635 138.835Z" fill="white"/>
<path d="M66.1284 138.836L64.7315 136.302L63.3322 138.836L60.4902 139.382L62.4704 141.494L62.1086 144.364L64.7315 143.136L67.3528 144.364L66.9925 141.494L68.9734 139.382L66.1284 138.836Z" fill="white"/>
</g>
<defs>
<clipPath id="clip0_25_20591">
<rect width="160" height="170" fill="white"/>
</clipPath>
</defs>
</svg>
