<svg width="120" height="24" viewBox="0 0 120 24" fill="none" xmlns="http://www.w3.org/2000/svg">
<g clip-path="url(#clip0_0_825)">
<path d="M11.4833 17.5819C11.8011 17.3901 12.1989 17.3901 12.5167 17.5819L16.151 19.7754C16.9083 20.2325 17.8425 19.5535 17.6416 18.692L16.6771 14.5578C16.5928 14.1963 16.7156 13.8178 16.9962 13.5748L20.2086 10.7919C20.8772 10.2127 20.5198 9.11442 19.6384 9.03964L15.4109 8.68098C15.0413 8.64962 14.7194 8.41629 14.5747 8.07479L12.9207 4.17237C12.5761 3.35934 11.4239 3.35934 11.0793 4.17237L9.42532 8.07479C9.28058 8.41629 8.95871 8.64962 8.58914 8.68098L4.36163 9.03964C3.4802 9.11442 3.1228 10.2127 3.79139 10.7919L7.00379 13.5748C7.28436 13.8178 7.40721 14.1963 7.32287 14.5578L6.35841 18.692C6.15745 19.5535 7.09168 20.2325 7.849 19.7754L11.4833 17.5819Z" fill="#F7B500"/>
</g>
<g clip-path="url(#clip1_0_825)">
<path d="M35.4833 17.5819C35.8011 17.3901 36.1989 17.3901 36.5167 17.5819L40.151 19.7754C40.9083 20.2325 41.8425 19.5535 41.6416 18.692L40.6771 14.5578C40.5928 14.1963 40.7156 13.8178 40.9962 13.5748L44.2086 10.7919C44.8772 10.2127 44.5198 9.11442 43.6384 9.03964L39.4109 8.68098C39.0413 8.64962 38.7194 8.41629 38.5747 8.07479L36.9207 4.17237C36.5761 3.35934 35.4239 3.35934 35.0793 4.17237L33.4253 8.07479C33.2806 8.41629 32.9587 8.64962 32.5891 8.68098L28.3616 9.03964C27.4802 9.11442 27.1228 10.2127 27.7914 10.7919L31.0038 13.5748C31.2844 13.8178 31.4072 14.1963 31.3229 14.5578L30.3584 18.692C30.1575 19.5535 31.0917 20.2325 31.849 19.7754L35.4833 17.5819Z" fill="#F7B500"/>
</g>
<g clip-path="url(#clip2_0_825)">
<path d="M59.4833 17.5819C59.8011 17.3901 60.1989 17.3901 60.5167 17.5819L64.151 19.7754C64.9083 20.2325 65.8425 19.5535 65.6416 18.692L64.6771 14.5578C64.5928 14.1963 64.7156 13.8178 64.9962 13.5748L68.2086 10.7919C68.8772 10.2127 68.5198 9.11442 67.6384 9.03964L63.4109 8.68098C63.0413 8.64962 62.7194 8.41629 62.5747 8.07479L60.9207 4.17237C60.5761 3.35934 59.4239 3.35934 59.0793 4.17237L57.4253 8.07479C57.2806 8.41629 56.9587 8.64962 56.5891 8.68098L52.3616 9.03964C51.4802 9.11442 51.1228 10.2127 51.7914 10.7919L55.0038 13.5748C55.2844 13.8178 55.4072 14.1963 55.3229 14.5578L54.3584 18.692C54.1575 19.5535 55.0917 20.2325 55.849 19.7754L59.4833 17.5819Z" fill="#F7B500"/>
</g>
<g clip-path="url(#clip3_0_825)">
<path d="M83.4833 17.5819C83.8011 17.3901 84.1989 17.3901 84.5167 17.5819L88.151 19.7754C88.9083 20.2325 89.8425 19.5535 89.6416 18.692L88.6771 14.5578C88.5928 14.1963 88.7156 13.8178 88.9962 13.5748L92.2086 10.7919C92.8772 10.2127 92.5198 9.11442 91.6384 9.03964L87.4109 8.68098C87.0413 8.64962 86.7194 8.41629 86.5747 8.07479L84.9207 4.17237C84.5761 3.35934 83.4239 3.35934 83.0793 4.17237L81.4253 8.07479C81.2806 8.41629 80.9587 8.64962 80.5891 8.68098L76.3616 9.03964C75.4802 9.11442 75.1228 10.2127 75.7914 10.7919L79.0038 13.5748C79.2844 13.8178 79.4072 14.1963 79.3229 14.5578L78.3584 18.692C78.1575 19.5535 79.0917 20.2325 79.849 19.7754L83.4833 17.5819Z" fill="#F7B500"/>
</g>
<g clip-path="url(#clip4_0_825)">
<path d="M107.483 17.5819C107.801 17.3901 108.199 17.3901 108.517 17.5819L112.151 19.7754C112.908 20.2325 113.843 19.5535 113.642 18.692L112.677 14.5578C112.593 14.1963 112.716 13.8178 112.996 13.5748L116.209 10.7919C116.877 10.2127 116.52 9.11442 115.638 9.03964L111.411 8.68098C111.041 8.64962 110.719 8.41629 110.575 8.07479L108.921 4.17237C108.576 3.35934 107.424 3.35934 107.079 4.17237L105.425 8.07479C105.281 8.41629 104.959 8.64962 104.589 8.68098L100.362 9.03964C99.4802 9.11442 99.1228 10.2127 99.7914 10.7919L103.004 13.5748C103.284 13.8178 103.407 14.1963 103.323 14.5578L102.358 18.692C102.157 19.5535 103.092 20.2325 103.849 19.7754L107.483 17.5819Z" fill="#F7B500"/>
</g>
<defs>
<clipPath id="clip0_0_825">
<rect width="24" height="24" fill="white"/>
</clipPath>
<clipPath id="clip1_0_825">
<rect width="24" height="24" fill="white" transform="translate(24)"/>
</clipPath>
<clipPath id="clip2_0_825">
<rect width="24" height="24" fill="white" transform="translate(48)"/>
</clipPath>
<clipPath id="clip3_0_825">
<rect width="24" height="24" fill="white" transform="translate(72)"/>
</clipPath>
<clipPath id="clip4_0_825">
<rect width="24" height="24" fill="white" transform="translate(96)"/>
</clipPath>
</defs>
</svg>
