<svg width="38" height="24" viewBox="0 0 38 24" fill="none" xmlns="http://www.w3.org/2000/svg">
<rect width="38" height="24" rx="4" fill="#306FC8"/>
<mask id="mask0_1_1309" style="mask-type:alpha" maskUnits="userSpaceOnUse" x="0" y="0" width="38" height="24">
<rect width="38" height="24" rx="4" fill="url(#paint0_linear_1_1309)"/>
</mask>
<g mask="url(#mask0_1_1309)">
<path d="M16.446 17.5758V14.082L14.8092 15.8027L16.446 17.5758Z" fill="white"/>
<path d="M9.58618 14.5205V15.307L11.9266 15.3022V16.2031H9.58618V17.0658H12.2099L13.4314 15.7884L12.2588 14.5205H9.58618Z" fill="white"/>
<path d="M19.529 7.90035C19.6658 7.82408 19.7489 7.67156 19.7489 7.48567C19.7489 7.29978 19.6609 7.16631 19.529 7.09482C19.402 7.02332 19.2114 7.01855 19.0209 7.01855H17.7017V7.99091H19.0062C19.2114 7.99091 19.3824 7.98138 19.529 7.90035Z" fill="white"/>
<path d="M1.96411 8.58655H3.42501L2.69212 6.85156L1.96411 8.58655Z" fill="white"/>
<path d="M18.9086 14.5205H17.5161V15.6168H18.8988C19.3044 15.6168 19.5584 15.4261 19.5584 15.0496C19.5536 14.673 19.2897 14.5205 18.9086 14.5205Z" fill="white"/>
<path d="M2.23764 10.3549H3.1562L3.57151 11.332H7.16269V10.5884L7.48516 11.332H9.34182L9.6643 10.5789V11.332H18.586V9.73999H18.7619C18.889 9.73999 18.9232 9.75429 18.9232 9.94971V11.332H23.5355V10.9554C23.902 11.1509 24.4785 11.332 25.2505 11.332H27.1902L27.6104 10.3549H28.529L28.9443 11.332H32.6723V10.4073L33.2439 11.332H36.239V5.25H33.2781V5.96497L32.853 5.25H29.8091V5.96497L29.4378 5.25H25.3238C24.63 5.25 24.0192 5.34056 23.5355 5.59795V5.25H20.7017V5.59795C20.3694 5.3358 19.9541 5.25 19.4851 5.25H9.11218L8.40861 6.81816L7.70503 5.25H4.44121V5.96497L4.06988 5.25H1.28488L-0.00012207 8.1337V11.332H1.82234L2.23764 10.3549ZM23.7358 6.61797C24.0779 6.27002 24.6251 6.10796 25.3629 6.10796H26.384V7.04218H25.3824C24.9866 7.04218 24.7668 7.09938 24.5567 7.30434C24.371 7.48546 24.244 7.83341 24.244 8.29099C24.244 8.7581 24.3368 9.08699 24.5469 9.31578C24.7033 9.48737 25.0013 9.5398 25.2896 9.5398H25.7684L27.2733 6.10796H28.8661L30.6788 10.2357V6.10796H32.3107L34.1869 9.14419V6.10796H35.2862V10.474H33.7618L31.7439 7.20424V10.474H29.5697L29.1593 9.4969H26.9361L26.5257 10.474H25.2847C24.7619 10.474 24.1023 10.3549 23.731 9.98785C23.3547 9.61606 23.1642 9.11559 23.1642 8.32436C23.1642 7.67612 23.2814 7.08508 23.7358 6.61797ZM21.5469 6.10796H22.6414V10.474H21.5469V6.10796ZM16.6366 6.10796H19.0991C19.6414 6.10796 20.0421 6.12703 20.3841 6.31768C20.7261 6.51311 20.9362 6.79909 20.9362 7.28527C20.9362 7.97641 20.4574 8.33389 20.174 8.44352C20.4085 8.52931 20.6088 8.68661 20.7017 8.8153C20.8531 9.02502 20.8776 9.22522 20.8776 9.60653V10.474H19.8026V9.92112C19.8026 9.66373 19.8271 9.28241 19.6268 9.07746C19.4753 8.92016 19.2408 8.8868 18.8499 8.8868H17.7017V10.474H16.6317V6.10796H16.6366ZM12.3271 6.10796H15.8939V7.01835H13.3923V7.80481H15.8304V8.70091H13.3923V9.56363L15.8939 9.55887V10.4693H12.3271V6.10796ZM1.17251 10.474H0.00964984L1.92006 6.10796H3.51288L5.32557 10.2357V6.10796H7.07474L8.46724 9.06792L9.75224 6.10796H11.5307V10.474H10.4363V7.05648L8.88743 10.474H7.94933L6.39559 7.05172V10.474H4.21646L3.80604 9.4969H1.58293L1.17251 10.474Z" fill="white"/>
<path d="M28.0453 6.85156L27.3173 8.58655H28.7733L28.0453 6.85156Z" fill="white"/>
<path d="M35.6332 14.6212C35.5208 14.6927 35.4719 14.7975 35.4719 14.9358C35.4719 15.0978 35.5696 15.2122 35.7064 15.2599C35.8139 15.298 35.9361 15.3076 36.1169 15.3076L36.6885 15.3219C37.2797 15.3362 37.6706 15.4315 37.91 15.6746C37.9442 15.7079 37.9735 15.7413 37.998 15.7747V14.5449H36.0582C35.8677 14.5449 35.7358 14.5545 35.6332 14.6212Z" fill="white"/>
<path d="M36.5566 17.9712H34.4947V17.037H36.5468C36.7472 17.037 36.8889 17.0084 36.9768 16.9321C37.0501 16.8654 37.1038 16.7701 37.1038 16.6461C37.1038 16.5174 37.0501 16.4173 36.9719 16.3554C36.8937 16.2887 36.7814 16.2601 36.6006 16.2601C35.6038 16.2315 34.3482 16.2934 34.3482 14.9064C34.3482 14.282 34.7537 13.6099 35.8775 13.6099H38.0029V12.752H36.024C35.4328 12.752 34.9882 12.8854 34.6853 13.0999V12.752H31.7684C31.3042 12.752 30.7472 12.8616 30.4883 13.0999V12.752H25.2652V13.0999C24.8499 12.8139 24.1512 12.752 23.8189 12.752H20.3743V13.0999C20.047 12.7901 19.3238 12.752 18.8792 12.752H15.0193L14.135 13.6862L13.3141 12.752H7.55847V18.8339H13.2115L14.1154 17.8854L14.9754 18.8292L18.4542 18.8339V17.3992H18.8011C19.2603 17.3992 19.8076 17.3897 20.2815 17.1895V18.8339H23.1642V17.2419H23.3059C23.4818 17.2419 23.4965 17.2562 23.4965 17.4183V18.8339H32.2179C32.7651 18.8339 33.3563 18.6957 33.6788 18.4479V18.8339H36.4442C37.0159 18.8339 37.5827 18.7529 38.0126 18.5527V17.4231C37.7341 17.7949 37.2455 17.9712 36.5566 17.9712ZM18.8401 16.5127H17.5112V17.9712H15.4297L14.1203 16.5365L12.7522 17.976H8.51612V13.6099H12.8158L14.1252 15.0446L15.4884 13.6099H18.9085C19.7489 13.6099 20.7017 13.8482 20.7017 15.0541C20.6968 16.2601 19.7734 16.5127 18.8401 16.5127ZM25.2701 16.3173C25.4215 16.527 25.446 16.7272 25.4508 17.1085V17.9712H24.3759V17.4183C24.3759 17.1609 24.4004 16.7796 24.2 16.5746C24.0437 16.4173 23.814 16.384 23.4232 16.384H22.275V17.9712H21.2049V13.6051H23.6675C24.2098 13.6051 24.6056 13.6242 24.9525 13.8196C25.2945 14.0151 25.5046 14.301 25.5046 14.7872C25.5046 15.4784 25.0258 15.8358 24.7473 15.9455C24.9818 16.0313 25.1821 16.1886 25.2701 16.3173ZM29.6625 14.5203H27.1658V15.3068H29.6088V16.2076H27.1658V17.0704H29.6674V17.976H26.1007V13.6099H29.6674V14.5203H29.6625ZM32.3791 17.9712H30.2977V17.037H32.3693C32.5697 17.037 32.7114 17.0084 32.7993 16.9321C32.8726 16.8654 32.9263 16.7701 32.9263 16.6461C32.9263 16.5174 32.8726 16.4173 32.7944 16.3554C32.7163 16.2887 32.6039 16.2601 32.4231 16.2601C31.4264 16.2315 30.1707 16.2934 30.1707 14.9064C30.1707 14.2772 30.5762 13.6099 31.7 13.6099H33.84V14.5441H31.8808C31.6853 14.5441 31.5583 14.5489 31.4508 14.6156C31.3384 14.6871 31.2944 14.792 31.2944 14.9302C31.2944 15.0923 31.3922 15.2067 31.529 15.2543C31.6413 15.2925 31.7586 15.302 31.9394 15.302L32.511 15.3163C33.1022 15.3306 33.4931 15.4259 33.7325 15.669C33.9426 15.8883 34.055 16.1409 34.055 16.5937C34.0599 17.5279 33.4638 17.9712 32.3791 17.9712Z" fill="white"/>
<path d="M24.1024 14.592C23.9753 14.5253 23.7799 14.5205 23.5942 14.5205H22.275V15.4929H23.5796C23.7848 15.4929 23.9607 15.4881 24.1024 15.4071C24.2392 15.3308 24.3222 15.1783 24.3222 14.9924C24.3174 14.8017 24.2343 14.6683 24.1024 14.592Z" fill="white"/>
</g>
<defs>
<linearGradient id="paint0_linear_1_1309" x1="19" y1="0" x2="19" y2="24" gradientUnits="userSpaceOnUse">
<stop stop-color="#1B8ABA"/>
<stop offset="1" stop-color="#005D9C"/>
</linearGradient>
</defs>
</svg>
