<svg width="49" height="33" viewBox="0 0 49 33" fill="none" xmlns="http://www.w3.org/2000/svg">
<mask id="mask0_858_5380" style="mask-type:alpha" maskUnits="userSpaceOnUse" x="0" y="0" width="49" height="33">
<rect x="0.5" y="0.253906" width="48" height="32" fill="#016FD0"/>
</mask>
<g mask="url(#mask0_858_5380)">
<rect x="0.5" y="0.253906" width="48" height="32" rx="4" fill="#016FD0"/>
<path d="M9.83667 24.7348V17.3931H17.8323L18.6901 18.4804L19.5763 17.3931H48.5983V24.2285C48.5983 24.2285 47.8393 24.7275 46.9615 24.7348H30.8914L29.9243 23.5775V24.7348H26.7549V22.7592C26.7549 22.7592 26.3219 23.035 25.386 23.035H24.3072V24.7348H19.5085L18.6519 23.6243L17.7821 24.7348H9.83667Z" fill="white"/>
<path d="M0.5 11.8598L2.30304 7.77307H5.4212L6.44444 10.0623V7.77307H10.3206L10.9297 9.42766L11.5203 7.77307H28.9202V8.60489C28.9202 8.60489 29.8349 7.77307 31.3382 7.77307L36.9838 7.79225L37.9894 10.0515V7.77307H41.2332L42.126 9.07084V7.77307H45.3995V15.1148H42.126L41.2704 13.8128V15.1148H36.5046L36.0253 13.9574H34.7441L34.2726 15.1148H31.0406C29.7471 15.1148 28.9202 14.2999 28.9202 14.2999V15.1148H24.0471L23.0799 13.9574V15.1148H4.95926L4.48032 13.9574H3.20319L2.72764 15.1148H0.5V11.8598Z" fill="white"/>
<path d="M2.93996 8.67792L0.508057 14.1751H2.09135L2.54007 13.0743H5.14866L5.59505 14.1751H7.21322L4.78365 8.67792H2.93996ZM3.83971 9.95729L4.63485 11.8809H3.04226L3.83971 9.95729Z" fill="#016FD0"/>
<path d="M7.38062 14.1739V8.67664L9.63056 8.68476L10.9392 12.229L12.2165 8.67664H14.4485V14.1739H13.0349V10.1233L11.5365 14.1739H10.2968L8.79419 10.1233V14.1739H7.38062Z" fill="#016FD0"/>
<path d="M15.4167 14.1739V8.67664H20.0295V9.90629H16.8452V10.8466H19.9551V12.0039H16.8452V12.9804H20.0295V14.1739H15.4167Z" fill="#016FD0"/>
<path d="M20.8467 8.67792V14.1752H22.2603V12.2222H22.8555L24.5504 14.1752H26.2778L24.4178 12.1499C25.1812 12.0873 25.9686 11.4503 25.9686 10.4614C25.9686 9.30455 25.0347 8.67792 23.9924 8.67792H20.8467ZM22.2603 9.90757H23.8761C24.2637 9.90757 24.5457 10.2024 24.5457 10.4862C24.5457 10.8514 24.1804 11.0649 23.897 11.0649H22.2603V9.90757Z" fill="#016FD0"/>
<path d="M27.9912 14.1739H26.5479V8.67664H27.9912V14.1739Z" fill="#016FD0"/>
<path d="M31.4131 14.1739H31.1016C29.5942 14.1739 28.679 13.0193 28.679 11.4479C28.679 9.83763 29.5839 8.67664 31.4875 8.67664H33.0499V9.97862H31.4304C30.6576 9.97862 30.1111 10.5649 30.1111 11.4614C30.1111 12.5261 30.7361 12.9732 31.6363 12.9732H32.0083L31.4131 14.1739Z" fill="#016FD0"/>
<path d="M34.49 8.67792L32.0581 14.1751H33.6414L34.0901 13.0743H36.6987L37.1451 14.1751H38.7633L36.3337 8.67792H34.49ZM35.3898 9.95729L36.1849 11.8809H34.5923L35.3898 9.95729Z" fill="#016FD0"/>
<path d="M38.9268 14.1739V8.67664H40.724L43.0187 12.1305V8.67664H44.4323V14.1739H42.6932L40.3403 10.6296V14.1739H38.9268Z" fill="#016FD0"/>
<path d="M10.8042 23.7946V18.2973H15.4169V19.527H12.2327V20.4673H15.3425V21.6246H12.2327V22.6011H15.4169V23.7946H10.8042Z" fill="#016FD0"/>
<path d="M33.4055 23.7946V18.2973H38.0183V19.527H34.834V20.4673H37.929V21.6246H34.834V22.6011H38.0183V23.7946H33.4055Z" fill="#016FD0"/>
<path d="M15.5964 23.7945L17.8423 21.0798L15.543 18.2973H17.3239L18.6933 20.0174L20.0673 18.2973H21.7785L19.5093 21.0459L21.7594 23.7945H19.9787L18.6491 22.1015L17.3518 23.7945H15.5964Z" fill="#016FD0"/>
<path d="M21.9258 18.298V23.7952H23.3766V22.0593H24.8645C26.1236 22.0593 27.0779 21.4099 27.0779 20.147C27.0779 19.1008 26.3294 18.298 25.0482 18.298H21.9258ZM23.3766 19.5412H24.9436C25.3503 19.5412 25.6411 19.7836 25.6411 20.1741C25.6411 20.541 25.3518 20.807 24.9389 20.807H23.3766V19.5412Z" fill="#016FD0"/>
<path d="M27.6926 18.2973V23.7946H29.1062V21.8416H29.7014L31.3963 23.7946H33.1238L31.2638 21.7693C32.0271 21.7066 32.8145 21.0697 32.8145 20.0808C32.8145 18.9239 31.8806 18.2973 30.8383 18.2973H27.6926ZM29.1062 19.527H30.7221C31.1097 19.527 31.3917 19.8217 31.3917 20.1056C31.3917 20.4708 31.0263 20.6843 30.743 20.6843H29.1062V19.527Z" fill="#016FD0"/>
<path d="M38.6741 23.7946V22.6011H41.5031C41.9217 22.6011 42.103 22.3812 42.103 22.14C42.103 21.9089 41.9223 21.6752 41.5031 21.6752H40.2247C39.1135 21.6752 38.4946 21.017 38.4946 20.0288C38.4946 19.1473 39.0614 18.2973 40.7127 18.2973H43.4654L42.8702 19.5342H40.4895C40.0344 19.5342 39.8943 19.7664 39.8943 19.9881C39.8943 20.216 40.0674 20.4673 40.4151 20.4673H41.7542C42.993 20.4673 43.5305 21.1504 43.5305 22.045C43.5305 23.0068 42.9315 23.7946 41.6868 23.7946H38.6741Z" fill="#016FD0"/>
<path d="M43.8611 23.7946V22.6011H46.6902C47.1088 22.6011 47.29 22.3812 47.29 22.14C47.29 21.9089 47.1093 21.6752 46.6902 21.6752H45.4118C44.3005 21.6752 43.6816 21.017 43.6816 20.0288C43.6816 19.1473 44.2484 18.2973 45.8997 18.2973H48.5962L48.0572 19.5342H45.6765C45.2214 19.5342 45.0813 19.7664 45.0813 19.9881C45.0813 20.216 45.2544 20.4673 45.6021 20.4673H46.9413C48.18 20.4673 48.7175 21.1504 48.7175 22.045C48.7175 23.0068 48.1186 23.7946 46.8738 23.7946H43.8611Z" fill="#016FD0"/>
</g>
</svg>
