<svg width="165" height="36" viewBox="0 0 165 36" fill="none" xmlns="http://www.w3.org/2000/svg">
<path d="M28 10H26V8C26 3.58087 22.4191 0 18 0C13.5809 0 10 3.58087 10 8V10H8C3.58087 10 0 13.5809 0 18C0 22.4191 3.58087 26 8 26H10V28C10 32.4191 13.5809 36 18 36C22.4191 36 26 32.4163 26 28V26H28C32.4191 26 36 22.4191 36 18C36 13.5809 32.4191 10 28 10ZM26.135 24.3797C26.0872 24.4191 24.5429 24.4585 24.5007 24.5007C24.4585 24.5429 24.4191 26.0872 24.3797 26.135C24.1406 29.7412 21.3136 32.8017 18 33.2096C14.6667 33.007 11.8594 29.7412 11.6203 26.135C11.5809 26.0872 11.5415 24.5429 11.4993 24.5007C11.4571 24.4585 9.9128 24.4191 9.86498 24.3797C6.25879 24.1406 3.19831 21.3136 2.79044 18C3.19831 14.6864 6.25879 11.8565 9.86498 11.6203C9.9128 11.5837 11.4571 11.5415 11.4993 11.4993C11.5415 11.4571 11.5809 9.9128 11.6203 9.86498C11.8594 6.25879 14.6864 3.1955 18 2.79044C21.3136 3.1955 24.1435 6.25879 24.3797 9.86498C24.4163 9.9128 24.4585 11.4571 24.5007 11.4993C24.5429 11.5415 26.0872 11.5809 26.135 11.6203C29.7412 11.8594 32.8017 14.6864 33.2096 18C32.8045 21.3136 29.7412 24.1406 26.135 24.3797Z" fill="#00599D"/>
<path d="M24.27 13.2377C24.1772 13.1617 23.0858 13.083 23.0014 12.9986C22.917 12.9142 22.8354 11.8228 22.7623 11.73C22.2869 8.93389 20.211 6.39381 18.0028 5.58087C15.7946 6.39381 13.7187 8.93389 13.2433 11.73C13.1674 11.8228 13.0886 12.9114 13.0042 12.9986C12.9198 13.083 11.8284 13.1646 11.7356 13.2377C8.93951 13.7131 6.40224 15.789 5.58649 17.9972C6.39943 20.2053 8.93951 22.2813 11.7356 22.7567C11.8284 22.8326 12.917 22.9114 13.0042 22.9986C13.0914 23.0858 13.1702 24.1716 13.2433 24.2672C13.7187 27.0633 15.7946 29.6006 18.0028 30.4163C20.211 29.6034 22.2869 27.0633 22.7623 24.2672C22.8382 24.1744 22.917 23.083 23.0014 22.9986C23.0858 22.9142 24.1772 22.8326 24.27 22.7567C27.0661 22.2813 29.6034 20.2053 30.4191 17.9972C29.6062 15.789 27.0661 13.7131 24.27 13.2377ZM22.4051 21.1392C22.2644 21.2518 21.6315 21.3727 21.5021 21.4993C21.3727 21.6259 21.2546 22.2616 21.142 22.4022C20.4276 24.3882 19.1055 26.4051 18.0028 27.6259C16.8973 26.4051 15.5752 24.3882 14.8636 22.4022C14.751 22.2616 14.6301 21.6287 14.5035 21.4993C14.3769 21.3727 13.7412 21.2518 13.6006 21.1392C11.6146 20.4248 9.59774 19.1055 8.37692 18C9.59774 16.8973 11.6174 15.5724 13.6006 14.8579C13.7412 14.7454 14.3741 14.6245 14.5035 14.4979C14.6329 14.3713 14.751 13.7356 14.8636 13.5949C15.578 11.609 16.8973 9.59212 18.0028 8.37131C19.1083 9.59212 20.4304 11.609 21.142 13.5949C21.2546 13.7356 21.3755 14.3685 21.5021 14.4979C21.6287 14.6245 22.2644 14.7454 22.4051 14.8608C24.391 15.5724 26.4079 16.8973 27.6287 18C26.4079 19.1055 24.391 20.4276 22.4051 21.1392Z" fill="#00599D"/>
<path d="M18.0113 12.9733L18 12.7511L17.9888 12.9733C17.8481 15.6625 15.699 17.8115 13.0099 17.9522L12.7876 17.9634L13.0099 17.9747C15.699 18.1153 17.8481 20.2644 17.9888 22.9536L18 23.1758L18.0113 22.9536C18.1519 20.2644 20.301 18.1153 22.9902 17.9747L23.2124 17.9634L22.9902 17.9522C20.301 17.8115 18.1519 15.6625 18.0113 12.9733Z" fill="#00599D"/>
<path d="M47.3108 19.4008H55.6793V16.0506H47.3108V11.3868H57.7749V7.84529H43.4346V27.9353H57.9915V24.3854H47.3108V19.4008Z" fill="#00599D"/>
<path d="M77.038 7.84529L72.2391 22.5316L67.4205 7.84529H63.0408L60.5963 27.9353H64.4979L66.0169 14.0478L70.5766 27.9353H73.9381L78.5035 14.0478L79.9606 27.9466H83.8734L81.4177 7.84529H77.038Z" fill="#00599D"/>
<path d="M97.6934 17.8368C96.7679 17.4205 95.5724 16.9986 94.1153 16.5767C92.9058 16.2532 91.9747 15.9691 91.3249 15.7271C90.6807 15.4852 90.1406 15.1505 89.7131 14.7229C89.2855 14.2954 89.0689 13.73 89.0689 13.0352C89.0689 12.3404 89.2743 11.7834 89.6878 11.2799C90.1041 10.7764 90.661 10.3994 91.3699 10.1378C92.076 9.8706 92.8523 9.74121 93.7018 9.74121C94.6639 9.74121 95.6174 9.92124 96.5542 10.2813C97.4909 10.6357 98.2982 11.1196 98.9592 11.7328L100.36 10.1153C99.4909 9.30802 98.4698 8.68354 97.2911 8.23629C96.1069 7.79466 94.8776 7.57243 93.6006 7.57243C92.2475 7.57243 91.052 7.80309 90.0084 8.2616C88.9733 8.71449 88.1603 9.35302 87.5837 10.166C87.007 10.9845 86.7229 11.9156 86.7229 12.962C86.7229 14.1153 87.0211 15.0577 87.6231 15.7834C88.225 16.5148 88.962 17.0745 89.8312 17.4515C90.7061 17.8369 91.7722 18.1828 93.0324 18.512C94.3291 18.8523 95.339 19.1646 96.0703 19.4487C96.7961 19.7271 97.384 20.1013 97.8369 20.571C98.2897 21.0352 98.5204 21.6428 98.5204 22.3994C98.5204 23.1561 98.3151 23.8256 97.9016 24.3657C97.4852 24.9058 96.9142 25.308 96.1885 25.5865C95.4627 25.8594 94.6498 26.0028 93.744 26.0028C92.5401 26.0028 91.3755 25.7609 90.2391 25.2714C89.1055 24.7876 88.1603 24.0928 87.4121 23.1871L85.8678 24.6695C86.7792 25.8031 87.9325 26.6779 89.3361 27.2855C90.7314 27.8987 92.2025 28.2025 93.7468 28.2025C95.0914 28.2025 96.301 27.9719 97.3868 27.5134C98.4669 27.0549 99.3221 26.3854 99.9494 25.5049C100.582 24.6245 100.897 23.5752 100.897 22.3544C100.897 21.2208 100.594 20.2897 99.9916 19.5584C99.3952 18.8326 98.6273 18.256 97.6962 17.834L97.6934 17.8368Z" fill="#00599D"/>
<path d="M113.873 13.8003C112.844 13.1364 111.654 12.8073 110.301 12.8073C108.948 12.8073 107.831 13.1477 106.796 13.8425C105.755 14.5316 104.942 15.474 104.352 16.6582C103.755 17.8425 103.466 19.1505 103.466 20.5851C103.466 22.0197 103.781 23.2883 104.414 24.4726C105.046 25.6568 105.916 26.5879 107.024 27.2771C108.127 27.9662 109.356 28.3066 110.695 28.3066C111.792 28.3066 112.805 28.121 113.733 27.7412C114.661 27.3615 115.488 26.8298 116.214 26.1463L115.041 24.5148C114.501 25.0492 113.868 25.4627 113.15 25.7665C112.43 26.0647 111.648 26.2138 110.813 26.2138C109.927 26.2138 109.114 26.0084 108.374 25.6006C107.637 25.1899 107.03 24.6217 106.551 23.8875C106.073 23.1505 105.775 22.301 105.665 21.339H117.035C117.072 21.0717 117.091 20.7989 117.091 20.526C117.091 19.0436 116.813 17.7215 116.253 16.5513C115.696 15.3783 114.9 14.4613 113.871 13.7975L113.873 13.8003ZM105.713 19.3249C105.857 18.4501 106.141 17.6765 106.574 16.9986C107.007 16.3291 107.553 15.8087 108.205 15.443C108.858 15.0774 109.581 14.8917 110.371 14.8917C111.162 14.8917 111.859 15.0774 112.481 15.4374C113.108 15.7975 113.623 16.3122 114.025 16.9817C114.436 17.6512 114.7 18.4332 114.838 19.3249H105.716H105.713Z" fill="#00599D"/>
<path d="M131.308 13.533C130.439 13.038 129.392 12.7876 128.169 12.7876C127.159 12.7876 126.203 13.0042 125.297 13.4318C124.391 13.8594 123.671 14.4248 123.139 15.1195V13.1167H121.018V27.9325H123.238V19.5415C123.238 18.661 123.437 17.8734 123.826 17.1674C124.222 16.4613 124.762 15.9072 125.437 15.519C126.113 15.1224 126.864 14.9226 127.696 14.9226C129.01 14.9226 130.023 15.3136 130.723 16.0956C131.423 16.8776 131.772 18 131.772 19.4571V27.9353H134.017V19.097C134.017 17.775 133.781 16.6413 133.316 15.6934C132.852 14.7511 132.183 14.0309 131.308 13.5359V13.533Z" fill="#00599D"/>
<path d="M146.231 20.2729C145.463 19.9184 144.532 19.6034 143.446 19.3249C142.509 19.0886 141.778 18.8523 141.249 18.6188C140.714 18.3826 140.343 18.1294 140.127 17.8425C139.904 17.564 139.797 17.2236 139.797 16.8242C139.797 16.2278 140.059 15.7637 140.591 15.429C141.117 15.0886 141.887 14.9198 142.897 14.9198C143.66 14.9198 144.422 15.0492 145.193 15.3108C145.961 15.5781 146.613 15.9128 147.159 16.3207L148.45 14.6892C147.761 14.0816 146.911 13.609 145.907 13.2883C144.903 12.9648 143.916 12.8045 142.942 12.8045C141.795 12.8045 140.81 12.9845 139.983 13.339C139.153 13.699 138.52 14.1828 138.084 14.7904C137.651 15.4037 137.432 16.0816 137.432 16.8242C137.432 18.9648 139.075 20.4276 142.368 21.1955C143.331 21.4262 144.104 21.6596 144.695 21.8959C145.291 22.1322 145.73 22.4163 146.028 22.7454C146.326 23.0745 146.47 23.4712 146.47 23.924C146.47 24.6442 146.16 25.2011 145.533 25.6062C144.914 26.0169 144.082 26.2138 143.052 26.2138C142.121 26.2138 141.204 26.0394 140.304 25.6878C139.398 25.3333 138.616 24.8945 137.947 24.3741L136.644 26.0478C137.451 26.7229 138.399 27.2686 139.511 27.6906C140.613 28.1069 141.806 28.3179 143.083 28.3179C144.186 28.3179 145.179 28.1266 146.048 27.7468C146.923 27.3699 147.598 26.8354 148.087 26.1603C148.571 25.4852 148.813 24.7145 148.813 23.8593C148.813 23.0042 148.577 22.2785 148.098 21.6934C147.62 21.1055 147.001 20.6329 146.225 20.2729H146.231Z" fill="#00599D"/>
<path d="M164.72 20.5288C164.72 19.0464 164.442 17.7243 163.882 16.5541C163.325 15.3812 162.529 14.4641 161.499 13.8003C160.47 13.1364 159.28 12.8073 157.927 12.8073C156.574 12.8073 155.457 13.1477 154.422 13.8425C153.381 14.5316 152.568 15.474 151.977 16.6582C151.381 17.8425 151.091 19.1505 151.091 20.5851C151.091 22.0197 151.406 23.2883 152.039 24.4726C152.672 25.6568 153.541 26.5879 154.65 27.2771C155.752 27.9662 156.982 28.3066 158.321 28.3066C159.418 28.3066 160.43 28.121 161.359 27.7412C162.29 27.3643 163.114 26.8298 163.84 26.1463L162.667 24.5148C162.127 25.0492 161.494 25.4627 160.776 25.7665C160.056 26.0647 159.274 26.2138 158.439 26.2138C157.553 26.2138 156.74 26.0084 156 25.6006C155.263 25.1899 154.655 24.6217 154.177 23.8875C153.699 23.1505 153.401 22.301 153.291 21.339H164.661C164.698 21.0717 164.717 20.7989 164.717 20.526L164.72 20.5288ZM153.339 19.3249C153.482 18.4501 153.767 17.6765 154.2 16.9986C154.633 16.3291 155.179 15.8087 155.831 15.443C156.484 15.0774 157.207 14.8917 157.997 14.8917C158.788 14.8917 159.485 15.0774 160.107 15.4374C160.734 15.7975 161.249 16.3122 161.651 16.9817C162.062 17.6512 162.326 18.4332 162.464 19.3249H153.342H153.339Z" fill="#00599D"/>
</svg>
