<svg width="147" height="32" viewBox="0 0 147 32" fill="none" xmlns="http://www.w3.org/2000/svg">
<path d="M24.8889 8.88889H23.1111V7.11111C23.1111 3.183 19.9281 0 16 0C12.0719 0 8.88889 3.183 8.88889 7.11111V8.88889H7.11111C3.183 8.88889 0 12.0719 0 16C0 19.9281 3.183 23.1111 7.11111 23.1111H8.88889V24.8889C8.88889 28.817 12.0719 32 16 32C19.9281 32 23.1111 28.8145 23.1111 24.8889V23.1111H24.8889C28.817 23.1111 32 19.9281 32 16C32 12.0719 28.817 8.88889 24.8889 8.88889ZM23.2311 21.6709C23.1886 21.7059 21.8159 21.7409 21.7784 21.7784C21.7409 21.8159 21.7059 23.1886 21.6709 23.2311C21.4584 26.4366 18.9455 29.1571 16 29.5196C13.037 29.3396 10.5416 26.4366 10.3291 23.2311C10.2941 23.1886 10.2591 21.8159 10.2216 21.7784C10.1841 21.7409 8.81138 21.7059 8.76887 21.6709C5.56337 21.4584 2.84294 18.9455 2.48039 16C2.84294 13.0545 5.56337 10.5391 8.76887 10.3291C8.81138 10.2966 10.1841 10.2591 10.2216 10.2216C10.2591 10.1841 10.2941 8.81138 10.3291 8.76887C10.5416 5.56337 13.0545 2.84044 16 2.48039C18.9455 2.84044 21.4609 5.56337 21.6709 8.76887C21.7034 8.81138 21.7409 10.1841 21.7784 10.2216C21.8159 10.2591 23.1886 10.2941 23.2311 10.3291C26.4366 10.5416 29.1571 13.0545 29.5196 16C29.1596 18.9455 26.4366 21.4584 23.2311 21.6709Z" fill="white"/>
<path d="M21.5734 11.7668C21.4908 11.6992 20.5207 11.6292 20.4457 11.5542C20.3707 11.4792 20.2982 10.5091 20.2331 10.4265C19.8106 7.94116 17.9653 5.68331 16.0025 4.96069C14.0397 5.68331 12.1944 7.94116 11.7718 10.4265C11.7043 10.5091 11.6343 11.4767 11.5593 11.5542C11.4843 11.6292 10.5141 11.7017 10.4316 11.7668C7.94623 12.1893 5.69087 14.0346 4.96576 15.9974C5.68837 17.9602 7.94623 19.8055 10.4316 20.2281C10.5141 20.2956 11.4818 20.3656 11.5593 20.4431C11.6368 20.5206 11.7068 21.4858 11.7718 21.5708C12.1944 24.0562 14.0397 26.3115 16.0025 27.0366C17.9653 26.314 19.8106 24.0562 20.2331 21.5708C20.3007 21.4883 20.3707 20.5181 20.4457 20.4431C20.5207 20.3681 21.4908 20.2956 21.5734 20.2281C24.0587 19.8055 26.3141 17.9602 27.0392 15.9974C26.3166 14.0346 24.0587 12.1893 21.5734 11.7668ZM19.9156 18.7904C19.7906 18.8904 19.228 18.9979 19.113 19.1104C18.998 19.2229 18.8929 19.788 18.7929 19.913C18.1578 21.6783 16.9826 23.4711 16.0025 24.5563C15.0198 23.4711 13.8446 21.6783 13.212 19.913C13.112 19.788 13.0045 19.2254 12.892 19.1104C12.7795 18.9979 12.2144 18.8904 12.0894 18.7904C10.3241 18.1553 8.53132 16.9826 7.44615 15.9999C8.53132 15.0198 10.3266 13.8421 12.0894 13.207C12.2144 13.107 12.777 12.9994 12.892 12.8869C13.007 12.7744 13.112 12.2093 13.212 12.0843C13.8471 10.319 15.0198 8.52625 16.0025 7.44108C16.9851 8.52625 18.1603 10.319 18.7929 12.0843C18.8929 12.2093 19.0005 12.7719 19.113 12.8869C19.2255 12.9994 19.7906 13.107 19.9156 13.2095C21.6809 13.8421 23.4737 15.0198 24.5588 15.9999C23.4737 16.9826 21.6809 18.1578 19.9156 18.7904Z" fill="white"/>
<path d="M16.01 11.532L16 11.3345L15.99 11.532C15.865 13.9224 13.9547 15.8327 11.5643 15.9577L11.3668 15.9677L11.5643 15.9777C13.9547 16.1027 15.865 18.013 15.99 20.4034L16 20.6009L16.01 20.4034C16.135 18.013 18.0453 16.1027 20.4357 15.9777L20.6332 15.9677L20.4357 15.9577C18.0453 15.8327 16.135 13.9224 16.01 11.532Z" fill="white"/>
<path d="M42.054 17.2452H49.4927V14.2673H42.054V10.1216H51.3555V6.97363H38.6085V24.8314H51.548V21.6759H42.054V17.2452Z" fill="white"/>
<path d="M68.4782 6.97363L64.2125 20.0282L59.9293 6.97363H56.0362L53.8634 24.8314H57.3314L58.6816 12.487L62.7348 24.8314H65.7227L69.7809 12.487L71.0761 24.8414H74.5541L72.3713 6.97363H68.4782Z" fill="white"/>
<path d="M86.8386 15.8549C86.0159 15.4848 84.9533 15.1098 83.6581 14.7347C82.5829 14.4472 81.7553 14.1946 81.1777 13.9796C80.6051 13.7646 80.125 13.467 79.7449 13.0869C79.3649 12.7069 79.1724 12.2043 79.1724 11.5867C79.1724 10.9691 79.3549 10.474 79.7224 10.0265C80.0925 9.5789 80.5876 9.24385 81.2177 9.01131C81.8453 8.77378 82.5354 8.65876 83.2905 8.65876C84.1456 8.65876 84.9933 8.81878 85.8259 9.13883C86.6585 9.45388 87.3761 9.88395 87.9637 10.429L89.2089 8.99131C88.4363 8.2737 87.5287 7.71861 86.481 7.32105C85.4283 6.92849 84.3357 6.73096 83.2005 6.73096C81.9978 6.73096 80.9351 6.93599 80.0075 7.34355C79.0874 7.74612 78.3647 8.3137 77.8522 9.03632C77.3396 9.76393 77.087 10.5916 77.087 11.5217C77.087 12.5469 77.3521 13.3845 77.8872 14.0296C78.4222 14.6797 79.0773 15.1773 79.85 15.5123C80.6276 15.8549 81.5752 16.1624 82.6954 16.455C83.8481 16.7575 84.7457 17.0351 85.3958 17.2876C86.0409 17.5351 86.5635 17.8677 86.9661 18.2853C87.3686 18.6978 87.5737 19.2379 87.5737 19.9105C87.5737 20.5831 87.3911 21.1782 87.0236 21.6583C86.6535 22.1384 86.146 22.4959 85.5009 22.7435C84.8558 22.986 84.1331 23.1135 83.328 23.1135C82.2578 23.1135 81.2227 22.8985 80.2125 22.4634C79.2049 22.0333 78.3647 21.4158 77.6996 20.6106L76.3269 21.9283C77.137 22.936 78.1622 23.7136 79.4099 24.2537C80.6501 24.7988 81.9578 25.0688 83.3305 25.0688C84.5257 25.0688 85.6009 24.8638 86.566 24.4562C87.5262 24.0487 88.2863 23.4536 88.8439 22.6709C89.4065 21.8883 89.6865 20.9557 89.6865 19.8705C89.6865 18.8629 89.4165 18.0352 88.8814 17.3851C88.3513 16.74 87.6687 16.2274 86.8411 15.8524L86.8386 15.8549Z" fill="white"/>
<path d="M101.221 12.2669C100.306 11.6768 99.248 11.3843 98.0453 11.3843C96.8426 11.3843 95.85 11.6868 94.9298 12.3044C94.0047 12.917 93.2821 13.7546 92.757 14.8073C92.2269 15.86 91.9694 17.0227 91.9694 18.2979C91.9694 19.5731 92.2494 20.7007 92.812 21.7534C93.3746 22.8061 94.1472 23.6337 95.1324 24.2463C96.1125 24.8589 97.2052 25.1614 98.3954 25.1614C99.3705 25.1614 100.271 24.9964 101.096 24.6589C101.921 24.3213 102.656 23.8487 103.301 23.2411L102.258 21.7909C101.778 22.266 101.216 22.6335 100.578 22.9036C99.9381 23.1686 99.243 23.3011 98.5004 23.3011C97.7128 23.3011 96.9901 23.1186 96.3325 22.7561C95.6774 22.391 95.1374 21.8859 94.7123 21.2333C94.2872 20.5782 94.0222 19.8231 93.9247 18.968H104.031C104.064 18.7304 104.081 18.4879 104.081 18.2453C104.081 16.9276 103.834 15.7525 103.336 14.7123C102.841 13.6696 102.133 12.8545 101.218 12.2644L101.221 12.2669ZM93.9672 17.1777C94.0947 16.4001 94.3472 15.7125 94.7323 15.1099C95.1173 14.5148 95.6024 14.0522 96.1825 13.7271C96.7626 13.4021 97.4052 13.2371 98.1078 13.2371C98.8104 13.2371 99.4305 13.4021 99.9831 13.7221C100.541 14.0422 100.998 14.4998 101.356 15.0949C101.721 15.6899 101.956 16.3851 102.078 17.1777H93.9697H93.9672Z" fill="white"/>
<path d="M116.718 12.0293C115.946 11.5892 115.015 11.3667 113.928 11.3667C113.03 11.3667 112.18 11.5592 111.375 11.9393C110.57 12.3193 109.93 12.8219 109.457 13.4395V11.6592H107.572V24.8288H109.545V17.3701C109.545 16.5875 109.722 15.8874 110.067 15.2598C110.42 14.6322 110.9 14.1396 111.5 13.7946C112.1 13.442 112.768 13.2645 113.508 13.2645C114.675 13.2645 115.576 13.6121 116.198 14.3072C116.821 15.0023 117.131 15.9999 117.131 17.2951V24.8313H119.126V16.9751C119.126 15.7999 118.916 14.7922 118.504 13.9496C118.091 13.112 117.496 12.4719 116.718 12.0318V12.0293Z" fill="white"/>
<path d="M129.983 18.0201C129.3 17.7051 128.473 17.425 127.507 17.1775C126.675 16.9675 126.025 16.7574 125.555 16.5499C125.08 16.3399 124.749 16.1148 124.557 15.8598C124.359 15.6123 124.264 15.3097 124.264 14.9547C124.264 14.4246 124.497 14.012 124.97 13.7145C125.437 13.4119 126.122 13.2619 127.02 13.2619C127.697 13.2619 128.375 13.3769 129.06 13.6094C129.743 13.847 130.323 14.1445 130.808 14.5071L131.956 13.0569C131.343 12.5168 130.588 12.0967 129.695 11.8117C128.803 11.5241 127.925 11.3816 127.06 11.3816C126.04 11.3816 125.165 11.5416 124.429 11.8567C123.692 12.1767 123.129 12.6068 122.742 13.1469C122.357 13.692 122.162 14.2945 122.162 14.9547C122.162 16.8574 123.622 18.1577 126.55 18.8403C127.405 19.0453 128.092 19.2528 128.618 19.4629C129.148 19.6729 129.538 19.9254 129.803 20.218C130.068 20.5105 130.195 20.8631 130.195 21.2656C130.195 21.9057 129.92 22.4008 129.363 22.7609C128.813 23.1259 128.072 23.301 127.157 23.301C126.33 23.301 125.515 23.1459 124.714 22.8334C123.909 22.5183 123.214 22.1283 122.619 21.6657L121.461 23.1534C122.179 23.7535 123.022 24.2386 124.009 24.6137C124.99 24.9837 126.05 25.1712 127.185 25.1712C128.165 25.1712 129.048 25.0012 129.82 24.6637C130.598 24.3286 131.198 23.8535 131.633 23.2534C132.063 22.6534 132.278 21.9682 132.278 21.2081C132.278 20.448 132.068 19.8029 131.643 19.2828C131.218 18.7602 130.668 18.3402 129.978 18.0201H129.983Z" fill="white"/>
<path d="M146.418 18.2478C146.418 16.9301 146.17 15.755 145.673 14.7148C145.178 13.6721 144.47 12.857 143.555 12.2669C142.64 11.6768 141.582 11.3843 140.379 11.3843C139.177 11.3843 138.184 11.6868 137.264 12.3044C136.339 12.917 135.616 13.7546 135.091 14.8073C134.561 15.86 134.303 17.0227 134.303 18.2979C134.303 19.5731 134.584 20.7007 135.146 21.7534C135.709 22.8061 136.481 23.6337 137.466 24.2463C138.447 24.8589 139.539 25.1614 140.729 25.1614C141.705 25.1614 142.605 24.9964 143.43 24.6589C144.258 24.3238 144.99 23.8487 145.635 23.2411L144.593 21.7909C144.113 22.266 143.55 22.6335 142.912 22.9036C142.272 23.1686 141.577 23.3011 140.834 23.3011C140.047 23.3011 139.324 23.1186 138.667 22.7561C138.012 22.391 137.471 21.8859 137.046 21.2333C136.621 20.5782 136.356 19.8231 136.259 18.968H146.365C146.398 18.7304 146.415 18.4879 146.415 18.2453L146.418 18.2478ZM136.301 17.1777C136.429 16.4001 136.681 15.7125 137.066 15.1099C137.451 14.5148 137.937 14.0522 138.517 13.7271C139.097 13.4021 139.739 13.2371 140.442 13.2371C141.145 13.2371 141.765 13.4021 142.317 13.7221C142.875 14.0422 143.332 14.4998 143.69 15.0949C144.055 15.6899 144.29 16.3851 144.413 17.1777H136.304H136.301Z" fill="white"/>
</svg>
