<svg width="12" height="13" viewBox="0 0 12 13" fill="none" xmlns="http://www.w3.org/2000/svg">
<path d="M11.2446 5.15C11.0411 4.94107 10.8321 4.72143 10.7518 4.53393C10.6714 4.34643 10.6768 4.06786 10.6714 3.78393C10.6661 3.26429 10.6554 2.66964 10.2429 2.25714C9.83036 1.84464 9.23571 1.83393 8.71607 1.82857L8.71478 1.82855C8.43126 1.8232 8.14259 1.81775 7.96607 1.74821C7.78929 1.67857 7.55893 1.45893 7.35 1.25536C6.98036 0.901786 6.55714 0.5 6 0.5C5.44286 0.5 5.01964 0.901786 4.65 1.25536C4.44107 1.45893 4.22143 1.66786 4.03393 1.74821C3.84643 1.82857 3.56786 1.82321 3.28393 1.82857C2.76429 1.83393 2.16964 1.84464 1.75714 2.25714C1.34464 2.66964 1.33393 3.26429 1.32857 3.78393L1.32855 3.78522C1.3232 4.06874 1.31775 4.35741 1.24821 4.53393C1.17857 4.71071 0.958929 4.94107 0.755357 5.15C0.401786 5.51964 0 5.94286 0 6.5C0 7.05714 0.401786 7.48036 0.755357 7.85C0.958929 8.05893 1.16786 8.27857 1.24821 8.46607C1.32857 8.65357 1.32321 8.93214 1.32857 9.21607C1.33393 9.73571 1.34464 10.3304 1.75714 10.7429C2.16964 11.1554 2.76429 11.1661 3.28393 11.1714L3.28523 11.1715C3.56874 11.1768 3.85741 11.1822 4.03393 11.2518C4.21071 11.3214 4.44107 11.5411 4.65 11.7446C5.01964 12.0982 5.44286 12.5 6 12.5C6.55714 12.5 6.98036 12.0982 7.35 11.7446C7.55893 11.5411 7.77857 11.3321 7.96607 11.2518C8.15357 11.1714 8.43214 11.1768 8.71607 11.1714C9.23571 11.1661 9.83036 11.1554 10.2429 10.7429C10.6554 10.3304 10.6661 9.73571 10.6714 9.21607L10.6715 9.21477C10.6768 8.93126 10.6822 8.64259 10.7518 8.46607C10.8214 8.28929 11.0411 8.05893 11.2446 7.85C11.5982 7.48036 12 7.05714 12 6.5C12 5.94286 11.5982 5.51964 11.2446 5.15Z" fill="#1B68E9"/>
<path d="M8.86965 5.75638L5.48888 8.87738C5.40148 8.95681 5.2858 9.00071 5.16581 8.99999C5.04758 9.00043 4.9338 8.95646 4.8485 8.87738L3.15811 7.31688C3.11123 7.27737 3.0731 7.2291 3.04602 7.17499C3.01893 7.12087 3.00346 7.06203 3.00052 7.00199C2.99758 6.94195 3.00723 6.88195 3.02891 6.82561C3.05058 6.76927 3.08382 6.71774 3.12663 6.67413C3.16945 6.63051 3.22095 6.59571 3.27804 6.57181C3.33513 6.54792 3.39664 6.53542 3.45886 6.53507C3.52108 6.53472 3.58273 6.54653 3.6401 6.56978C3.69748 6.59304 3.7494 6.62726 3.79273 6.67039L5.16581 7.93551L8.23504 5.10989C8.32478 5.03426 8.44131 4.99506 8.56027 5.0005C8.67924 5.00594 8.79142 5.05559 8.87337 5.13907C8.95531 5.22255 9.00068 5.3334 8.99999 5.44845C8.9993 5.56349 8.9526 5.67383 8.86965 5.75638Z" fill="white"/>
</svg>
