<svg width="49" height="33" viewBox="0 0 49 33" fill="none" xmlns="http://www.w3.org/2000/svg">
<rect x="0.5" y="0.253906" width="48" height="32" rx="4" fill="#FFB3C7"/>
<path d="M40.5825 14.5198C40.0745 14.1737 39.4818 13.9726 38.8681 13.9383C38.2544 13.9039 37.6429 14.0376 37.0995 14.3249C36.5561 14.6122 36.1013 15.0422 35.7841 15.5687C35.4669 16.0952 35.2993 16.6982 35.2993 17.3129C35.2993 17.9276 35.4669 18.5306 35.7841 19.0571C36.1013 19.5836 36.5561 20.0136 37.0995 20.3009C37.6429 20.5882 38.2544 20.7219 38.8681 20.6875C39.4818 20.6532 40.0745 20.4521 40.5825 20.106V20.5153H42.5002V14.1101H40.5825V14.5198ZM38.8383 18.9609C38.5161 18.9438 38.2059 18.8326 37.9463 18.641C37.6866 18.4495 37.4888 18.186 37.3773 17.8833C37.2658 17.5805 37.2455 17.2516 37.3189 16.9374C37.3923 16.6232 37.5562 16.3375 37.7904 16.1154C38.0245 15.8934 38.3186 15.7449 38.6363 15.6883C38.9539 15.6317 39.2812 15.6694 39.5776 15.7968C39.8741 15.9243 40.1267 16.1358 40.3041 16.4053C40.4816 16.6747 40.5762 16.9903 40.5762 17.313C40.5639 17.7619 40.374 18.1875 40.0482 18.4965C39.7223 18.8055 39.2872 18.9725 38.8383 18.9609Z" fill="black"/>
<path d="M14.2826 11.2556H12.2756V20.5154H14.2826V11.2556Z" fill="black"/>
<path d="M31.8935 13.9378C31.5164 13.9155 31.1396 13.9852 30.7955 14.141C30.4514 14.2967 30.1503 14.5338 29.9182 14.8318V14.1104H28.0083V20.5154H29.9411V17.1493C29.9263 16.956 29.9532 16.7617 30.0202 16.5797C30.0871 16.3977 30.1925 16.2322 30.3291 16.0945C30.4657 15.9569 30.6303 15.8502 30.8118 15.7819C30.9932 15.7135 31.1873 15.685 31.3808 15.6983C32.2237 15.6983 32.7082 16.2019 32.7082 17.1361V20.5154H34.6239V16.4422C34.6238 14.9515 33.4386 13.9378 31.8935 13.9378Z" fill="black"/>
<path d="M20.3503 14.5198C19.8423 14.1737 19.2496 13.9726 18.6359 13.9383C18.0222 13.9039 17.4107 14.0376 16.8673 14.3249C16.3239 14.6122 15.8692 15.0422 15.552 15.5687C15.2348 16.0952 15.0671 16.6982 15.0671 17.3129C15.0671 17.9276 15.2348 18.5306 15.552 19.0571C15.8692 19.5836 16.3239 20.0136 16.8673 20.3009C17.4107 20.5882 18.0222 20.7219 18.6359 20.6875C19.2496 20.6532 19.8423 20.4521 20.3503 20.106V20.5153H22.2681V14.1101H20.3503V14.5198ZM18.606 18.9609C18.2838 18.9438 17.9737 18.8327 17.714 18.6411C17.4543 18.4496 17.2564 18.1862 17.1449 17.8834C17.0334 17.5806 17.013 17.2518 17.0864 16.9376C17.1598 16.6233 17.3237 16.3375 17.5579 16.1155C17.792 15.8935 18.0861 15.7449 18.4037 15.6883C18.7214 15.6316 19.0487 15.6694 19.3452 15.7968C19.6416 15.9242 19.8942 16.1358 20.0717 16.4052C20.2492 16.6747 20.3437 16.9903 20.3437 17.313C20.3315 17.7618 20.1416 18.1875 19.8158 18.4965C19.49 18.8054 19.0549 18.9725 18.606 18.9609Z" fill="black"/>
<path d="M25.2347 14.9444V14.1102H23.2712V20.5155H25.2389V17.5252C25.2389 16.5162 26.3326 15.9738 27.0915 15.9738C27.0991 15.9738 27.1065 15.9746 27.1142 15.9746V14.1105C26.7586 14.101 26.4054 14.1709 26.0803 14.3152C25.7551 14.4594 25.4663 14.6744 25.2347 14.9444Z" fill="black"/>
<path d="M44.5362 18.2435C44.2981 18.2435 44.0654 18.3141 43.8674 18.4464C43.6695 18.5787 43.5152 18.7667 43.4241 18.9866C43.333 19.2066 43.3092 19.4486 43.3557 19.6821C43.4021 19.9156 43.5168 20.1301 43.6851 20.2984C43.8534 20.4667 44.0679 20.5814 44.3014 20.6278C44.5349 20.6743 44.7769 20.6504 44.9969 20.5593C45.2168 20.4682 45.4048 20.3139 45.5371 20.116C45.6693 19.918 45.7399 19.6853 45.7399 19.4472C45.7399 19.2892 45.7088 19.1326 45.6483 18.9866C45.5878 18.8405 45.4992 18.7078 45.3874 18.596C45.2756 18.4843 45.1429 18.3956 44.9968 18.3351C44.8508 18.2746 44.6943 18.2435 44.5362 18.2435Z" fill="black"/>
<path d="M10.8924 11.2539H8.81248C8.8157 12.088 8.62272 12.9112 8.24914 13.657C7.87555 14.4028 7.33183 15.0503 6.66186 15.5472L5.83789 16.1643L9.0308 20.5184H11.6558L8.71808 16.512C9.41091 15.8234 9.95993 15.004 10.3332 14.1013C10.7065 13.1986 10.8966 12.2307 10.8924 11.2539Z" fill="black"/>
<path d="M5.58366 11.2539H3.5V20.518H5.58366V11.2539Z" fill="black"/>
</svg>
