<svg width="14" height="14" viewBox="0 0 14 14" fill="none" xmlns="http://www.w3.org/2000/svg">
<path d="M5.36197 6.50816C5.23016 6.37635 5.05138 6.30229 4.86497 6.30229C4.67856 6.30229 4.49979 6.37635 4.36797 6.50816C4.23616 6.63997 4.16211 6.81875 4.16211 7.00516C4.16211 7.19157 4.23616 7.37035 4.36797 7.50216L6.46797 9.60216C6.53338 9.66704 6.61095 9.71836 6.69624 9.7532C6.78153 9.78803 6.87285 9.80569 6.96497 9.80516C7.0608 9.80212 7.15499 9.77942 7.24168 9.73848C7.32838 9.69754 7.40574 9.63923 7.46897 9.56716L12.369 3.96716C12.4821 3.82669 12.5367 3.64797 12.5213 3.46826C12.5058 3.28855 12.4217 3.12172 12.2863 3.00256C12.1508 2.88341 11.9747 2.82112 11.7945 2.82868C11.6143 2.83624 11.4439 2.91308 11.319 3.04316L6.96497 8.08316L5.36197 6.50816Z" fill="white"/>
<path d="M13.2636 6.30519C13.078 6.30519 12.8999 6.37894 12.7687 6.51021C12.6374 6.64149 12.5636 6.81954 12.5636 7.00519C12.5636 8.4904 11.9736 9.91478 10.9234 10.965C9.87323 12.0152 8.44885 12.6052 6.96364 12.6052C5.8577 12.6047 4.77667 12.2767 3.85687 11.6627C2.93707 11.0486 2.21969 10.1759 1.79518 9.15473C1.37067 8.13351 1.25804 7.00945 1.4715 5.92431C1.68496 4.83917 2.21495 3.84153 2.99464 3.05719C3.51313 2.53176 4.13121 2.11502 4.81272 1.83136C5.49422 1.5477 6.22546 1.40281 6.96364 1.40519C7.41125 1.40799 7.85723 1.45963 8.29364 1.55919C8.38496 1.58744 8.48111 1.59668 8.57615 1.58635C8.67118 1.57602 8.76309 1.54633 8.84622 1.49911C8.92934 1.4519 9.00191 1.38816 9.05945 1.31182C9.117 1.23549 9.1583 1.14818 9.18081 1.05527C9.20332 0.96236 9.20656 0.865826 9.19033 0.771618C9.1741 0.67741 9.13875 0.587524 9.08645 0.507502C9.03415 0.42748 8.96602 0.359018 8.88625 0.306336C8.80648 0.253654 8.71677 0.217869 8.62264 0.201188C8.07884 0.0732579 7.52228 0.00750319 6.96364 0.00518799C5.58068 0.0123725 4.23083 0.429052 3.08445 1.20264C1.93806 1.97624 1.04652 3.07207 0.522322 4.35186C-0.00187425 5.63165 -0.13523 7.03803 0.139083 8.39354C0.413396 9.74904 1.08309 10.9929 2.06364 11.9682C3.36332 13.2685 5.1252 14.0009 6.96364 14.0052C8.82015 14.0052 10.6006 13.2677 11.9134 11.9549C13.2261 10.6422 13.9636 8.8617 13.9636 7.00519C13.9636 6.81954 13.8899 6.64149 13.7586 6.51021C13.6273 6.37894 13.4493 6.30519 13.2636 6.30519Z" fill="white"/>
</svg>
