<svg width="49" height="33" viewBox="0 0 49 33" fill="none" xmlns="http://www.w3.org/2000/svg">
<rect x="0.5" y="0.253906" width="48" height="32" rx="4" fill="black"/>
<path d="M30.9133 6.92059C36.0817 6.9207 40.2717 11.0415 40.2717 16.1247C40.2717 21.2078 36.0817 25.3287 30.9133 25.3288C28.596 25.3288 26.4765 24.4987 24.842 23.1266C23.2078 24.4982 21.0895 25.3288 18.7727 25.3288C13.6043 25.3288 9.41437 21.2079 9.41431 16.1247C9.41431 11.0415 13.6043 6.92059 18.7727 6.92059C21.0893 6.92061 23.2078 7.75038 24.842 9.12177C26.4764 7.74987 28.5962 6.92059 30.9133 6.92059Z" fill="#ED0006"/>
<path d="M30.9132 6.92059C36.0816 6.92063 40.2716 11.0415 40.2716 16.1247C40.2715 21.2078 36.0816 25.3288 30.9132 25.3288C28.5961 25.3288 26.4773 24.4985 24.8429 23.1266C26.8541 21.4385 28.1309 18.929 28.131 16.1247C28.131 13.3202 26.8544 10.8099 24.8429 9.12177C26.4772 7.75012 28.5963 6.92059 30.9132 6.92059Z" fill="#F9A000"/>
<path d="M24.843 9.12225C26.8542 10.8104 28.131 13.32 28.1311 16.1242C28.1311 18.9284 26.8541 21.438 24.843 23.1262C22.8319 21.438 21.5549 18.9285 21.5549 16.1242C21.555 13.3199 22.8318 10.8104 24.843 9.12225Z" fill="#FF5E00"/>
</svg>
