<svg width="38" height="24" viewBox="0 0 38 24" fill="none" xmlns="http://www.w3.org/2000/svg">
<rect x="0.000488281" width="38" height="24" rx="4" fill="#0F3560"/>
<path d="M22.3159 17.8983H15.6665V6.10547H22.3159V17.8983Z" fill="#FF5F00"/>
<path d="M16.0928 12.001C16.0928 9.60874 17.2278 7.4778 18.9953 6.10454C17.7028 5.10035 16.0715 4.50098 14.2987 4.50098C10.1018 4.50098 6.69971 7.85879 6.69971 12.001C6.69971 16.1432 10.1018 19.501 14.2987 19.501C16.0715 19.501 17.7028 18.9016 18.9953 17.8974C17.2278 16.5242 16.0928 14.3932 16.0928 12.001Z" fill="#EB001B"/>
<path d="M31.2839 12.001C31.2839 16.1432 27.8818 19.501 23.6848 19.501C21.912 19.501 20.2808 18.9016 18.9878 17.8974C20.7558 16.5242 21.8908 14.3932 21.8908 12.001C21.8908 9.60874 20.7558 7.4778 18.9878 6.10454C20.2808 5.10035 21.912 4.50098 23.6848 4.50098C27.8818 4.50098 31.2839 7.85879 31.2839 12.001Z" fill="#F79E1B"/>
<path d="M12.4177 12.0486C12.4177 11.721 12.6352 11.4518 12.9907 11.4518C13.3303 11.4518 13.5596 11.7094 13.5596 12.0486C13.5596 12.3878 13.3303 12.6453 12.9907 12.6453C12.6352 12.6453 12.4177 12.3762 12.4177 12.0486ZM13.9468 12.0486V11.1167H13.5361V11.3429C13.4059 11.1751 13.2082 11.0698 12.9396 11.0698C12.41 11.0698 11.9948 11.4795 11.9948 12.0486C11.9948 12.6181 12.41 13.0273 12.9396 13.0273C13.2082 13.0273 13.4059 12.922 13.5361 12.7542V12.9805H13.9468V12.0486ZM27.8242 12.0486C27.8242 11.721 28.0418 11.4518 28.3972 11.4518C28.7374 11.4518 28.9662 11.7094 28.9662 12.0486C28.9662 12.3878 28.7374 12.6453 28.3972 12.6453C28.0418 12.6453 27.8242 12.3762 27.8242 12.0486ZM29.3538 12.0486V10.3682H28.9427V11.3429C28.8124 11.1751 28.6148 11.0698 28.3461 11.0698C27.8165 11.0698 27.4013 11.4795 27.4013 12.0486C27.4013 12.6181 27.8165 13.0273 28.3461 13.0273C28.6148 13.0273 28.8124 12.922 28.9427 12.7542V12.9805H29.3538V12.0486ZM19.0443 11.4326C19.3089 11.4326 19.4789 11.5964 19.5224 11.8848H18.5423C18.5862 11.6156 18.7517 11.4326 19.0443 11.4326ZM19.0525 11.0698C18.4989 11.0698 18.1117 11.4675 18.1117 12.0486C18.1117 12.6413 18.5147 13.0273 19.08 13.0273C19.3645 13.0273 19.625 12.9573 19.8543 12.7662L19.6531 12.4659C19.4948 12.5904 19.2931 12.6609 19.1036 12.6609C18.839 12.6609 18.5979 12.54 18.5387 12.2043H19.9412C19.9452 12.1539 19.9493 12.103 19.9493 12.0486C19.9452 11.4675 19.5816 11.0698 19.0525 11.0698ZM24.0111 12.0486C24.0111 11.721 24.2287 11.4518 24.5842 11.4518C24.9238 11.4518 25.1531 11.7094 25.1531 12.0486C25.1531 12.3878 24.9238 12.6453 24.5842 12.6453C24.2287 12.6453 24.0111 12.3762 24.0111 12.0486ZM25.5403 12.0486V11.1167H25.1296V11.3429C24.9989 11.1751 24.8017 11.0698 24.5331 11.0698C24.0034 11.0698 23.5883 11.4795 23.5883 12.0486C23.5883 12.6181 24.0034 13.0273 24.5331 13.0273C24.8017 13.0273 24.9989 12.922 25.1296 12.7542V12.9805H25.5403V12.0486ZM21.6919 12.0486C21.6919 12.6141 22.0908 13.0273 22.6996 13.0273C22.984 13.0273 23.1735 12.9649 23.3789 12.8051L23.1817 12.4775C23.0275 12.5868 22.8655 12.6453 22.6873 12.6453C22.3594 12.6413 22.1184 12.4074 22.1184 12.0486C22.1184 11.6897 22.3594 11.4559 22.6873 11.4518C22.8655 11.4518 23.0275 11.5103 23.1817 11.6197L23.3789 11.2921C23.1735 11.1323 22.984 11.0698 22.6996 11.0698C22.0908 11.0698 21.6919 11.4831 21.6919 12.0486ZM26.9866 11.0698C26.7496 11.0698 26.5954 11.1791 26.4887 11.3429V11.1167H26.0816V12.9805H26.4927V11.9356C26.4927 11.6272 26.6271 11.4559 26.8957 11.4559C26.9789 11.4559 27.0658 11.4675 27.1526 11.5027L27.2792 11.1207C27.1883 11.0854 27.0698 11.0698 26.9866 11.0698ZM15.9779 11.2648C15.7803 11.1363 15.508 11.0698 15.2077 11.0698C14.7292 11.0698 14.4212 11.2961 14.4212 11.6665C14.4212 11.9705 14.6505 12.1579 15.0729 12.2164L15.267 12.2436C15.4922 12.2749 15.5985 12.3333 15.5985 12.4386C15.5985 12.5828 15.4483 12.6649 15.1679 12.6649C14.8834 12.6649 14.6781 12.5752 14.5397 12.4699L14.3461 12.7854C14.5714 12.9492 14.8558 13.0273 15.1638 13.0273C15.7093 13.0273 16.0254 12.7738 16.0254 12.419C16.0254 12.0914 15.7767 11.92 15.3655 11.8616L15.172 11.8339C14.9942 11.8107 14.8518 11.7759 14.8518 11.6509C14.8518 11.5143 14.9861 11.4326 15.2113 11.4326C15.4524 11.4326 15.6858 11.5224 15.8002 11.5924L15.9779 11.2648ZM21.2767 11.0698C21.0397 11.0698 20.8855 11.1791 20.7792 11.3429V11.1167H20.3722V12.9805H20.7828V11.9356C20.7828 11.6272 20.9172 11.4559 21.1858 11.4559C21.269 11.4559 21.3559 11.4675 21.4427 11.5027L21.5693 11.1207C21.4784 11.0854 21.3599 11.0698 21.2767 11.0698ZM17.7721 11.1167H17.1005V10.5512H16.6853V11.1167H16.3022V11.4871H16.6853V12.3373C16.6853 12.7698 16.8553 13.0273 17.3411 13.0273C17.5193 13.0273 17.7246 12.9729 17.8548 12.8832L17.7363 12.5359C17.6138 12.606 17.4795 12.6413 17.3727 12.6413C17.1674 12.6413 17.1005 12.5163 17.1005 12.3293V11.4871H17.7721V11.1167ZM11.6316 12.9805V11.8107C11.6316 11.3702 11.3471 11.0738 10.8885 11.0698C10.6475 11.0658 10.3987 11.1399 10.2246 11.4014C10.0943 11.1948 9.88902 11.0698 9.60047 11.0698C9.39876 11.0698 9.20157 11.1283 9.04734 11.3465V11.1167H8.63623V12.9805H9.05096V11.9473C9.05096 11.6237 9.23277 11.4518 9.51363 11.4518C9.78635 11.4518 9.92429 11.6272 9.92429 11.9432V12.9805H10.3395V11.9473C10.3395 11.6237 10.529 11.4518 10.8017 11.4518C11.0821 11.4518 11.2164 11.6272 11.2164 11.9432V12.9805H11.6316Z" fill="white"/>
</svg>
