<svg width="60" height="32" viewBox="0 0 60 32" fill="none" xmlns="http://www.w3.org/2000/svg">
<path d="M12.8481 25.7828C12.8481 25.7828 2.30747 22.188 3.52604 7.62613C3.52604 7.62613 8.1566 6.28571 12.8481 6.28571C17.5396 6.28571 22.0483 7.5652 22.1701 7.62613C23.3887 22.188 12.8481 25.7828 12.8481 25.7828Z" fill="url(#paint0_linear_7827_2593)"/>
<path d="M12.8481 25.7828C12.8481 25.7828 2.30747 22.188 3.52604 7.62613C3.52604 7.62613 8.1566 6.28571 12.8481 6.28571C17.5396 6.28571 22.0483 7.5652 22.1701 7.62613L21.1953 8.47913L12.8481 24.8689V25.7828Z" fill="url(#paint1_linear_7827_2593)"/>
<path d="M12.8481 24.8689C12.8481 24.8689 3.34326 21.6397 4.43997 8.41821C4.43997 8.41821 8.64403 7.19965 12.8481 7.19965C17.1131 7.19965 21.1953 8.35729 21.3171 8.41821C22.4138 21.6397 12.8481 24.8689 12.8481 24.8689Z" fill="white" stroke="#02122E" stroke-width="0.5145" stroke-linecap="round"/>
<path d="M12.8481 24.8689C12.8481 24.8689 3.34326 21.6397 4.43997 8.41821C4.43997 8.41821 8.64403 7.19965 12.8481 7.19965C17.1131 7.19965 21.1953 8.35729 21.3171 8.41821C22.4138 21.6397 12.8481 24.8689 12.8481 24.8689Z" fill="white"/>
<path d="M4.37904 8.29638H4.31811V8.41823C3.76975 15.3031 6.08503 19.4463 8.1566 21.7006C10.4109 24.1378 12.7872 24.9908 12.8481 24.9908H12.909H12.9699C12.9699 24.9908 15.4071 24.1378 17.6614 21.7006C19.733 19.4463 22.1092 15.3031 21.4999 8.41823V8.3573H21.439C21.3781 8.3573 17.2349 7.13874 12.909 7.13874C8.64402 7.07781 4.37904 8.23545 4.37904 8.29638ZM12.9699 7.26059C16.9303 7.26059 20.6469 8.29638 21.1953 8.47916C21.2562 9.14937 21.2562 9.94144 21.2562 10.5507C21.2562 16.0952 19.1846 19.6291 17.3568 21.6397C15.2852 23.894 13.1527 24.747 12.7872 24.8689C12.4825 24.747 10.2282 23.894 8.21752 21.6397C6.38967 19.6291 4.37904 16.1561 4.37904 10.6117C4.37904 10.0024 4.43996 9.2103 4.50089 8.54009C5.17111 8.3573 9.13145 7.26059 12.9699 7.26059Z" fill="url(#paint2_linear_7827_2593)"/>
<path d="M12.8481 23.2238C12.8481 23.2238 4.86649 20.2992 5.78042 9.21027C5.78042 9.21027 9.31426 9.51491 12.8481 9.51491C16.382 9.51491 19.8549 9.27119 19.9158 9.21027C20.8907 20.2992 12.8481 23.2238 12.8481 23.2238Z" fill="url(#paint3_linear_7827_2593)"/>
<path d="M12.8481 22.249C12.8481 22.249 5.96322 19.7509 6.75529 10.1242C6.75529 10.1242 9.80171 10.3679 12.8481 10.3679C15.8945 10.3679 18.88 10.1242 19.0019 10.1242C19.794 19.7509 12.8481 22.249 12.8481 22.249Z" fill="url(#paint4_radial_7827_2593)"/>
<path d="M19.9158 9.21027C19.7939 9.21027 16.3819 9.51491 12.8481 9.51491C9.31424 9.51491 5.7804 9.21027 5.7804 9.21027L6.75525 10.1851C6.75525 10.1851 9.80167 10.4288 12.8481 10.4288C15.8945 10.4288 18.88 10.1851 19.0019 10.1851L19.9158 9.21027Z" fill="#8B1820"/>
<path d="M12.8481 23.2238C12.8481 23.2238 4.86649 20.2992 5.78042 9.21027L6.75527 10.1851C5.9632 19.7509 12.8481 22.3099 12.8481 22.3099V23.2238Z" fill="url(#paint5_linear_7827_2593)"/>
<path d="M8.58313 18.4105L9.67984 11.0381H11.6295L13.9448 18.4105H11.9342L10.8984 14.572L10.3501 18.4105H8.58313Z" fill="white"/>
<path d="M14.2494 11.0381H16.0773L17.174 18.4105H15.4071L14.7369 14.572L14.1276 17.6184L13.0918 14.572L14.2494 11.0381Z" fill="white"/>
<path d="M29.116 14.572H27.6537L26.2524 10.9772L25.7649 14.572H24.1199L25.1557 7.93079H26.7398L29.116 14.572ZM28.0802 11.16L29.2988 7.93079H30.8829L31.7969 14.572H30.2127L29.7862 10.9772L28.8723 13.1097L28.0802 11.16Z" fill="#02122E"/>
<path d="M37.8897 13.4143L37.4632 14.572H35.879L38.1334 7.93079H39.7784L41.9719 14.572H40.3268L39.9612 13.4143H37.8897ZM38.9254 10.0024L38.2552 12.1348H39.5347L38.9254 10.0024Z" fill="#02122E"/>
<path d="M50.0144 12.6223H46.9071C46.9071 13.2925 47.2117 13.6581 47.821 13.6581C48.1256 13.6581 48.3693 13.5362 48.5521 13.2316H49.9535C49.8316 13.7799 49.527 14.1455 49.1614 14.3892C48.7958 14.6329 48.3084 14.7548 47.821 14.7548C46.4196 14.7548 45.3839 13.9018 45.3839 12.3176C45.3839 10.7944 46.3587 9.88049 47.6991 9.88049C49.1614 9.88049 50.0144 10.8553 50.0144 12.3786V12.6223ZM48.674 11.6474C48.6131 11.2209 48.2475 10.9163 47.821 10.9163C47.3945 10.9163 47.0289 11.16 46.968 11.6474H48.674Z" fill="#02122E"/>
<path d="M55.1324 12.6223H52.025C52.025 13.2925 52.3297 13.6581 52.939 13.6581C53.2436 13.6581 53.4873 13.5362 53.6701 13.2316H55.0715C54.9496 13.7799 54.645 14.1455 54.2794 14.3892C53.9138 14.6329 53.4264 14.7548 52.939 14.7548C51.5376 14.7548 50.5018 13.9018 50.5018 12.3176C50.5018 10.7944 51.4767 9.88049 52.8171 9.88049C54.2794 9.88049 55.1324 10.8553 55.1324 12.3786V12.6223ZM53.792 11.6474C53.731 11.2209 53.3655 10.9163 52.939 10.9163C52.5125 10.9163 52.1469 11.16 52.086 11.6474H53.792Z" fill="#02122E"/>
<path d="M55.3761 9.14934C55.3761 8.54006 55.8635 7.9917 56.5337 7.9917C57.143 7.9917 57.6914 8.47913 57.6914 9.14934C57.6914 9.81955 57.2039 10.307 56.5337 10.307C55.8635 10.307 55.3761 9.81955 55.3761 9.14934ZM55.5589 9.14934C55.5589 9.6977 55.9854 10.1242 56.5337 10.1242C57.0821 10.1242 57.5086 9.6977 57.5086 9.14934C57.5086 8.60098 57.0821 8.17449 56.5337 8.17449C55.9854 8.23541 55.5589 8.66191 55.5589 9.14934ZM57.0212 9.81955H56.8384L56.5337 9.21027H56.29V9.81955H56.1072V8.54006H56.6556C56.8993 8.54006 57.0821 8.60098 57.0821 8.90563C57.0821 9.14934 56.8993 9.2712 56.7165 9.2712L57.0212 9.81955ZM56.2291 8.72284V9.02748H56.4119C56.5947 9.02748 56.8384 9.02748 56.8384 8.90563C56.8384 8.72284 56.7165 8.72284 56.5337 8.72284H56.2291Z" fill="#02122E"/>
<path d="M42.5202 11.16H41.6672V10.0633H42.5812V9.51492C42.5812 8.1745 43.1904 7.68707 44.3481 7.68707C44.6527 7.68707 44.8964 7.748 45.0792 7.748L45.0183 8.84471C44.8964 8.78378 44.7746 8.78378 44.5309 8.78378C44.1653 8.78378 43.9825 9.08843 43.9825 9.51492V10.0633H45.0183V11.16H43.9825V14.572H42.5202V11.16Z" fill="#02122E"/>
<path d="M27.41 17.7402C26.9225 17.5575 26.6788 17.4965 26.1914 17.4965C25.643 17.4965 25.0338 17.6793 25.0338 18.3495C25.0338 19.5681 27.8365 19.2635 27.8365 21.335C27.8365 22.6755 26.8007 23.2238 25.4603 23.2238C25.0338 23.2238 24.5463 23.102 24.1198 22.9801L24.2417 22.1271C24.5463 22.249 25.0947 22.4317 25.5821 22.4317C26.1305 22.4317 26.8616 22.1271 26.8616 21.396C26.8616 19.9946 24.0589 20.3602 24.0589 18.4105C24.0589 17.3138 24.9728 16.7045 26.1305 16.7045C26.557 16.7045 27.0444 16.7654 27.5318 16.9482L27.41 17.7402Z" fill="#02122E"/>
<path d="M29.1769 16.8263H32.7717V17.6184H30.0908V19.4462H32.5279V20.2383H30.0908V22.3098H32.7717V23.1019H29.1769V16.8263Z" fill="#02122E"/>
<path d="M38.3771 17.8621C37.9506 17.6184 37.5241 17.4966 37.0367 17.4966C35.5744 17.4966 34.5386 18.5323 34.5386 19.9337C34.5386 21.396 35.6353 22.3708 36.9758 22.3708C37.4632 22.3708 38.0725 22.249 38.3771 22.0662L38.4381 22.9192C37.9506 23.102 37.3413 23.1629 36.9758 23.1629C34.9042 23.1629 33.5638 21.8834 33.5638 19.8728C33.5638 17.9231 35.0261 16.6436 36.9758 16.6436C37.4632 16.6436 37.9506 16.7045 38.4381 16.8873L38.3771 17.8621Z" fill="#02122E"/>
<path d="M44.2262 20.482C44.2262 22.2489 43.3123 23.1628 41.7282 23.1628C40.144 23.1628 39.2301 22.2489 39.2301 20.482V16.8263H40.144V20.3601C40.144 21.5787 40.5096 22.3708 41.7282 22.3708C42.9467 22.3708 43.3123 21.5178 43.3123 20.3601V16.8263H44.2262V20.482Z" fill="#02122E"/>
<path d="M45.6885 16.8263H47.2727C48.5522 16.8263 49.7707 17.0091 49.7707 18.5323C49.7707 19.3244 49.1615 19.8118 48.4303 19.9336C48.735 20.0555 48.8568 20.1774 49.0396 20.5429L50.2582 23.041H49.2224L48.2475 20.8476C47.9429 20.2383 47.6382 20.2383 47.1508 20.2383H46.6025V23.041H45.6885V16.8263ZM46.6025 19.5071H47.3945C48.2475 19.5071 48.7959 19.1416 48.7959 18.5323C48.7959 17.9839 48.3694 17.6184 47.5164 17.6184H46.6025V19.5071Z" fill="#02122E"/>
<path d="M51.3549 16.8263H54.9496V17.6184H52.2688V19.4462H54.7059V20.2383H52.2688V22.3098H54.9496V23.1019H51.3549V16.8263Z" fill="#02122E"/>
<path d="M35.4525 11.4646C35.2088 11.2818 34.9042 11.2209 34.5386 11.2209C33.9293 11.2209 33.4419 11.7083 33.4419 12.4395C33.4419 13.1706 33.9902 13.5971 34.6605 13.5971C34.9651 13.5971 35.3307 13.5362 35.5744 13.3534L35.6353 14.511C35.2697 14.6329 34.8432 14.6938 34.4167 14.6938C33.0154 14.6938 31.9796 13.8408 31.9796 12.3176C31.9796 10.7944 33.0763 9.94141 34.4167 9.94141C34.8432 9.94141 35.2697 10.0023 35.5744 10.1851L35.4525 11.4646Z" fill="#02122E"/>
<defs>
<linearGradient id="paint0_linear_7827_2593" x1="7.32962" y1="21.7409" x2="17.3868" y2="3.02019" gradientUnits="userSpaceOnUse">
<stop stop-color="#636466"/>
<stop offset="0.0367559" stop-color="#68696B"/>
<stop offset="0.2712" stop-color="#838486"/>
<stop offset="0.509" stop-color="#97989A"/>
<stop offset="0.7502" stop-color="#A2A3A5"/>
<stop offset="1" stop-color="#A6A7A9"/>
</linearGradient>
<linearGradient id="paint1_linear_7827_2593" x1="16.7797" y1="16.3737" x2="3.79016" y2="7.77949" gradientUnits="userSpaceOnUse">
<stop stop-color="#C5C6C8"/>
<stop offset="0.0948435" stop-color="#DCDDDE"/>
<stop offset="0.2048" stop-color="#F0F0F0"/>
<stop offset="0.3167" stop-color="#FBFBFB"/>
<stop offset="0.4326" stop-color="white"/>
<stop offset="0.5362" stop-color="#F6F7F7"/>
<stop offset="0.7022" stop-color="#DFDFE0"/>
<stop offset="0.9089" stop-color="#B9BABB"/>
<stop offset="1" stop-color="#A6A7A9"/>
</linearGradient>
<linearGradient id="paint2_linear_7827_2593" x1="20.0621" y1="18.8062" x2="6.3625" y2="9.53877" gradientUnits="userSpaceOnUse">
<stop stop-color="#4B4B4D"/>
<stop offset="0.2321" stop-color="#646466"/>
<stop offset="0.482" stop-color="#77787A"/>
<stop offset="0.7365" stop-color="#828385"/>
<stop offset="1" stop-color="#868789"/>
</linearGradient>
<linearGradient id="paint3_linear_7827_2593" x1="6.77452" y1="18.17" x2="18.4892" y2="9.80779" gradientUnits="userSpaceOnUse">
<stop stop-color="#8B1820"/>
<stop offset="0.6067" stop-color="#CC1332"/>
<stop offset="0.7079" stop-color="#CA0233"/>
<stop offset="1" stop-color="#8B1E40"/>
</linearGradient>
<radialGradient id="paint4_radial_7827_2593" cx="0" cy="0" r="1" gradientUnits="userSpaceOnUse" gradientTransform="translate(10.9417 12.1123) scale(12.4516 12.4516)">
<stop stop-color="#CC1332"/>
<stop offset="0.4607" stop-color="#CA0233"/>
<stop offset="1" stop-color="#8B1E40"/>
</radialGradient>
<linearGradient id="paint5_linear_7827_2593" x1="3.38873" y1="10.1286" x2="13.7472" y2="22.0762" gradientUnits="userSpaceOnUse">
<stop stop-color="#8B1820"/>
<stop offset="0.6067" stop-color="#CC1332"/>
<stop offset="0.7079" stop-color="#CA0233"/>
<stop offset="1" stop-color="#8B1E40"/>
</linearGradient>
</defs>
</svg>
