<svg width="38" height="24" viewBox="0 0 38 24" fill="none" xmlns="http://www.w3.org/2000/svg">
<rect x="0.000488281" width="38" height="24" rx="4" fill="#082069"/>
<path d="M11.3047 15.6748H9.72943C9.62163 15.6748 9.52996 15.7521 9.51314 15.8571L8.87604 19.8433C8.86338 19.9219 8.9251 19.9929 9.00595 19.9929H9.75799C9.86578 19.9929 9.95746 19.9156 9.97427 19.8103L10.1461 18.7352C10.1627 18.63 10.2546 18.5527 10.3622 18.5527H10.8608C11.8985 18.5527 12.4973 18.0572 12.6537 17.0752C12.7242 16.6456 12.6567 16.3081 12.4529 16.0717C12.229 15.8121 11.8319 15.6748 11.3047 15.6748ZM11.4864 17.1307C11.4003 17.6885 10.9684 17.6885 10.5508 17.6885H10.3131L10.4799 16.6467C10.4898 16.5838 10.545 16.5374 10.6095 16.5374H10.7185C11.0029 16.5374 11.2713 16.5374 11.4099 16.6974C11.4926 16.7929 11.518 16.9347 11.4864 17.1307Z" fill="white"/>
<path d="M16.0134 17.112H15.2591C15.1948 17.112 15.1393 17.1584 15.1294 17.2213L15.096 17.4295L15.0432 17.3541C14.8799 17.1202 14.5158 17.042 14.1523 17.042C13.3187 17.042 12.6068 17.665 12.4681 18.539C12.396 18.975 12.4985 19.3918 12.7491 19.6826C12.979 19.9499 13.3079 20.0612 13.6993 20.0612C14.3709 20.0612 14.7433 19.6351 14.7433 19.6351L14.7097 19.8419C14.6971 19.921 14.7588 19.9919 14.8392 19.9919H15.5186C15.6267 19.9919 15.7179 19.9146 15.7349 19.8094L16.1426 17.2616C16.1555 17.1831 16.094 17.112 16.0134 17.112ZM14.9619 18.5608C14.8892 18.9861 14.5471 19.2716 14.1109 19.2716C13.8918 19.2716 13.7168 19.2023 13.6044 19.0709C13.4929 18.9404 13.4505 18.7547 13.486 18.5479C13.5539 18.1262 13.9017 17.8314 14.3313 17.8314C14.5455 17.8314 14.7196 17.9016 14.8343 18.0342C14.9493 18.168 14.9949 18.3549 14.9619 18.5608Z" fill="white"/>
<path d="M20.0306 17.1113H19.2725C19.2002 17.1113 19.1323 17.1468 19.0913 17.2061L18.0458 18.7259L17.6026 17.2654C17.5747 17.1741 17.4893 17.1113 17.3926 17.1113H16.6477C16.5571 17.1113 16.4943 17.1986 16.523 17.2827L17.358 19.7008L16.573 20.7943C16.5113 20.8805 16.5735 20.9989 16.6801 20.9989H17.4372C17.5091 20.9989 17.5764 20.9643 17.6171 20.9061L20.1384 17.3148C20.1987 17.2288 20.1367 17.1113 20.0306 17.1113Z" fill="white"/>
<path d="M22.54 15.6738H20.9645C20.857 15.6738 20.7653 15.7511 20.7485 15.8561L20.1114 19.8423C20.0987 19.921 20.1605 19.9919 20.2408 19.9919H21.0493C21.1244 19.9919 21.1887 19.9378 21.2004 19.8641L21.3812 18.7342C21.3978 18.629 21.4897 18.5517 21.5973 18.5517H22.0957C23.1336 18.5517 23.7322 18.0562 23.8889 17.0742C23.9596 16.6446 23.8916 16.3071 23.6878 16.0707C23.4641 15.8111 23.0673 15.6738 22.54 15.6738ZM22.7218 17.1297C22.6358 17.6875 22.204 17.6875 21.7861 17.6875H21.5487L21.7157 16.6458C21.7256 16.5828 21.7804 16.5364 21.8451 16.5364H21.9541C22.2383 16.5364 22.5069 16.5364 22.6455 16.6965C22.7282 16.7919 22.7533 16.9338 22.7218 17.1297Z" fill="white"/>
<path d="M27.249 17.112H26.4951C26.4304 17.112 26.3753 17.1584 26.3657 17.2213L26.3323 17.4295L26.2793 17.3541C26.116 17.1202 25.7521 17.042 25.3886 17.042C24.555 17.042 23.8433 17.665 23.7046 18.539C23.6328 18.975 23.7348 19.3918 23.9854 19.6826C24.2157 19.9499 24.5442 20.0612 24.9355 20.0612C25.6072 20.0612 25.9796 19.6351 25.9796 19.6351L25.946 19.8419C25.9333 19.921 25.9951 19.9919 26.0759 19.9919H26.7552C26.8627 19.9919 26.9544 19.9146 26.9712 19.8094L27.3791 17.2616C27.3916 17.1831 27.3298 17.112 27.249 17.112ZM26.1975 18.5608C26.1252 18.9861 25.7827 19.2716 25.3464 19.2716C25.1279 19.2716 24.9523 19.2023 24.8399 19.0709C24.7285 18.9404 24.6865 18.7547 24.7216 18.5479C24.79 18.1262 25.1373 17.8314 25.5669 17.8314C25.7811 17.8314 25.9552 17.9016 26.0699 18.0342C26.1853 18.168 26.2309 18.3549 26.1975 18.5608Z" fill="white"/>
<path d="M28.1388 15.7834L27.4923 19.8425C27.4796 19.9212 27.5413 19.9921 27.6217 19.9921H28.2717C28.3797 19.9921 28.4714 19.9148 28.488 19.8096L29.1255 15.8236C29.1382 15.745 29.0765 15.6738 28.9961 15.6738H28.2682C28.204 15.6741 28.1487 15.7204 28.1388 15.7834Z" fill="white"/>
<path opacity="0.68" d="M22.8886 5.56786C23.0135 4.78157 22.8877 4.24667 22.4568 3.762C21.9823 3.22854 21.1253 3 20.0287 3H16.8455C16.6215 3 16.4306 3.1609 16.3957 3.37946L15.0702 11.674C15.0441 11.8376 15.1723 11.9856 15.34 11.9856H17.3052L17.1695 12.8343C17.1467 12.9775 17.2587 13.1069 17.4056 13.1069H19.0621C19.2581 13.1069 19.425 12.9662 19.4556 12.7751L19.4718 12.6919L19.7839 10.7392L19.804 10.6313C19.8346 10.4403 20.0015 10.2993 20.1975 10.2993H20.4452C22.0499 10.2993 23.3065 9.65602 23.6735 7.79539C23.827 7.01795 23.7476 6.36898 23.3419 5.91273C23.2193 5.77499 23.0666 5.66093 22.8886 5.56786Z" fill="white"/>
<path opacity="0.7" d="M22.8886 5.56786C23.0135 4.78157 22.8877 4.24667 22.4568 3.762C21.9823 3.22854 21.1253 3 20.0287 3H16.8455C16.6215 3 16.4306 3.1609 16.3957 3.37946L15.0702 11.674C15.0441 11.8376 15.1723 11.9856 15.34 11.9856H17.3052L17.7988 8.89649L17.7835 8.99336C17.8184 8.77491 18.0075 8.61391 18.2317 8.61391H19.1658C21.0001 8.61391 22.4364 7.87847 22.856 5.75162C22.8685 5.68882 22.8791 5.62778 22.8886 5.56786Z" fill="white"/>
<path d="M18.3291 5.57826C18.3501 5.4469 18.4356 5.33922 18.5507 5.28487C18.603 5.26016 18.6615 5.24637 18.7227 5.24637H21.2179C21.5135 5.24637 21.7892 5.26551 22.0411 5.30556C22.1131 5.31699 22.1832 5.33016 22.2513 5.34509C22.3193 5.36002 22.3854 5.37659 22.4494 5.39512C22.4814 5.40428 22.5128 5.41406 22.5438 5.42415C22.6675 5.46471 22.7828 5.51248 22.8888 5.56797C23.0137 4.78167 22.8879 4.24677 22.457 3.7621C21.9823 3.22854 21.1253 3 20.0287 3H16.8455C16.6215 3 16.4306 3.1609 16.3957 3.37946L15.0702 11.674C15.0441 11.8376 15.1723 11.9856 15.34 11.9856H17.3052L17.7988 8.89649L18.3291 5.57826Z" fill="white"/>
</svg>
