<svg width="49" height="33" viewBox="0 0 49 33" fill="none" xmlns="http://www.w3.org/2000/svg">
<rect x="0.5" y="0.253906" width="48" height="32" rx="4" fill="url(#paint0_linear_858_5379)"/>
<path d="M21.3946 23.9457L21.6888 22.129L21.0335 22.1142H17.9044L20.079 8.70869C20.0857 8.66822 20.1077 8.63049 20.1397 8.60369C20.1718 8.5769 20.2129 8.56213 20.2557 8.56213H25.5318C27.2835 8.56213 28.4922 8.91651 29.1234 9.61595C29.4192 9.94409 29.6077 10.287 29.6989 10.6643C29.7944 11.0603 29.7962 11.5333 29.7028 12.1103L29.696 12.1524V12.522L29.9919 12.685C30.2411 12.8135 30.439 12.9606 30.5909 13.1291C30.8441 13.4096 31.0078 13.7662 31.077 14.1889C31.1484 14.6237 31.1247 15.141 31.0078 15.7267C30.8728 16.4005 30.6545 16.9873 30.3598 17.4674C30.0886 17.9098 29.7432 18.2767 29.3333 18.5612C28.9417 18.8313 28.4765 19.0364 27.9506 19.1677C27.4409 19.2967 26.8599 19.3618 26.2226 19.3618H25.812C25.5184 19.3618 25.2331 19.4646 25.0093 19.649C24.7849 19.8371 24.6363 20.094 24.5908 20.3752L24.5598 20.5387L24.0401 23.7406L24.0164 23.8581C24.0103 23.8955 23.9996 23.914 23.9839 23.9266C23.9698 23.938 23.9496 23.9457 23.9298 23.9457H21.3946Z" fill="#253B80"/>
<path d="M30.2708 12.1958C30.2551 12.2937 30.2371 12.3938 30.2169 12.4966C29.5209 15.9698 27.1405 17.1696 24.1002 17.1696H22.5522C22.1804 17.1696 21.8671 17.4321 21.8091 17.7887L21.0165 22.6756L20.7921 24.0608C20.7544 24.2948 20.9401 24.5059 21.183 24.5059H23.9287C24.2538 24.5059 24.5299 24.2763 24.5811 23.9646L24.6081 23.8289L25.1251 20.6395L25.1583 20.4646C25.2088 20.1518 25.4855 19.9221 25.8107 19.9221H26.2213C28.8813 19.9221 30.9638 18.8721 31.5725 15.8336C31.8267 14.5643 31.695 13.5045 31.0223 12.7591C30.8187 12.5343 30.5661 12.3478 30.2708 12.1958Z" fill="#ADC9E3"/>
<path d="M29.5416 11.9128C29.4353 11.8827 29.3255 11.8554 29.213 11.8308C29.1 11.8067 28.9841 11.7854 28.8649 11.7668C28.4475 11.7012 27.9902 11.67 27.5002 11.67H23.3648C23.2629 11.67 23.1663 11.6924 23.0796 11.7329C22.8889 11.822 22.7472 11.9976 22.7129 12.2125L21.833 17.6298L21.8077 17.7879C21.8657 17.4313 22.179 17.1688 22.5508 17.1688H24.0988C27.1391 17.1688 29.5197 15.9684 30.2155 12.4958C30.2362 12.3929 30.2537 12.2929 30.2694 12.195C30.0934 12.1042 29.9026 12.0265 29.6973 11.9604C29.6468 11.944 29.5945 11.9281 29.5416 11.9128Z" fill="#E6EFF6"/>
<path d="M22.7153 12.2128C22.7496 11.9979 22.8915 11.8224 23.082 11.7338C23.1693 11.6933 23.2655 11.6709 23.3672 11.6709H27.5028C27.9928 11.6709 28.45 11.702 28.8673 11.7677C28.9866 11.7863 29.1026 11.8076 29.2156 11.8316C29.3281 11.8563 29.4377 11.8836 29.5441 11.9137C29.5969 11.929 29.6492 11.9448 29.7004 11.9607C29.9057 12.0269 30.0964 12.1051 30.2724 12.1953C30.4795 10.9118 30.2708 10.0379 29.5571 9.24657C28.7701 8.37541 27.3498 8.00244 25.5324 8.00244H20.256C19.8848 8.00244 19.5682 8.26493 19.5107 8.62204L17.3131 22.1654C17.2697 22.4333 17.4823 22.6751 17.7602 22.6751H21.0177L21.8356 17.6301L22.7153 12.2128Z" fill="white"/>
<defs>
<linearGradient id="paint0_linear_858_5379" x1="0.521429" y1="0.269531" x2="47.6479" y2="33.5081" gradientUnits="userSpaceOnUse">
<stop stop-color="#0096D8"/>
<stop offset="1" stop-color="#003087"/>
</linearGradient>
</defs>
</svg>
