<svg width="56" height="56" viewBox="0 0 56 56" fill="none" xmlns="http://www.w3.org/2000/svg">
<path d="M32.768 29.909C33.8206 27.2785 32.5415 24.2928 29.9111 23.2402C27.2807 22.1876 24.2949 23.4666 23.2423 26.097C22.1897 28.7275 23.4688 31.7132 26.0992 32.7658C28.7296 33.8184 31.7153 32.5394 32.768 29.909Z" fill="white"/>
<g opacity="0.9">
<path d="M28.0032 36.3569C26.8748 36.3569 25.781 36.136 24.75 35.6995C23.7545 35.2788 22.8606 34.6758 22.0934 33.9086C21.3261 33.1413 20.7232 32.2474 20.3024 31.252C19.8659 30.221 19.6451 29.1271 19.6451 27.9988C19.6451 26.8704 19.8659 25.7766 20.3024 24.7455C20.7232 23.7501 21.3261 22.8562 22.0934 22.0889C22.8606 21.3217 23.7545 20.7188 24.75 20.298C25.781 19.8615 26.8748 19.6406 28.0032 19.6406C29.1316 19.6406 30.2254 19.8615 31.2564 20.298C32.2519 20.7188 33.1458 21.3217 33.913 22.0889C34.6803 22.8562 35.2832 23.7501 35.704 24.7455C36.1405 25.7766 36.3613 26.8704 36.3613 27.9988C36.3613 29.1271 36.1405 30.221 35.704 31.252C35.2832 32.2474 34.6803 33.1413 33.913 33.9086C33.1458 34.6758 32.2519 35.2788 31.2564 35.6995C30.2254 36.136 29.1316 36.3569 28.0032 36.3569ZM28.0032 21.0642C24.1795 21.0642 21.0676 24.1751 21.0676 27.9998C21.0676 31.8245 24.1784 34.9354 28.0032 34.9354C31.8279 34.9354 34.9388 31.8245 34.9388 27.9998C34.9388 24.1751 31.8279 21.0642 28.0032 21.0642Z" fill="white"/>
</g>
<g opacity="0.8">
<path opacity="0.9" d="M27.9982 39.9008C26.3914 39.9008 24.8328 39.5857 23.3653 38.965C21.9481 38.3652 20.6752 37.5079 19.5825 36.4152C18.4897 35.3224 17.6314 34.0495 17.0326 32.6323C16.4119 31.1648 16.0968 29.6062 16.0968 27.9994C16.0968 26.3927 16.4119 24.8341 17.0326 23.3666C17.6324 21.9494 18.4897 20.6765 19.5825 19.5838C20.6752 18.491 21.9481 17.6326 23.3653 17.0339C24.8328 16.4132 26.3914 16.0981 27.9982 16.0981C29.6049 16.0981 31.1635 16.4132 32.631 17.0339C34.0483 17.6337 35.3211 18.491 36.4139 19.5838C37.5066 20.6765 38.365 21.9494 38.9637 23.3666C39.5844 24.8341 39.8995 26.3927 39.8995 27.9994C39.8995 29.6062 39.5844 31.1648 38.9637 32.6323C38.3639 34.0495 37.5066 35.3224 36.4139 36.4152C35.3211 37.5079 34.0483 38.3663 32.631 38.965C31.1635 39.5857 29.6049 39.9008 27.9982 39.9008ZM27.9982 17.3427C22.1218 17.3427 17.3414 22.1231 17.3414 27.9994C17.3414 33.8758 22.1218 38.6562 27.9982 38.6562C33.8745 38.6562 38.6549 33.8758 38.6549 27.9994C38.6549 22.1231 33.8745 17.3427 27.9982 17.3427Z" fill="white"/>
</g>
<g opacity="0.7">
<path opacity="0.8" d="M28.0056 43.7881C25.8745 43.7881 23.8061 43.3705 21.8603 42.5467C19.9803 41.7512 18.292 40.6134 16.8422 39.1637C15.3925 37.7139 14.2537 36.0256 13.4592 34.1456C12.6354 32.1987 12.2178 30.1314 12.2178 27.9992C12.2178 25.8671 12.6354 23.7998 13.4592 21.8539C14.2547 19.974 15.3925 18.2856 16.8422 16.8359C18.292 15.3862 19.9803 14.2473 21.8603 13.4528C23.8072 12.6291 25.8745 12.2114 28.0056 12.2114C30.1367 12.2114 32.2051 12.6291 34.1509 13.4528C36.0309 14.2484 37.7192 15.3862 39.169 16.8359C40.6187 18.2856 41.7575 19.974 42.552 21.8539C43.3758 23.8008 43.7934 25.8681 43.7934 27.9992C43.7934 30.1304 43.3758 32.1987 42.552 34.1456C41.7565 36.0256 40.6187 37.7139 39.169 39.1637C37.7192 40.6134 36.0309 41.7522 34.1509 42.5467C32.204 43.3705 30.1367 43.7881 28.0056 43.7881ZM28.0056 13.0991C19.7898 13.0991 13.1054 19.7835 13.1054 27.9992C13.1054 36.215 19.7898 42.8994 28.0056 42.8994C36.2214 42.8994 42.9058 36.215 42.9058 27.9992C42.9058 19.7835 36.2214 13.0991 28.0056 13.0991Z" fill="white"/>
</g>
<g opacity="0.6">
<path opacity="0.7" d="M27.9975 47.5142C25.3629 47.5142 22.8078 46.9981 20.4014 45.9807C19.2447 45.4919 18.13 44.8858 17.0864 44.1814C16.0533 43.4832 15.0819 42.6814 14.1984 41.799C13.315 40.9156 12.5143 39.9442 11.8161 38.9111C11.1116 37.8675 10.5056 36.7528 10.0168 35.5961C8.99934 33.1897 8.48331 30.6346 8.48331 28C8.48331 25.3654 8.99934 22.8103 10.0168 20.4039C10.5056 19.2473 11.1116 18.1325 11.8161 17.0889C12.5143 16.0558 13.3161 15.0844 14.1984 14.201C15.0819 13.3175 16.0533 12.5168 17.0864 11.8186C18.13 11.1142 19.2447 10.5081 20.4014 10.0193C22.8078 9.00188 25.3629 8.48584 27.9975 8.48584C30.6321 8.48584 33.1872 9.00188 35.5936 10.0193C36.7502 10.5081 37.865 11.1142 38.9086 11.8186C39.9417 12.5168 40.9131 13.3186 41.7965 14.201C42.6799 15.0844 43.4807 16.0558 44.1789 17.0889C44.8833 18.1325 45.4894 19.2473 45.9782 20.4039C46.9956 22.8103 47.5116 25.3654 47.5116 28C47.5116 30.6346 46.9956 33.1897 45.9782 35.5961C45.4894 36.7528 44.8833 37.8675 44.1789 38.9111C43.4807 39.9442 42.6789 40.9156 41.7965 41.799C40.9131 42.6825 39.9417 43.4832 38.9086 44.1814C37.865 44.8858 36.7502 45.4919 35.5936 45.9807C33.1872 46.9981 30.6321 47.5142 27.9975 47.5142ZM27.9975 9.19552C17.6296 9.19552 9.19404 17.6311 9.19404 27.999C9.19404 38.3668 17.6296 46.8024 27.9975 46.8024C38.3653 46.8024 46.8009 38.3668 46.8009 27.999C46.8009 17.6311 38.3653 9.19552 27.9975 9.19552Z" fill="white"/>
</g>
<g opacity="0.5">
<path opacity="0.6" d="M28.0043 51.6717C24.8087 51.6717 21.7083 51.0457 18.79 49.8116C17.3874 49.2181 16.0339 48.4844 14.7685 47.6292C13.5155 46.7824 12.3359 45.81 11.2651 44.7392C10.1942 43.6684 9.22184 42.4898 8.37503 41.2358C7.51986 39.9703 6.7861 38.6169 6.1926 37.2143C4.95851 34.296 4.33257 31.1956 4.33257 27.9999C4.33257 24.8042 4.95851 21.7038 6.1926 18.7855C6.7861 17.3829 7.51986 16.0295 8.37503 14.764C9.22184 13.5111 10.1942 12.3314 11.2651 11.2606C12.3359 10.1898 13.5145 9.2174 14.7685 8.37059C16.0339 7.51541 17.3874 6.78166 18.79 6.18816C21.7083 4.95407 24.8087 4.32812 28.0043 4.32812C31.2 4.32812 34.3004 4.95407 37.2187 6.18816C38.6213 6.78166 39.9747 7.51541 41.2402 8.37059C42.4932 9.2174 43.6728 10.1898 44.7436 11.2606C45.8144 12.3314 46.7868 13.51 47.6336 14.764C48.4888 16.0295 49.2226 17.3829 49.8161 18.7855C51.0502 21.7038 51.6761 24.8042 51.6761 27.9999C51.6761 31.1956 51.0502 34.296 49.8161 37.2143C49.2226 38.6169 48.4888 39.9703 47.6336 41.2358C46.7868 42.4887 45.8144 43.6684 44.7436 44.7392C43.6728 45.81 42.4942 46.7824 41.2402 47.6292C39.9747 48.4844 38.6213 49.2181 37.2187 49.8116C34.3004 51.0457 31.2 51.6717 28.0043 51.6717ZM28.0043 4.86091C15.2458 4.86091 4.86535 15.2413 4.86535 27.9999C4.86535 40.7585 15.2458 51.1389 28.0043 51.1389C40.7629 51.1389 51.1433 40.7585 51.1433 27.9999C51.1433 15.2413 40.7629 4.86091 28.0043 4.86091Z" fill="white"/>
</g>
<g opacity="0.4">
<path opacity="0.4" d="M28 56C26.1002 56 24.2014 55.8084 22.3571 55.4316C20.5588 55.0642 18.7909 54.5147 17.1004 53.7998C15.4413 53.0985 13.8409 52.2297 12.3441 51.2185C10.8619 50.2168 9.46766 49.0665 8.20007 47.7999C6.93353 46.5334 5.78318 45.1391 4.78146 43.6559C3.77032 42.1591 2.90153 40.5587 2.20022 38.8996C1.48531 37.2102 0.936822 35.4412 0.568374 33.6429C0.190505 31.7986 0 29.8998 0 28C0 26.1002 0.191551 24.2014 0.568374 22.3571C0.935776 20.5588 1.48531 18.7909 2.20022 17.1004C2.90153 15.4413 3.77032 13.8409 4.78146 12.3441C5.78318 10.8619 6.93353 9.46766 8.20007 8.20007C9.46662 6.93353 10.8609 5.78318 12.3441 4.78146C13.8409 3.77032 15.4413 2.90153 17.1004 2.20023C18.7898 1.48531 20.5588 0.936822 22.3571 0.568373C24.2014 0.190504 26.1002 0 28 0C29.8998 0 31.7986 0.191551 33.6429 0.568373C35.4412 0.935775 37.2091 1.48531 38.8996 2.20023C40.5587 2.90153 42.1591 3.77032 43.6559 4.78146C45.1381 5.78318 46.5323 6.93353 47.7999 8.20007C49.0665 9.46662 50.2168 10.8609 51.2185 12.3441C52.2297 13.8409 53.0985 15.4413 53.7998 17.1004C54.5147 18.7898 55.0632 20.5588 55.4316 22.3571C55.8095 24.2014 56 26.1002 56 28C56 29.8998 55.8084 31.7986 55.4316 33.6429C55.0642 35.4412 54.5147 37.2091 53.7998 38.8996C53.0985 40.5587 52.2297 42.1591 51.2185 43.6559C50.2168 45.1381 49.0665 46.5323 47.7999 47.7999C46.5334 49.0665 45.1391 50.2168 43.6559 51.2185C42.1591 52.2297 40.5587 53.0985 38.8996 53.7998C37.2102 54.5147 35.4412 55.0632 33.6429 55.4316C31.7986 55.8095 29.8998 56 28 56ZM28 0.354843C12.7565 0.355889 0.355888 12.7565 0.355888 28C0.355888 43.2435 12.7575 55.6452 28.001 55.6452C43.2446 55.6452 55.6462 43.2435 55.6462 28C55.6462 12.7565 43.2446 0.354843 28.001 0.354843H28Z" fill="white"/>
</g>
<circle cx="28" cy="27.9998" r="15.7073" fill="white"/>
<path d="M21.1894 27.3066C20.8013 27.6974 20.8021 28.3285 21.1912 28.7183L24.9925 32.5269C25.3675 32.9026 25.9761 32.903 26.3516 32.5278L34.9105 23.9774C35.3047 23.5836 35.3026 22.9441 34.9059 22.5529V22.5529C34.5134 22.1658 33.882 22.1678 33.492 22.5574L25.6716 30.3688L22.6069 27.3041C22.2151 26.9124 21.5797 26.9135 21.1894 27.3066V27.3066Z" fill="#007C7C"/>
</svg>
