<svg width="30" height="31" viewBox="0 0 30 31" fill="none" xmlns="http://www.w3.org/2000/svg">
<path d="M8.125 12.9137C7.84625 12.9137 7.57875 12.9562 7.3125 12.9949C7.39875 12.7049 7.4875 12.4099 7.63 12.1449C7.7725 11.7599 7.995 11.4262 8.21625 11.0899C8.40125 10.7262 8.7275 10.4799 8.9675 10.1687C9.21875 9.86617 9.56125 9.66492 9.8325 9.41367C10.0987 9.15117 10.4475 9.01992 10.725 8.83492C11.015 8.66867 11.2675 8.48492 11.5375 8.39742L12.2112 8.11992L12.8037 7.87367L12.1975 5.45117L11.4512 5.63117C11.2125 5.69117 10.9212 5.76117 10.59 5.84492C10.2512 5.90742 9.89 6.07867 9.4875 6.23492C9.09 6.41242 8.63 6.53242 8.2025 6.81742C7.7725 7.08992 7.27625 7.31742 6.83875 7.68242C6.415 8.05867 5.90375 8.38492 5.52625 8.86367C5.11375 9.31117 4.70625 9.78117 4.39 10.3162C4.02375 10.8262 3.775 11.3862 3.5125 11.9399C3.275 12.4937 3.08375 13.0599 2.9275 13.6099C2.63125 14.7124 2.49875 15.7599 2.4475 16.6562C2.405 17.5537 2.43 18.2999 2.4825 18.8399C2.50125 19.0949 2.53625 19.3424 2.56125 19.5137L2.5925 19.7237L2.625 19.7162C2.84732 20.7547 3.35913 21.7091 4.1012 22.4689C4.84328 23.2287 5.7853 23.7629 6.8183 24.0097C7.85129 24.2565 8.93306 24.2058 9.93844 23.8635C10.9438 23.5211 11.8318 22.9012 12.4995 22.0753C13.1673 21.2494 13.5876 20.2513 13.7118 19.1965C13.836 18.1418 13.659 17.0734 13.2014 16.1149C12.7438 15.1565 12.0242 14.3473 11.1258 13.7807C10.2275 13.2142 9.18707 12.9136 8.125 12.9137ZM21.875 12.9137C21.5962 12.9137 21.3287 12.9562 21.0625 12.9949C21.1487 12.7049 21.2375 12.4099 21.38 12.1449C21.5225 11.7599 21.745 11.4262 21.9662 11.0899C22.1512 10.7262 22.4775 10.4799 22.7175 10.1687C22.9687 9.86617 23.3112 9.66492 23.5825 9.41367C23.8487 9.15117 24.1975 9.01992 24.475 8.83492C24.765 8.66867 25.0175 8.48492 25.2875 8.39742L25.9612 8.11992L26.5537 7.87367L25.9475 5.45117L25.2012 5.63117C24.9625 5.69117 24.6712 5.76117 24.34 5.84492C24.0012 5.90742 23.64 6.07867 23.2375 6.23492C22.8412 6.41367 22.38 6.53242 21.9525 6.81867C21.5225 7.09117 21.0262 7.31867 20.5887 7.68367C20.165 8.05992 19.6537 8.38617 19.2762 8.86367C18.8637 9.31117 18.4562 9.78117 18.14 10.3162C17.7737 10.8262 17.525 11.3862 17.2625 11.9399C17.025 12.4937 16.8337 13.0599 16.6775 13.6099C16.3812 14.7124 16.2487 15.7599 16.1975 16.6562C16.155 17.5537 16.18 18.2999 16.2325 18.8399C16.2512 19.0949 16.2862 19.3424 16.3112 19.5137L16.3425 19.7237L16.375 19.7162C16.5973 20.7547 17.1091 21.7091 17.8512 22.4689C18.5933 23.2287 19.5353 23.7629 20.5683 24.0097C21.6013 24.2565 22.6831 24.2058 23.6884 23.8635C24.6938 23.5211 25.5818 22.9012 26.2495 22.0753C26.9173 21.2494 27.3376 20.2513 27.4618 19.1965C27.586 18.1418 27.409 17.0734 26.9514 16.1149C26.4938 15.1565 25.7742 14.3473 24.8758 13.7807C23.9775 13.2142 22.9371 12.9136 21.875 12.9137Z" fill="#EAEAEA"/>
</svg>
