<svg width="416" height="133" viewBox="0 0 416 133" fill="none" xmlns="http://www.w3.org/2000/svg">
<g clip-path="url(#clip0_7827_3042)">
<path d="M9.56941 15.066C9.83423 14.9061 10.1658 14.9061 10.4306 15.066L13.4592 16.8939C14.0903 17.2748 14.8688 16.709 14.7013 15.9911L13.8976 12.5459C13.8273 12.2446 13.9297 11.9293 14.1635 11.7267L16.8405 9.40763C17.3977 8.92495 17.0998 8.00974 16.3653 7.94742L12.8424 7.64854C12.5344 7.62241 12.2662 7.42796 12.1456 7.14338L10.7673 3.89136C10.4801 3.21384 9.51991 3.21384 9.23276 3.89136L7.85445 7.14338C7.73384 7.42796 7.46561 7.62241 7.15763 7.64854L3.63471 7.94742C2.90019 8.00974 2.60235 8.92495 3.15952 9.40763L5.83652 11.7267C6.07032 11.9293 6.17269 12.2446 6.10242 12.5459L5.2987 15.9911C5.13123 16.709 5.90976 17.2748 6.54085 16.8939L9.56941 15.066Z" fill="#F7B500"/>
</g>
<g clip-path="url(#clip1_7827_3042)">
<path d="M29.5694 15.066C29.8342 14.9061 30.1658 14.9061 30.4306 15.066L33.4592 16.8939C34.0903 17.2748 34.8688 16.709 34.7013 15.9911L33.8976 12.5459C33.8273 12.2446 33.9297 11.9293 34.1635 11.7267L36.8405 9.40763C37.3977 8.92495 37.0998 8.00974 36.3653 7.94742L32.8424 7.64854C32.5344 7.62241 32.2662 7.42796 32.1456 7.14338L30.7673 3.89136C30.4801 3.21384 29.5199 3.21384 29.2328 3.89136L27.8545 7.14338C27.7338 7.42796 27.4656 7.62241 27.1576 7.64854L23.6347 7.94742C22.9002 8.00974 22.6024 8.92495 23.1595 9.40763L25.8365 11.7267C26.0703 11.9293 26.1727 12.2446 26.1024 12.5459L25.2987 15.9911C25.1312 16.709 25.9098 17.2748 26.5409 16.8939L29.5694 15.066Z" fill="#F7B500"/>
</g>
<g clip-path="url(#clip2_7827_3042)">
<path d="M49.5694 15.066C49.8342 14.9061 50.1658 14.9061 50.4306 15.066L53.4592 16.8939C54.0903 17.2748 54.8688 16.709 54.7013 15.9911L53.8976 12.5459C53.8273 12.2446 53.9297 11.9293 54.1635 11.7267L56.8405 9.40763C57.3977 8.92495 57.0998 8.00974 56.3653 7.94742L52.8424 7.64854C52.5344 7.62241 52.2662 7.42796 52.1456 7.14338L50.7673 3.89136C50.4801 3.21384 49.5199 3.21384 49.2328 3.89136L47.8545 7.14338C47.7338 7.42796 47.4656 7.62241 47.1576 7.64854L43.6347 7.94742C42.9002 8.00974 42.6024 8.92495 43.1595 9.40763L45.8365 11.7267C46.0703 11.9293 46.1727 12.2446 46.1024 12.5459L45.2987 15.9911C45.1312 16.709 45.9098 17.2748 46.5409 16.8939L49.5694 15.066Z" fill="#F7B500"/>
</g>
<g clip-path="url(#clip3_7827_3042)">
<path d="M69.5694 15.066C69.8342 14.9061 70.1658 14.9061 70.4306 15.066L73.4592 16.8939C74.0903 17.2748 74.8688 16.709 74.7013 15.9911L73.8976 12.5459C73.8273 12.2446 73.9297 11.9293 74.1635 11.7267L76.8405 9.40763C77.3977 8.92495 77.0998 8.00974 76.3653 7.94742L72.8424 7.64854C72.5344 7.62241 72.2662 7.42796 72.1456 7.14338L70.7673 3.89136C70.4801 3.21384 69.5199 3.21384 69.2328 3.89136L67.8545 7.14338C67.7338 7.42796 67.4656 7.62241 67.1576 7.64854L63.6347 7.94742C62.9002 8.00974 62.6024 8.92495 63.1595 9.40763L65.8365 11.7267C66.0703 11.9293 66.1727 12.2446 66.1024 12.5459L65.2987 15.9911C65.1312 16.709 65.9098 17.2748 66.5409 16.8939L69.5694 15.066Z" fill="#F7B500"/>
</g>
<g clip-path="url(#clip4_7827_3042)">
<path d="M89.5694 15.066C89.8342 14.9061 90.1658 14.9061 90.4306 15.066L93.4592 16.8939C94.0903 17.2748 94.8688 16.709 94.7013 15.9911L93.8976 12.5459C93.8273 12.2446 93.9297 11.9293 94.1635 11.7267L96.8405 9.40763C97.3977 8.92495 97.0998 8.00974 96.3653 7.94742L92.8424 7.64854C92.5344 7.62241 92.2662 7.42796 92.1456 7.14338L90.7673 3.89136C90.4801 3.21384 89.5199 3.21384 89.2328 3.89136L87.8545 7.14338C87.7338 7.42796 87.4656 7.62241 87.1576 7.64854L83.6347 7.94742C82.9002 8.00974 82.6024 8.92495 83.1595 9.40763L85.8365 11.7267C86.0703 11.9293 86.1727 12.2446 86.1024 12.5459L85.2987 15.9911C85.1312 16.709 85.9098 17.2748 86.5409 16.8939L89.5694 15.066Z" fill="#F7B500"/>
</g>
<g clip-path="url(#clip5_7827_3042)">
<rect x="116" y="6.41406" width="300" height="8" rx="4" fill="#EAEAEA"/>
<g clip-path="url(#clip6_7827_3042)">
<rect width="443" height="38" transform="translate(-64 -0.386719)" fill="#24AA2F"/>
<rect x="-64" y="-0.386719" width="363" height="38" fill="#24AA2F"/>
</g>
</g>
<rect x="116.5" y="6.91406" width="299" height="7" rx="3.5" stroke="#EAEAEA"/>
<g clip-path="url(#clip7_7827_3042)">
<path d="M9.56941 43.066C9.83423 42.9061 10.1658 42.9061 10.4306 43.066L13.4592 44.8939C14.0903 45.2748 14.8688 44.709 14.7013 43.9911L13.8976 40.5459C13.8273 40.2446 13.9297 39.9293 14.1635 39.7267L16.8405 37.4076C17.3977 36.925 17.0998 36.0097 16.3653 35.9474L12.8424 35.6485C12.5344 35.6224 12.2662 35.428 12.1456 35.1434L10.7673 31.8914C10.4801 31.2138 9.51991 31.2138 9.23276 31.8914L7.85445 35.1434C7.73384 35.428 7.46561 35.6224 7.15763 35.6485L3.63471 35.9474C2.90019 36.0097 2.60235 36.925 3.15952 37.4076L5.83652 39.7267C6.07032 39.9293 6.17269 40.2446 6.10242 40.5459L5.2987 43.9911C5.13123 44.709 5.90976 45.2748 6.54085 44.8939L9.56941 43.066Z" fill="#F7B500"/>
</g>
<g clip-path="url(#clip8_7827_3042)">
<path d="M29.5694 43.066C29.8342 42.9061 30.1658 42.9061 30.4306 43.066L33.4592 44.8939C34.0903 45.2748 34.8688 44.709 34.7013 43.9911L33.8976 40.5459C33.8273 40.2446 33.9297 39.9293 34.1635 39.7267L36.8405 37.4076C37.3977 36.925 37.0998 36.0097 36.3653 35.9474L32.8424 35.6485C32.5344 35.6224 32.2662 35.428 32.1456 35.1434L30.7673 31.8914C30.4801 31.2138 29.5199 31.2138 29.2328 31.8914L27.8545 35.1434C27.7338 35.428 27.4656 35.6224 27.1576 35.6485L23.6347 35.9474C22.9002 36.0097 22.6024 36.925 23.1595 37.4076L25.8365 39.7267C26.0703 39.9293 26.1727 40.2446 26.1024 40.5459L25.2987 43.9911C25.1312 44.709 25.9098 45.2748 26.5409 44.8939L29.5694 43.066Z" fill="#F7B500"/>
</g>
<g clip-path="url(#clip9_7827_3042)">
<path d="M49.5694 43.066C49.8342 42.9061 50.1658 42.9061 50.4306 43.066L53.4592 44.8939C54.0903 45.2748 54.8688 44.709 54.7013 43.9911L53.8976 40.5459C53.8273 40.2446 53.9297 39.9293 54.1635 39.7267L56.8405 37.4076C57.3977 36.925 57.0998 36.0097 56.3653 35.9474L52.8424 35.6485C52.5344 35.6224 52.2662 35.428 52.1456 35.1434L50.7673 31.8914C50.4801 31.2138 49.5199 31.2138 49.2328 31.8914L47.8545 35.1434C47.7338 35.428 47.4656 35.6224 47.1576 35.6485L43.6347 35.9474C42.9002 36.0097 42.6024 36.925 43.1595 37.4076L45.8365 39.7267C46.0703 39.9293 46.1727 40.2446 46.1024 40.5459L45.2987 43.9911C45.1312 44.709 45.9098 45.2748 46.5409 44.8939L49.5694 43.066Z" fill="#F7B500"/>
</g>
<g clip-path="url(#clip10_7827_3042)">
<path d="M69.5694 43.066C69.8342 42.9061 70.1658 42.9061 70.4306 43.066L73.4592 44.8939C74.0903 45.2748 74.8688 44.709 74.7013 43.9911L73.8976 40.5459C73.8273 40.2446 73.9297 39.9293 74.1635 39.7267L76.8405 37.4076C77.3977 36.925 77.0998 36.0097 76.3653 35.9474L72.8424 35.6485C72.5344 35.6224 72.2662 35.428 72.1456 35.1434L70.7673 31.8914C70.4801 31.2138 69.5199 31.2138 69.2328 31.8914L67.8545 35.1434C67.7338 35.428 67.4656 35.6224 67.1576 35.6485L63.6347 35.9474C62.9002 36.0097 62.6024 36.925 63.1595 37.4076L65.8365 39.7267C66.0703 39.9293 66.1727 40.2446 66.1024 40.5459L65.2987 43.9911C65.1312 44.709 65.9098 45.2748 66.5409 44.8939L69.5694 43.066Z" fill="#F7B500"/>
</g>
<g clip-path="url(#clip11_7827_3042)">
<path d="M89.5694 43.066C89.8342 42.9061 90.1658 42.9061 90.4306 43.066L93.4592 44.8939C94.0903 45.2748 94.8688 44.709 94.7013 43.9911L93.8976 40.5459C93.8273 40.2446 93.9297 39.9293 94.1635 39.7267L96.8405 37.4076C97.3977 36.925 97.0998 36.0097 96.3653 35.9474L92.8424 35.6485C92.5344 35.6224 92.2662 35.428 92.1456 35.1434L90.7673 31.8914C90.4801 31.2138 89.5199 31.2138 89.2328 31.8914L87.8545 35.1434C87.7338 35.428 87.4656 35.6224 87.1576 35.6485L83.6347 35.9474C82.9002 36.0097 82.6024 36.925 83.1595 37.4076L85.8365 39.7267C86.0703 39.9293 86.1727 40.2446 86.1024 40.5459L85.2987 43.9911C85.1312 44.709 85.9098 45.2748 86.5409 44.8939L89.5694 43.066Z" fill="#EAEAEA"/>
</g>
<g clip-path="url(#clip12_7827_3042)">
<rect x="116" y="34.4141" width="300" height="8" rx="4" fill="#EAEAEA"/>
<g clip-path="url(#clip13_7827_3042)">
<rect width="443" height="38" transform="translate(-104 27.6133)" fill="#24AA2F"/>
<rect x="-104" y="27.6133" width="363" height="38" fill="#24AA2F"/>
</g>
</g>
<rect x="116.5" y="34.9141" width="299" height="7" rx="3.5" stroke="#EAEAEA"/>
<g clip-path="url(#clip14_7827_3042)">
<path d="M9.56941 71.066C9.83423 70.9061 10.1658 70.9061 10.4306 71.066L13.4592 72.8939C14.0903 73.2748 14.8688 72.709 14.7013 71.9911L13.8976 68.5459C13.8273 68.2446 13.9297 67.9293 14.1635 67.7267L16.8405 65.4076C17.3977 64.925 17.0998 64.0097 16.3653 63.9474L12.8424 63.6485C12.5344 63.6224 12.2662 63.428 12.1456 63.1434L10.7673 59.8914C10.4801 59.2138 9.51991 59.2138 9.23276 59.8914L7.85445 63.1434C7.73384 63.428 7.46561 63.6224 7.15763 63.6485L3.63471 63.9474C2.90019 64.0097 2.60235 64.925 3.15952 65.4076L5.83652 67.7267C6.07032 67.9293 6.17269 68.2446 6.10242 68.5459L5.2987 71.9911C5.13123 72.709 5.90976 73.2748 6.54085 72.8939L9.56941 71.066Z" fill="#F7B500"/>
</g>
<g clip-path="url(#clip15_7827_3042)">
<path d="M29.5694 71.066C29.8342 70.9061 30.1658 70.9061 30.4306 71.066L33.4592 72.8939C34.0903 73.2748 34.8688 72.709 34.7013 71.9911L33.8976 68.5459C33.8273 68.2446 33.9297 67.9293 34.1635 67.7267L36.8405 65.4076C37.3977 64.925 37.0998 64.0097 36.3653 63.9474L32.8424 63.6485C32.5344 63.6224 32.2662 63.428 32.1456 63.1434L30.7673 59.8914C30.4801 59.2138 29.5199 59.2138 29.2328 59.8914L27.8545 63.1434C27.7338 63.428 27.4656 63.6224 27.1576 63.6485L23.6347 63.9474C22.9002 64.0097 22.6024 64.925 23.1595 65.4076L25.8365 67.7267C26.0703 67.9293 26.1727 68.2446 26.1024 68.5459L25.2987 71.9911C25.1312 72.709 25.9098 73.2748 26.5409 72.8939L29.5694 71.066Z" fill="#F7B500"/>
</g>
<g clip-path="url(#clip16_7827_3042)">
<path d="M49.5694 71.066C49.8342 70.9061 50.1658 70.9061 50.4306 71.066L53.4592 72.8939C54.0903 73.2748 54.8688 72.709 54.7013 71.9911L53.8976 68.5459C53.8273 68.2446 53.9297 67.9293 54.1635 67.7267L56.8405 65.4076C57.3977 64.925 57.0998 64.0097 56.3653 63.9474L52.8424 63.6485C52.5344 63.6224 52.2662 63.428 52.1456 63.1434L50.7673 59.8914C50.4801 59.2138 49.5199 59.2138 49.2328 59.8914L47.8545 63.1434C47.7338 63.428 47.4656 63.6224 47.1576 63.6485L43.6347 63.9474C42.9002 64.0097 42.6024 64.925 43.1595 65.4076L45.8365 67.7267C46.0703 67.9293 46.1727 68.2446 46.1024 68.5459L45.2987 71.9911C45.1312 72.709 45.9098 73.2748 46.5409 72.8939L49.5694 71.066Z" fill="#F7B500"/>
</g>
<g clip-path="url(#clip17_7827_3042)">
<path d="M69.5694 71.066C69.8342 70.9061 70.1658 70.9061 70.4306 71.066L73.4592 72.8939C74.0903 73.2748 74.8688 72.709 74.7013 71.9911L73.8976 68.5459C73.8273 68.2446 73.9297 67.9293 74.1635 67.7267L76.8405 65.4076C77.3977 64.925 77.0998 64.0097 76.3653 63.9474L72.8424 63.6485C72.5344 63.6224 72.2662 63.428 72.1456 63.1434L70.7673 59.8914C70.4801 59.2138 69.5199 59.2138 69.2328 59.8914L67.8545 63.1434C67.7338 63.428 67.4656 63.6224 67.1576 63.6485L63.6347 63.9474C62.9002 64.0097 62.6024 64.925 63.1595 65.4076L65.8365 67.7267C66.0703 67.9293 66.1727 68.2446 66.1024 68.5459L65.2987 71.9911C65.1312 72.709 65.9098 73.2748 66.5409 72.8939L69.5694 71.066Z" fill="#EAEAEA"/>
</g>
<g clip-path="url(#clip18_7827_3042)">
<path d="M89.5694 71.066C89.8342 70.9061 90.1658 70.9061 90.4306 71.066L93.4592 72.8939C94.0903 73.2748 94.8688 72.709 94.7013 71.9911L93.8976 68.5459C93.8273 68.2446 93.9297 67.9293 94.1635 67.7267L96.8405 65.4076C97.3977 64.925 97.0998 64.0097 96.3653 63.9474L92.8424 63.6485C92.5344 63.6224 92.2662 63.428 92.1456 63.1434L90.7673 59.8914C90.4801 59.2138 89.5199 59.2138 89.2328 59.8914L87.8545 63.1434C87.7338 63.428 87.4656 63.6224 87.1576 63.6485L83.6347 63.9474C82.9002 64.0097 82.6024 64.925 83.1595 65.4076L85.8365 67.7267C86.0703 67.9293 86.1727 68.2446 86.1024 68.5459L85.2987 71.9911C85.1312 72.709 85.9098 73.2748 86.5409 72.8939L89.5694 71.066Z" fill="#EAEAEA"/>
</g>
<g clip-path="url(#clip19_7827_3042)">
<rect x="116" y="62.4141" width="300" height="8" rx="4" fill="#EAEAEA"/>
<g clip-path="url(#clip20_7827_3042)">
<rect width="443" height="38" transform="translate(-284 55.6133)" fill="#24AA2F"/>
</g>
</g>
<rect x="116.5" y="62.9141" width="299" height="7" rx="3.5" stroke="#EAEAEA"/>
<g clip-path="url(#clip21_7827_3042)">
<path d="M9.56941 99.066C9.83423 98.9061 10.1658 98.9061 10.4306 99.066L13.4592 100.894C14.0903 101.275 14.8688 100.709 14.7013 99.9911L13.8976 96.5459C13.8273 96.2446 13.9297 95.9293 14.1635 95.7267L16.8405 93.4076C17.3977 92.925 17.0998 92.0097 16.3653 91.9474L12.8424 91.6485C12.5344 91.6224 12.2662 91.428 12.1456 91.1434L10.7673 87.8914C10.4801 87.2138 9.51991 87.2138 9.23276 87.8914L7.85445 91.1434C7.73384 91.428 7.46561 91.6224 7.15763 91.6485L3.63471 91.9474C2.90019 92.0097 2.60235 92.925 3.15952 93.4076L5.83652 95.7267C6.07032 95.9293 6.17269 96.2446 6.10242 96.5459L5.2987 99.9911C5.13123 100.709 5.90976 101.275 6.54085 100.894L9.56941 99.066Z" fill="#F7B500"/>
</g>
<g clip-path="url(#clip22_7827_3042)">
<path d="M29.5694 99.066C29.8342 98.9061 30.1658 98.9061 30.4306 99.066L33.4592 100.894C34.0903 101.275 34.8688 100.709 34.7013 99.9911L33.8976 96.5459C33.8273 96.2446 33.9297 95.9293 34.1635 95.7267L36.8405 93.4076C37.3977 92.925 37.0998 92.0097 36.3653 91.9474L32.8424 91.6485C32.5344 91.6224 32.2662 91.428 32.1456 91.1434L30.7673 87.8914C30.4801 87.2138 29.5199 87.2138 29.2328 87.8914L27.8545 91.1434C27.7338 91.428 27.4656 91.6224 27.1576 91.6485L23.6347 91.9474C22.9002 92.0097 22.6024 92.925 23.1595 93.4076L25.8365 95.7267C26.0703 95.9293 26.1727 96.2446 26.1024 96.5459L25.2987 99.9911C25.1312 100.709 25.9098 101.275 26.5409 100.894L29.5694 99.066Z" fill="#F7B500"/>
</g>
<g clip-path="url(#clip23_7827_3042)">
<path d="M49.5694 99.066C49.8342 98.9061 50.1658 98.9061 50.4306 99.066L53.4592 100.894C54.0903 101.275 54.8688 100.709 54.7013 99.9911L53.8976 96.5459C53.8273 96.2446 53.9297 95.9293 54.1635 95.7267L56.8405 93.4076C57.3977 92.925 57.0998 92.0097 56.3653 91.9474L52.8424 91.6485C52.5344 91.6224 52.2662 91.428 52.1456 91.1434L50.7673 87.8914C50.4801 87.2138 49.5199 87.2138 49.2328 87.8914L47.8545 91.1434C47.7338 91.428 47.4656 91.6224 47.1576 91.6485L43.6347 91.9474C42.9002 92.0097 42.6024 92.925 43.1595 93.4076L45.8365 95.7267C46.0703 95.9293 46.1727 96.2446 46.1024 96.5459L45.2987 99.9911C45.1312 100.709 45.9098 101.275 46.5409 100.894L49.5694 99.066Z" fill="#EAEAEA"/>
</g>
<g clip-path="url(#clip24_7827_3042)">
<path d="M69.5694 99.066C69.8342 98.9061 70.1658 98.9061 70.4306 99.066L73.4592 100.894C74.0903 101.275 74.8688 100.709 74.7013 99.9911L73.8976 96.5459C73.8273 96.2446 73.9297 95.9293 74.1635 95.7267L76.8405 93.4076C77.3977 92.925 77.0998 92.0097 76.3653 91.9474L72.8424 91.6485C72.5344 91.6224 72.2662 91.428 72.1456 91.1434L70.7673 87.8914C70.4801 87.2138 69.5199 87.2138 69.2328 87.8914L67.8545 91.1434C67.7338 91.428 67.4656 91.6224 67.1576 91.6485L63.6347 91.9474C62.9002 92.0097 62.6024 92.925 63.1595 93.4076L65.8365 95.7267C66.0703 95.9293 66.1727 96.2446 66.1024 96.5459L65.2987 99.9911C65.1312 100.709 65.9098 101.275 66.5409 100.894L69.5694 99.066Z" fill="#EAEAEA"/>
</g>
<g clip-path="url(#clip25_7827_3042)">
<path d="M89.5694 99.066C89.8342 98.9061 90.1658 98.9061 90.4306 99.066L93.4592 100.894C94.0903 101.275 94.8688 100.709 94.7013 99.9911L93.8976 96.5459C93.8273 96.2446 93.9297 95.9293 94.1635 95.7267L96.8405 93.4076C97.3977 92.925 97.0998 92.0097 96.3653 91.9474L92.8424 91.6485C92.5344 91.6224 92.2662 91.428 92.1456 91.1434L90.7673 87.8914C90.4801 87.2138 89.5199 87.2138 89.2328 87.8914L87.8545 91.1434C87.7338 91.428 87.4656 91.6224 87.1576 91.6485L83.6347 91.9474C82.9002 92.0097 82.6024 92.925 83.1595 93.4076L85.8365 95.7267C86.0703 95.9293 86.1727 96.2446 86.1024 96.5459L85.2987 99.9911C85.1312 100.709 85.9098 101.275 86.5409 100.894L89.5694 99.066Z" fill="#EAEAEA"/>
</g>
<g clip-path="url(#clip26_7827_3042)">
<rect x="116" y="90.4141" width="300" height="8" rx="4" fill="#EAEAEA"/>
<g clip-path="url(#clip27_7827_3042)">
<rect width="443" height="38" transform="translate(-314 83.6133)" fill="#24AA2F"/>
</g>
</g>
<rect x="116.5" y="90.9141" width="299" height="7" rx="3.5" stroke="#EAEAEA"/>
<g clip-path="url(#clip28_7827_3042)">
<path d="M9.56941 127.066C9.83423 126.906 10.1658 126.906 10.4306 127.066L13.4592 128.894C14.0903 129.275 14.8688 128.709 14.7013 127.991L13.8976 124.546C13.8273 124.245 13.9297 123.929 14.1635 123.727L16.8405 121.408C17.3977 120.925 17.0998 120.01 16.3653 119.947L12.8424 119.649C12.5344 119.622 12.2662 119.428 12.1456 119.143L10.7673 115.891C10.4801 115.214 9.51991 115.214 9.23276 115.891L7.85445 119.143C7.73384 119.428 7.46561 119.622 7.15763 119.649L3.63471 119.947C2.90019 120.01 2.60235 120.925 3.15952 121.408L5.83652 123.727C6.07032 123.929 6.17269 124.245 6.10242 124.546L5.2987 127.991C5.13123 128.709 5.90976 129.275 6.54085 128.894L9.56941 127.066Z" fill="#F7B500"/>
</g>
<g clip-path="url(#clip29_7827_3042)">
<path d="M29.5694 127.066C29.8342 126.906 30.1658 126.906 30.4306 127.066L33.4592 128.894C34.0903 129.275 34.8688 128.709 34.7013 127.991L33.8976 124.546C33.8273 124.245 33.9297 123.929 34.1635 123.727L36.8405 121.408C37.3977 120.925 37.0998 120.01 36.3653 119.947L32.8424 119.649C32.5344 119.622 32.2662 119.428 32.1456 119.143L30.7673 115.891C30.4801 115.214 29.5199 115.214 29.2328 115.891L27.8545 119.143C27.7338 119.428 27.4656 119.622 27.1576 119.649L23.6347 119.947C22.9002 120.01 22.6024 120.925 23.1595 121.408L25.8365 123.727C26.0703 123.929 26.1727 124.245 26.1024 124.546L25.2987 127.991C25.1312 128.709 25.9098 129.275 26.5409 128.894L29.5694 127.066Z" fill="#EAEAEA"/>
</g>
<g clip-path="url(#clip30_7827_3042)">
<path d="M49.5694 127.066C49.8342 126.906 50.1658 126.906 50.4306 127.066L53.4592 128.894C54.0903 129.275 54.8688 128.709 54.7013 127.991L53.8976 124.546C53.8273 124.245 53.9297 123.929 54.1635 123.727L56.8405 121.408C57.3977 120.925 57.0998 120.01 56.3653 119.947L52.8424 119.649C52.5344 119.622 52.2662 119.428 52.1456 119.143L50.7673 115.891C50.4801 115.214 49.5199 115.214 49.2328 115.891L47.8545 119.143C47.7338 119.428 47.4656 119.622 47.1576 119.649L43.6347 119.947C42.9002 120.01 42.6024 120.925 43.1595 121.408L45.8365 123.727C46.0703 123.929 46.1727 124.245 46.1024 124.546L45.2987 127.991C45.1312 128.709 45.9098 129.275 46.5409 128.894L49.5694 127.066Z" fill="#EAEAEA"/>
</g>
<g clip-path="url(#clip31_7827_3042)">
<path d="M69.5694 127.066C69.8342 126.906 70.1658 126.906 70.4306 127.066L73.4592 128.894C74.0903 129.275 74.8688 128.709 74.7013 127.991L73.8976 124.546C73.8273 124.245 73.9297 123.929 74.1635 123.727L76.8405 121.408C77.3977 120.925 77.0998 120.01 76.3653 119.947L72.8424 119.649C72.5344 119.622 72.2662 119.428 72.1456 119.143L70.7673 115.891C70.4801 115.214 69.5199 115.214 69.2328 115.891L67.8545 119.143C67.7338 119.428 67.4656 119.622 67.1576 119.649L63.6347 119.947C62.9002 120.01 62.6024 120.925 63.1595 121.408L65.8365 123.727C66.0703 123.929 66.1727 124.245 66.1024 124.546L65.2987 127.991C65.1312 128.709 65.9098 129.275 66.5409 128.894L69.5694 127.066Z" fill="#EAEAEA"/>
</g>
<g clip-path="url(#clip32_7827_3042)">
<path d="M89.5694 127.066C89.8342 126.906 90.1658 126.906 90.4306 127.066L93.4592 128.894C94.0903 129.275 94.8688 128.709 94.7013 127.991L93.8976 124.546C93.8273 124.245 93.9297 123.929 94.1635 123.727L96.8405 121.408C97.3977 120.925 97.0998 120.01 96.3653 119.947L92.8424 119.649C92.5344 119.622 92.2662 119.428 92.1456 119.143L90.7673 115.891C90.4801 115.214 89.5199 115.214 89.2328 115.891L87.8545 119.143C87.7338 119.428 87.4656 119.622 87.1576 119.649L83.6347 119.947C82.9002 120.01 82.6024 120.925 83.1595 121.408L85.8365 123.727C86.0703 123.929 86.1727 124.245 86.1024 124.546L85.2987 127.991C85.1312 128.709 85.9098 129.275 86.5409 128.894L89.5694 127.066Z" fill="#EAEAEA"/>
</g>
<g clip-path="url(#clip33_7827_3042)">
<rect x="116" y="118.414" width="300" height="8" rx="4" fill="#EAEAEA"/>
<g clip-path="url(#clip34_7827_3042)">
<rect width="443" height="38" transform="translate(-321 111.613)" fill="#24AA2F"/>
</g>
</g>
<rect x="116.5" y="118.914" width="299" height="7" rx="3.5" stroke="#EAEAEA"/>
<defs>
<clipPath id="clip0_7827_3042">
<rect width="20" height="20" fill="white" transform="translate(0 0.414062)"/>
</clipPath>
<clipPath id="clip1_7827_3042">
<rect width="20" height="20" fill="white" transform="translate(20 0.414062)"/>
</clipPath>
<clipPath id="clip2_7827_3042">
<rect width="20" height="20" fill="white" transform="translate(40 0.414062)"/>
</clipPath>
<clipPath id="clip3_7827_3042">
<rect width="20" height="20" fill="white" transform="translate(60 0.414062)"/>
</clipPath>
<clipPath id="clip4_7827_3042">
<rect width="20" height="20" fill="white" transform="translate(80 0.414062)"/>
</clipPath>
<clipPath id="clip5_7827_3042">
<rect x="116" y="6.41406" width="300" height="8" rx="4" fill="white"/>
</clipPath>
<clipPath id="clip6_7827_3042">
<rect width="443" height="38" fill="white" transform="translate(-64 -0.386719)"/>
</clipPath>
<clipPath id="clip7_7827_3042">
<rect width="20" height="20" fill="white" transform="translate(0 28.4141)"/>
</clipPath>
<clipPath id="clip8_7827_3042">
<rect width="20" height="20" fill="white" transform="translate(20 28.4141)"/>
</clipPath>
<clipPath id="clip9_7827_3042">
<rect width="20" height="20" fill="white" transform="translate(40 28.4141)"/>
</clipPath>
<clipPath id="clip10_7827_3042">
<rect width="20" height="20" fill="white" transform="translate(60 28.4141)"/>
</clipPath>
<clipPath id="clip11_7827_3042">
<rect width="20" height="20" fill="white" transform="translate(80 28.4141)"/>
</clipPath>
<clipPath id="clip12_7827_3042">
<rect x="116" y="34.4141" width="300" height="8" rx="4" fill="white"/>
</clipPath>
<clipPath id="clip13_7827_3042">
<rect width="443" height="38" fill="white" transform="translate(-104 27.6133)"/>
</clipPath>
<clipPath id="clip14_7827_3042">
<rect width="20" height="20" fill="white" transform="translate(0 56.4141)"/>
</clipPath>
<clipPath id="clip15_7827_3042">
<rect width="20" height="20" fill="white" transform="translate(20 56.4141)"/>
</clipPath>
<clipPath id="clip16_7827_3042">
<rect width="20" height="20" fill="white" transform="translate(40 56.4141)"/>
</clipPath>
<clipPath id="clip17_7827_3042">
<rect width="20" height="20" fill="white" transform="translate(60 56.4141)"/>
</clipPath>
<clipPath id="clip18_7827_3042">
<rect width="20" height="20" fill="white" transform="translate(80 56.4141)"/>
</clipPath>
<clipPath id="clip19_7827_3042">
<rect x="116" y="62.4141" width="300" height="8" rx="4" fill="white"/>
</clipPath>
<clipPath id="clip20_7827_3042">
<rect width="443" height="38" fill="white" transform="translate(-284 55.6133)"/>
</clipPath>
<clipPath id="clip21_7827_3042">
<rect width="20" height="20" fill="white" transform="translate(0 84.4141)"/>
</clipPath>
<clipPath id="clip22_7827_3042">
<rect width="20" height="20" fill="white" transform="translate(20 84.4141)"/>
</clipPath>
<clipPath id="clip23_7827_3042">
<rect width="20" height="20" fill="white" transform="translate(40 84.4141)"/>
</clipPath>
<clipPath id="clip24_7827_3042">
<rect width="20" height="20" fill="white" transform="translate(60 84.4141)"/>
</clipPath>
<clipPath id="clip25_7827_3042">
<rect width="20" height="20" fill="white" transform="translate(80 84.4141)"/>
</clipPath>
<clipPath id="clip26_7827_3042">
<rect x="116" y="90.4141" width="300" height="8" rx="4" fill="white"/>
</clipPath>
<clipPath id="clip27_7827_3042">
<rect width="443" height="38" fill="white" transform="translate(-314 83.6133)"/>
</clipPath>
<clipPath id="clip28_7827_3042">
<rect width="20" height="20" fill="white" transform="translate(0 112.414)"/>
</clipPath>
<clipPath id="clip29_7827_3042">
<rect width="20" height="20" fill="white" transform="translate(20 112.414)"/>
</clipPath>
<clipPath id="clip30_7827_3042">
<rect width="20" height="20" fill="white" transform="translate(40 112.414)"/>
</clipPath>
<clipPath id="clip31_7827_3042">
<rect width="20" height="20" fill="white" transform="translate(60 112.414)"/>
</clipPath>
<clipPath id="clip32_7827_3042">
<rect width="20" height="20" fill="white" transform="translate(80 112.414)"/>
</clipPath>
<clipPath id="clip33_7827_3042">
<rect x="116" y="118.414" width="300" height="8" rx="4" fill="white"/>
</clipPath>
<clipPath id="clip34_7827_3042">
<rect width="443" height="38" fill="white" transform="translate(-321 111.613)"/>
</clipPath>
</defs>
</svg>
