<svg width="93" height="32" viewBox="0 0 93 32" fill="none" xmlns="http://www.w3.org/2000/svg">
<g clip-path="url(#clip0_858_5382)">
<path d="M21.061 12.5167H17.745V9.96802C17.745 8.27595 17.0777 6.65318 15.8901 5.45671C14.7025 4.26023 13.0917 3.58806 11.4121 3.58806C9.73258 3.58806 8.12181 4.26023 6.93418 5.45671C5.74655 6.65318 5.07935 8.27595 5.07935 9.96802V12.5167H1.77148V9.96802C1.77148 7.39168 2.78737 4.92086 4.59565 3.09911C6.40394 1.27736 8.85649 0.253906 11.4138 0.253906C13.9711 0.253906 16.4237 1.27736 18.2319 3.09911C20.0402 4.92086 21.0561 7.39168 21.0561 9.96802L21.061 12.5167Z" fill="#D5D5D9"/>
<path d="M1.04446 12.4587H21.7832C21.8552 12.4587 21.9265 12.4731 21.993 12.5011C22.0595 12.529 22.1198 12.57 22.1705 12.6217C22.2211 12.6733 22.2611 12.7346 22.2881 12.8019C22.315 12.8692 22.3285 12.9412 22.3276 13.0138V25.966C22.3276 26.6608 22.1918 27.3489 21.9278 27.9908C21.6639 28.6328 21.277 29.2161 20.7893 29.7074C20.3016 30.1988 19.7226 30.5885 19.0854 30.8544C18.4482 31.1203 17.7652 31.2572 17.0755 31.2572H5.75212C5.06198 31.2572 4.37862 31.1202 3.74108 30.854C3.10354 30.5877 2.52433 30.1975 2.03657 29.7057C1.5488 29.2138 1.16203 28.6299 0.898378 27.9874C0.634725 27.3449 0.499354 26.6563 0.500002 25.961V13.0138C0.500002 12.8683 0.557365 12.7288 0.65947 12.626C0.761575 12.5231 0.90006 12.4653 1.04446 12.4653V12.4587Z" fill="#8EBD00"/>
<mask id="mask0_858_5382" style="mask-type:luminance" maskUnits="userSpaceOnUse" x="0" y="0" width="23" height="32">
<path d="M21.0611 12.4587V10.3044C21.083 9.02841 20.8552 7.76055 20.3908 6.57323C19.9263 5.3859 19.2343 4.30236 18.3542 3.38447C16.5768 1.53071 14.1412 0.464219 11.5832 0.419609C9.02529 0.375 6.55451 1.35593 4.71445 3.1466C2.8744 4.93727 1.81579 7.39101 1.77151 9.96801V12.4537H1.36193C1.24825 12.4539 1.13573 12.4768 1.03082 12.5209C0.925918 12.565 0.830694 12.6296 0.750615 12.7109C0.670535 12.7922 0.607175 12.8886 0.564171 12.9946C0.521167 13.1006 0.499364 13.2142 0.500014 13.3287V20.2588C0.50045 23.1748 1.65043 25.9711 3.69708 28.033C5.74372 30.0949 8.51943 31.2535 11.4138 31.2539C14.3082 31.2535 17.0839 30.0949 19.1306 28.033C21.1772 25.9711 22.3272 23.1748 22.3276 20.2588V13.3287C22.3276 13.0982 22.2369 12.8772 22.0753 12.7141C21.9137 12.551 21.6945 12.4591 21.4657 12.4587H21.0611ZM5.08759 9.97298C5.08759 8.28091 5.7548 6.65814 6.94243 5.46167C8.13006 4.26519 9.74083 3.59302 11.4204 3.59302C13.1 3.59302 14.7107 4.26519 15.8984 5.46167C17.086 6.65814 17.7532 8.28091 17.7532 9.97298V12.4587H5.08759V9.97298Z" fill="white"/>
</mask>
<g mask="url(#mask0_858_5382)">
<g style="mix-blend-mode:multiply" opacity="0.1">
<path d="M22.3276 12.4587H11.4138V31.2522H22.3276V12.4587Z" fill="#134200"/>
</g>
</g>
<path d="M10.4433 25.5915L5.31787 20.751L7.50392 18.6878L10.4433 21.4635L16.3501 15.884L18.5345 17.9488L10.4433 25.5915Z" fill="white"/>
<path d="M31.2066 12.8067C30.8126 12.6585 30.4309 12.4789 30.0651 12.2698C29.7427 12.0857 29.4522 11.8501 29.2048 11.5721C28.9596 11.2877 28.7718 10.9579 28.6521 10.601C28.5147 10.1624 28.4508 9.70368 28.4629 9.24384C28.4514 8.66052 28.5636 8.08145 28.7919 7.54528C29.0012 7.06688 29.3183 6.64419 29.718 6.31071C30.1405 5.96502 30.6277 5.70859 31.1507 5.55672C31.7649 5.37915 32.4017 5.29318 33.0407 5.30152C33.6407 5.29611 34.2397 5.35163 34.8286 5.46723C35.4223 5.59397 36.0069 5.76005 36.5788 5.96437C36.4997 6.71105 36.2973 7.43916 35.9801 8.11865L35.4093 7.89327C35.2081 7.8148 35.0014 7.75165 34.7908 7.70436C34.547 7.65022 34.3004 7.60929 34.0523 7.58173C33.7414 7.54868 33.4289 7.53319 33.1163 7.53533C32.8996 7.53543 32.6834 7.55428 32.4699 7.59168C32.2631 7.6254 32.0637 7.69551 31.881 7.79882C31.7013 7.9056 31.5526 8.05821 31.4501 8.24127C31.3301 8.47714 31.2734 8.74048 31.2856 9.00521C31.2777 9.22333 31.3229 9.44007 31.4172 9.63658C31.5031 9.80545 31.6243 9.95357 31.7725 10.0707C31.9264 10.1896 32.095 10.2876 32.2741 10.3624C32.4617 10.4436 32.6475 10.5281 32.8351 10.5977L33.9585 11.0319C34.4322 11.2208 34.8626 11.4152 35.2497 11.6152C35.6199 11.803 35.954 12.0555 36.2367 12.3609C36.5111 12.675 36.7203 13.0412 36.8519 13.438C37.0172 13.9423 37.0956 14.4714 37.0838 15.0024C37.091 15.6048 36.9728 16.2021 36.7367 16.7556C36.5098 17.2785 36.1678 17.7426 35.7366 18.1128C35.2598 18.5121 34.7099 18.8133 34.1181 18.9994C33.3995 19.2212 32.6505 19.3263 31.8991 19.3109C31.4879 19.3109 31.1194 19.2993 30.7954 19.2728C30.4846 19.2503 30.1754 19.2094 29.8693 19.1502C29.5757 19.094 29.2852 19.0221 28.9992 18.9348C28.7119 18.8464 28.4125 18.7392 28.1011 18.6133C28.142 18.2287 28.2107 17.8477 28.3067 17.4732C28.4065 17.0766 28.5249 16.6777 28.662 16.2767C29.1422 16.4757 29.6372 16.6363 30.1424 16.7573C30.6281 16.8683 31.1247 16.9239 31.6228 16.923C32.409 16.923 33.0264 16.7755 33.4749 16.4805C33.9234 16.1856 34.1482 15.7365 34.1493 15.1333C34.1561 14.8717 34.0996 14.6124 33.9848 14.3776C33.8823 14.1825 33.7426 14.0096 33.5736 13.8689C33.3994 13.7281 33.2075 13.6111 33.0028 13.5209C32.7901 13.427 32.5708 13.3359 32.3449 13.2475L31.2066 12.8067Z" fill="#262626"/>
<path d="M39.0479 5.53021H46.6834C46.7579 5.90896 46.7954 6.29415 46.7953 6.68026C46.7965 7.0785 46.7591 7.4759 46.6834 7.86677H41.7866V10.8082H45.68C45.7527 11.1939 45.7902 11.5855 45.7919 11.9781C45.7919 12.3763 45.7545 12.7736 45.68 13.1646H41.7866V16.7474H46.8216C46.8961 17.1261 46.9335 17.5113 46.9334 17.8974C46.9346 18.2962 46.8971 18.6941 46.8216 19.0856H39.0479V5.53021Z" fill="#262626"/>
<path d="M57.8735 16.522C58.0354 16.8722 58.1701 17.2346 58.2765 17.6058C58.3818 17.9734 58.4599 18.3484 58.51 18.7276C57.9424 18.944 57.3543 19.1017 56.755 19.1983C56.2001 19.2757 55.6406 19.3133 55.0805 19.311C54.123 19.3326 53.1712 19.1561 52.2842 18.7923C51.5133 18.4678 50.8255 17.9715 50.2725 17.3406C49.7164 16.6959 49.2992 15.9421 49.047 15.1267C48.7649 14.2241 48.6255 13.2823 48.6342 12.3361C48.6302 11.3839 48.7802 10.4375 49.0783 9.53386C49.3428 8.71372 49.766 7.9545 50.3235 7.30005C50.8736 6.66588 51.5576 6.16366 52.3253 5.83017C53.1799 5.46491 54.1013 5.2848 55.0295 5.30155C55.5836 5.29876 56.1372 5.33642 56.6859 5.41423C57.2479 5.50716 57.7973 5.66623 58.3225 5.88817C58.2974 6.26396 58.2222 6.63462 58.0988 6.99016C57.9738 7.35032 57.8362 7.71212 57.686 8.07559C57.3076 7.94031 56.9201 7.83286 56.5263 7.7541C56.1308 7.68628 55.73 7.65467 55.3288 7.65965C54.1314 7.65965 53.2113 8.05239 52.5687 8.83787C51.9261 9.62335 51.6048 10.7894 51.6048 12.3361C51.6048 15.4018 52.8961 16.9352 55.4785 16.9363C55.8857 16.9406 56.2924 16.909 56.6941 16.8418C57.0947 16.7656 57.489 16.6587 57.8735 16.522Z" fill="#262626"/>
<path d="M60.4758 5.53025C60.7047 5.4932 60.9353 5.46776 61.1667 5.45402C61.392 5.44242 61.6223 5.43579 61.8592 5.43579C62.096 5.43579 62.2901 5.43579 62.5171 5.45402C62.7441 5.47225 62.9711 5.49213 63.2096 5.53025V12.5615C63.2048 13.2192 63.2328 13.8769 63.2935 14.5318C63.3291 15.0001 63.4431 15.459 63.6307 15.889C63.7761 16.2236 64.0255 16.5016 64.3413 16.6811C64.7094 16.8658 65.118 16.9536 65.5289 16.9363C65.9373 16.9544 66.3434 16.8666 66.7083 16.6811C67.0198 16.4987 67.2657 16.2213 67.4107 15.889C67.5946 15.4582 67.7058 14.9995 67.7396 14.5318C67.8019 13.8769 67.8304 13.2193 67.8252 12.5615V5.53025C68.0735 5.49213 68.3186 5.46728 68.5358 5.45402C68.7529 5.44076 68.9782 5.43579 69.1937 5.43579C69.4092 5.43579 69.6461 5.43579 69.8763 5.45402C70.1116 5.46739 70.346 5.49283 70.5787 5.53025V13.1531C70.5862 13.9958 70.5113 14.8373 70.355 15.6653C70.2308 16.3666 69.9563 17.0322 69.5507 17.6157C69.1529 18.1654 68.6169 18.5984 67.9979 18.8702C67.3498 19.1651 66.5274 19.3126 65.5306 19.3126C64.5338 19.3126 63.7113 19.1651 63.0632 18.8702C62.4435 18.5989 61.9069 18.1658 61.5088 17.6157C61.1033 17.0319 60.8283 16.3665 60.7028 15.6653C60.5471 14.8356 60.4722 13.9925 60.4791 13.1481L60.4758 5.53025Z" fill="#262626"/>
<path d="M73.2367 5.53022C73.785 5.46725 74.2998 5.41201 74.7812 5.36451C75.2615 5.32142 75.7945 5.29822 76.3817 5.29822C77.0626 5.29779 77.7421 5.36103 78.4115 5.48713C79.0486 5.5992 79.6611 5.82359 80.2209 6.14999C80.7551 6.46789 81.2023 6.915 81.522 7.45084C81.8509 7.99769 82.0154 8.69203 82.0154 9.53385C82.0227 9.98295 81.9594 10.4304 81.8279 10.8596C81.7161 11.2166 81.5555 11.5562 81.3509 11.8688C81.1717 12.1407 80.9614 12.3904 80.7242 12.6128C80.5272 12.7974 80.3142 12.9638 80.0876 13.1099L79.7702 13.3171L83.0451 19.0475C82.7951 19.0723 82.5336 19.0988 82.2589 19.1237C81.9842 19.1485 81.7029 19.1618 81.4167 19.1618C80.9467 19.1622 80.4774 19.1239 80.0136 19.0475L76.4935 12.7686L76.9426 12.5432C77.117 12.4554 77.3291 12.3427 77.5792 12.2118C77.8391 12.065 78.0819 11.8894 78.3029 11.6881C78.5407 11.4727 78.7399 11.2176 78.8918 10.9341C79.058 10.6106 79.1384 10.2492 79.1254 9.88517C79.1254 9.09306 78.9006 8.5114 78.451 8.1402C77.9541 7.754 77.3376 7.55735 76.7107 7.58506C76.4601 7.58303 76.2098 7.60188 75.9622 7.64141V19.0856C75.7385 19.1104 75.5132 19.132 75.2895 19.1502C75.0658 19.1684 74.8454 19.18 74.6315 19.18C74.4177 19.18 74.194 19.18 73.9571 19.1601C73.7203 19.1403 73.4768 19.122 73.2268 19.0856L73.2367 5.53022Z" fill="#262626"/>
<path d="M84.5405 5.53021H92.1761C92.2506 5.90896 92.288 6.29415 92.2879 6.68026C92.2892 7.0785 92.2518 7.4759 92.1761 7.86677H87.2727V10.8082H91.1645C91.2385 11.1937 91.2765 11.5854 91.278 11.9781C91.2783 12.3764 91.2403 12.7737 91.1645 13.1646H87.2727V16.7474H92.306C92.3813 17.126 92.4188 17.5113 92.4179 17.8974C92.4199 18.2962 92.3824 18.6942 92.306 19.0856H84.5405V5.53021Z" fill="#262626"/>
<path d="M29.4187 26.0522C29.2388 25.9843 29.0644 25.9023 28.8972 25.8069C28.7496 25.7229 28.6167 25.6148 28.5041 25.4871C28.3918 25.357 28.3058 25.2062 28.2508 25.043C28.1875 24.8427 28.1574 24.6333 28.162 24.4232C28.1565 24.1564 28.2076 23.8914 28.3117 23.646C28.4069 23.4275 28.5517 23.2345 28.7344 23.0826C28.9284 22.9238 29.1522 22.8061 29.3924 22.7362C29.6732 22.6561 29.964 22.617 30.2559 22.6202C30.532 22.6185 30.8075 22.6446 31.0784 22.6981C31.3501 22.7545 31.6177 22.8292 31.8794 22.9218C31.8428 23.2625 31.75 23.5946 31.6047 23.9045L31.3432 23.8018C31.2516 23.7662 31.1576 23.7374 31.0619 23.7156C30.95 23.6908 30.8369 23.672 30.7231 23.6593C30.581 23.6446 30.4382 23.6374 30.2954 23.6377C30.1967 23.6376 30.0981 23.6464 30.001 23.6642C29.9061 23.6788 29.8146 23.7108 29.7312 23.7587C29.6488 23.8072 29.5806 23.877 29.5338 23.9609C29.4782 24.0686 29.4516 24.1892 29.4565 24.3105C29.4523 24.4037 29.4702 24.4965 29.5089 24.5812C29.5475 24.666 29.6057 24.7402 29.6786 24.7977C29.7495 24.8537 29.8275 24.9 29.9105 24.9353C29.996 24.9734 30.075 25.0082 30.1671 25.043L30.6803 25.2418C30.8974 25.328 31.0948 25.4175 31.2708 25.5086C31.4397 25.5942 31.5918 25.7099 31.7199 25.85C31.8483 25.9943 31.9463 26.1634 32.0077 26.3471C32.0809 26.5773 32.1154 26.8181 32.1097 27.0597C32.1111 27.3352 32.0551 27.6078 31.9452 27.8601C31.8415 28.0999 31.6845 28.3125 31.4863 28.4815C31.2685 28.6646 31.0169 28.8025 30.7461 28.8875C30.4182 28.9901 30.0761 29.0394 29.7328 29.0333C29.5437 29.0333 29.3759 29.0333 29.2279 29.0168C29.0855 29.0054 28.9439 28.9866 28.8035 28.9604C28.6703 28.9339 28.537 28.9008 28.4054 28.861C28.2738 28.8212 28.1373 28.7715 27.9958 28.7135C28.014 28.5379 28.0454 28.364 28.0896 28.1932C28.1357 28.0109 28.1899 27.8286 28.2541 27.6447C28.4731 27.7367 28.6992 27.8104 28.9301 27.8651C29.1552 27.9119 29.3847 27.9331 29.6144 27.928C29.9102 27.9445 30.2045 27.8743 30.4615 27.7259C30.5623 27.6596 30.6438 27.5677 30.6978 27.4594C30.7519 27.3511 30.7765 27.2304 30.7691 27.1094C30.773 26.9903 30.7482 26.872 30.6967 26.7647C30.6496 26.6755 30.586 26.5962 30.5092 26.5311C30.4298 26.4642 30.3419 26.4085 30.2477 26.3654C30.1506 26.3223 30.0503 26.2808 29.9483 26.2411L29.4187 26.0522Z" fill="#BABABD"/>
<path d="M33.9125 26.0522C33.7349 25.9839 33.5628 25.9019 33.3977 25.8069C33.2503 25.7225 33.1175 25.6145 33.0046 25.4871C32.8923 25.3573 32.8067 25.2064 32.7529 25.043C32.6882 24.843 32.6576 24.6335 32.6624 24.4232C32.657 24.1564 32.708 23.8914 32.8121 23.646C32.9086 23.4278 33.0538 23.2349 33.2365 23.0826C33.4302 22.9234 33.6541 22.8055 33.8944 22.7362C34.1758 22.656 34.4672 22.6169 34.7596 22.6202C35.0357 22.6186 35.3112 22.6447 35.5821 22.6981C35.8533 22.7545 36.1203 22.8292 36.3815 22.9218C36.3455 23.2624 36.2532 23.5946 36.1084 23.9045L35.8469 23.8018C35.7548 23.7662 35.6603 23.7374 35.564 23.7156C35.4527 23.6908 35.3401 23.672 35.2268 23.6593C35.0842 23.6446 34.9409 23.6374 34.7975 23.6377C34.6987 23.6376 34.6002 23.6465 34.503 23.6642C34.4082 23.6791 34.3168 23.7111 34.2333 23.7587C34.1512 23.8077 34.0832 23.8774 34.0359 23.9609C33.9809 24.0688 33.9548 24.1893 33.9602 24.3105C33.9571 24.41 33.9774 24.5088 34.0194 24.5989C34.0591 24.6765 34.1152 24.7444 34.1839 24.7977C34.254 24.8541 34.3315 24.9004 34.4142 24.9353C34.4998 24.9734 34.5787 25.0082 34.6708 25.043L35.1857 25.2418C35.4011 25.328 35.5985 25.4175 35.7762 25.5086C35.9446 25.5951 36.0965 25.7106 36.2252 25.85C36.3526 25.9948 36.4499 26.1639 36.5114 26.3471C36.5861 26.577 36.6211 26.818 36.6151 27.0597C36.6165 27.3352 36.5604 27.6079 36.4506 27.8601C36.3469 28.0995 36.1905 28.312 35.9933 28.4815C35.775 28.6639 35.5236 28.8018 35.2531 28.8875C34.9247 28.9902 34.5821 29.0394 34.2382 29.0334C34.0507 29.0334 33.8829 29.0334 33.7332 29.0168C33.5914 29.0055 33.4503 28.9867 33.3105 28.9604C33.1756 28.9339 33.044 28.9008 32.9124 28.861C32.7809 28.8212 32.6443 28.7715 32.5012 28.7135C32.521 28.5382 32.5523 28.3643 32.595 28.1932C32.641 28.0109 32.6953 27.8286 32.7595 27.6447C32.9786 27.7362 33.2047 27.8099 33.4355 27.8651C33.6575 27.9145 33.8842 27.9389 34.1116 27.938C34.4074 27.9547 34.7017 27.8844 34.9587 27.7358C35.0596 27.6697 35.1414 27.5778 35.1957 27.4695C35.25 27.3613 35.2749 27.2405 35.2679 27.1194C35.2721 27.0001 35.2466 26.8816 35.1939 26.7747C35.1478 26.6848 35.084 26.6053 35.0064 26.541C34.927 26.4742 34.839 26.4185 34.7448 26.3753C34.6478 26.3322 34.5491 26.2908 34.4455 26.251L33.9125 26.0522Z" fill="#BABABD"/>
<path d="M37.4983 22.7247C37.6989 22.6904 37.9018 22.6727 38.1053 22.6716C38.3147 22.6727 38.5237 22.6904 38.7303 22.7247V27.8369H40.8687C40.8861 27.9294 40.8977 28.023 40.9032 28.117C40.9032 28.2065 40.9032 28.291 40.9032 28.3722C40.9032 28.4534 40.9032 28.5545 40.9032 28.6423C40.8977 28.7368 40.8861 28.8309 40.8687 28.924H37.4983V22.7247Z" fill="#BABABD"/>
<path d="M43.5959 22.7246H47.088C47.1223 22.8976 47.1394 23.0735 47.139 23.2499C47.1401 23.4324 47.123 23.6144 47.088 23.7935H44.8493V25.1374H46.6291C46.6626 25.3138 46.6796 25.493 46.6801 25.6726C46.6805 25.8551 46.6634 26.0371 46.6291 26.2162H44.8493V27.8534H47.1522C47.1871 28.0269 47.2048 28.2034 47.2048 28.3804C47.2052 28.5629 47.1875 28.745 47.1522 28.9239H43.5959V22.7246Z" fill="#BABABD"/>
<path d="M48.144 22.7247C48.3103 22.6906 48.4794 22.6729 48.649 22.6716C48.8268 22.6726 49.0042 22.6904 49.1787 22.7247L51.5588 26.6736V22.7247C51.7539 22.6905 51.9514 22.6727 52.1493 22.6716C52.3218 22.6715 52.4937 22.6893 52.6625 22.7247V28.9223C52.4999 28.9539 52.3347 28.9711 52.1691 28.9737C51.9941 28.9717 51.8197 28.9545 51.6476 28.9223L49.2511 24.9817V28.9223C49.0676 28.9561 48.8816 28.9733 48.6951 28.9737C48.5113 28.9737 48.328 28.9565 48.1473 28.9223L48.144 22.7247Z" fill="#BABABD"/>
<path d="M57.9261 27.7507C57.9998 27.9113 58.0609 28.0776 58.1087 28.2479C58.1577 28.4161 58.194 28.5878 58.2172 28.7616C57.9581 28.8605 57.6897 28.9327 57.4162 28.977C57.1622 29.0127 56.9061 29.0299 56.6497 29.0284C56.2132 29.0372 55.7795 28.9566 55.3749 28.7914C55.0226 28.6432 54.7083 28.4166 54.4554 28.1285C54.2008 27.8339 54.0097 27.4891 53.8945 27.116C53.7662 26.7032 53.703 26.2726 53.707 25.84C53.7033 25.4052 53.7694 24.9727 53.9027 24.5591C54.0243 24.1846 54.2177 23.8378 54.4718 23.5383C54.7236 23.248 55.0366 23.0181 55.388 22.8655C55.7791 22.6987 56.2004 22.6163 56.625 22.6236C56.8781 22.6227 57.1309 22.6399 57.3816 22.6749C57.6393 22.7173 57.891 22.7902 58.1317 22.892C58.1196 23.0617 58.0848 23.2289 58.0281 23.3891C57.9705 23.5549 57.908 23.7206 57.8406 23.8863C57.6674 23.8243 57.4898 23.7755 57.3093 23.7405C57.1284 23.709 56.945 23.6946 56.7615 23.6974C56.2132 23.6974 55.7927 23.8769 55.4999 24.2359C55.2071 24.595 55.0602 25.128 55.0591 25.8351C55.0591 27.237 55.6496 27.938 56.8306 27.938C57.0168 27.9405 57.2029 27.9261 57.3866 27.8949C57.5699 27.8611 57.7503 27.8129 57.9261 27.7507Z" fill="#BABABD"/>
<path d="M59.2092 22.7246C59.4609 22.6948 59.7027 22.6716 59.9149 22.6501C60.1271 22.6285 60.3787 22.6202 60.6469 22.6202C60.9586 22.6206 61.2697 22.6494 61.5762 22.7064C61.8659 22.7598 62.1442 22.8635 62.3987 23.013C62.6427 23.1583 62.8468 23.3628 62.9925 23.6079C63.1538 23.8984 63.2324 24.2281 63.2195 24.5607C63.2232 24.7668 63.1943 24.9721 63.1339 25.1689C63.0365 25.4754 62.8626 25.7515 62.6289 25.971C62.5395 26.056 62.4419 26.132 62.3378 26.198L62.193 26.2941L63.6899 28.914L63.3313 28.9488C63.2063 28.9604 63.0764 28.9671 62.9464 28.9671C62.7315 28.967 62.5169 28.9492 62.3049 28.914L60.7028 26.0356L60.9084 25.9312C60.989 25.8914 61.086 25.84 61.1995 25.7754C61.3177 25.7092 61.4281 25.6297 61.5285 25.5385C61.6369 25.4399 61.7276 25.3233 61.7966 25.1938C61.8959 24.9861 61.9303 24.753 61.8953 24.5252C61.8604 24.2974 61.7577 24.0856 61.6009 23.9178C61.3734 23.7416 61.0915 23.6518 60.8048 23.6642C60.6902 23.6634 60.5758 23.6717 60.4626 23.6891V28.9223C60.359 28.9323 60.257 28.9439 60.1534 28.9521C60.0498 28.9604 59.9511 28.9654 59.854 28.9654C59.757 28.9654 59.655 28.9654 59.5464 28.9555C59.4379 28.9455 59.326 28.9389 59.2175 28.9223L59.2092 22.7246Z" fill="#BABABD"/>
<path d="M65.6111 26.7067L63.6931 22.7296C63.9312 22.6947 64.1714 22.677 64.4119 22.6766C64.6323 22.6766 64.8523 22.6943 65.0699 22.7296L66.2855 25.5467L67.4829 22.7296C67.6977 22.6942 67.915 22.6765 68.1327 22.6766C68.353 22.6781 68.5729 22.6958 68.7906 22.7296L66.8743 26.7067V28.9323C66.7647 28.9488 66.655 28.9604 66.5453 28.9671C66.4434 28.9671 66.3397 28.9671 66.2378 28.9671C66.1358 28.9671 66.0387 28.9671 65.9334 28.9671C65.8282 28.9671 65.7213 28.9488 65.6045 28.9323L65.6111 26.7067Z" fill="#BABABD"/>
<path d="M69.47 22.6981C69.7332 22.6749 69.998 22.6567 70.2661 22.6418C70.5342 22.6269 70.8056 22.6202 71.0803 22.6202C71.3713 22.6214 71.6616 22.6503 71.9472 22.7064C72.2312 22.7599 72.5018 22.8698 72.7433 23.0296C72.9884 23.1981 73.1875 23.426 73.3223 23.6924C73.4831 24.0341 73.5593 24.4099 73.5444 24.7878C73.5599 25.1641 73.4837 25.5385 73.3223 25.8782C73.1875 26.143 72.9904 26.3706 72.7482 26.541C72.5127 26.7046 72.2461 26.8174 71.9653 26.8724C71.6848 26.9294 71.3994 26.9583 71.1132 26.9586C71.0392 26.9586 70.9701 26.9586 70.9043 26.9586C70.8385 26.9586 70.776 26.9586 70.7201 26.947V28.9356C70.6149 28.9521 70.5089 28.9632 70.4026 28.9687C70.3006 28.9687 70.2003 28.9787 70.1033 28.9787C70.0062 28.9787 69.9124 28.9787 69.8039 28.9687C69.6953 28.9588 69.5851 28.9521 69.4749 28.9356L69.47 22.6981ZM70.7201 25.8881C70.7836 25.8995 70.848 25.9056 70.9125 25.9063H71.1313C71.2729 25.9058 71.4139 25.8869 71.5508 25.85C71.6833 25.8139 71.807 25.7507 71.9143 25.6644C72.0238 25.5723 72.11 25.4553 72.1659 25.323C72.2329 25.1581 72.2649 24.9808 72.2597 24.8027C72.2648 24.6181 72.233 24.4343 72.1659 24.2625C72.1131 24.1296 72.0299 24.0113 71.9229 23.9171C71.816 23.8229 71.6885 23.7556 71.5508 23.7206C71.4141 23.6829 71.273 23.664 71.1313 23.6642H70.9553L70.7201 23.6858V25.8881Z" fill="#BABABD"/>
<path d="M75.658 23.7935H74.1266C74.0911 23.6145 74.0735 23.4324 74.074 23.2499C74.0741 23.0735 74.0918 22.8975 74.1266 22.7246H78.4477C78.482 22.8976 78.4991 23.0735 78.4987 23.2499C78.4997 23.4324 78.4827 23.6144 78.4477 23.7935H76.9163V28.9306C76.8127 28.9405 76.7107 28.9521 76.6071 28.9604C76.5035 28.9687 76.4048 28.9737 76.3077 28.9737C76.2107 28.9737 76.1071 28.9737 75.9952 28.9637C75.8834 28.9538 75.7715 28.9471 75.658 28.9306V23.7935Z" fill="#BABABD"/>
<path d="M79.3113 22.7247C79.5179 22.69 79.7269 22.6723 79.9363 22.6716C80.1485 22.6725 80.3602 22.6902 80.5696 22.7247V28.9223C80.1529 28.9908 79.728 28.9908 79.3113 28.9223V22.7247Z" fill="#BABABD"/>
<path d="M84.2757 29.0267C83.8636 29.0369 83.4545 28.9543 83.0782 28.7848C82.7555 28.6332 82.4734 28.4059 82.2558 28.1219C82.0308 27.8205 81.8665 27.4777 81.7722 27.1127C81.6613 26.6983 81.606 26.2709 81.6077 25.8417C81.6063 25.4093 81.6617 24.9786 81.7722 24.5607C81.8658 24.1919 82.0301 23.8452 82.2558 23.5399C82.4717 23.2518 82.754 23.0209 83.0782 22.8671C83.4576 22.7074 83.8646 22.6252 84.2757 22.6252C84.6868 22.6252 85.0939 22.7074 85.4732 22.8671C85.7974 23.0209 86.0797 23.2518 86.2956 23.5399C86.5214 23.8452 86.6857 24.1919 86.7792 24.5607C86.8898 24.9786 86.9451 25.4093 86.9437 25.8417C86.9455 26.2709 86.8901 26.6983 86.7792 27.1127C86.6849 27.4777 86.5206 27.8205 86.2956 28.1219C86.078 28.4059 85.796 28.6332 85.4732 28.7848C85.0969 28.9543 84.6878 29.0369 84.2757 29.0267ZM84.2757 27.9744C85.1607 27.9744 85.6026 27.2618 85.6015 25.8367C85.6015 25.1241 85.4918 24.5894 85.2725 24.2326C85.1712 24.0599 85.0245 23.9187 84.8486 23.8245C84.6728 23.7304 84.4745 23.6869 84.2757 23.699C83.3809 23.699 82.9329 24.4116 82.9318 25.8367C82.9307 27.2618 83.3787 27.9744 84.2757 27.9744Z" fill="#BABABD"/>
<path d="M87.9814 22.7247C88.1477 22.6906 88.3168 22.6729 88.4864 22.6716C88.6642 22.6726 88.8416 22.6904 89.0161 22.7247L91.3962 26.6736V22.7247C91.5912 22.6905 91.7888 22.6727 91.9867 22.6716C92.1592 22.6715 92.3311 22.6893 92.4999 22.7247V28.9223C92.3372 28.9539 92.1721 28.9711 92.0065 28.9737C91.8315 28.9717 91.6571 28.9545 91.485 28.9223L89.0884 24.9817V28.9223C88.905 28.9561 88.7189 28.9733 88.5325 28.9737C88.3487 28.9737 88.1653 28.9565 87.9847 28.9223L87.9814 22.7247Z" fill="#BABABD"/>
</g>
<defs>
<clipPath id="clip0_858_5382">
<rect width="92" height="31" fill="white" transform="translate(0.5 0.253906)"/>
</clipPath>
</defs>
</svg>
