<svg width="41" height="41" viewBox="0 0 41 41" fill="none" xmlns="http://www.w3.org/2000/svg">
<path d="M23.9174 21.8976C24.6693 19.9717 23.7556 17.7857 21.8768 17.0151C19.9979 16.2444 17.8652 17.1808 17.1133 19.1067C16.3615 21.0325 17.2751 23.2185 19.154 23.9892C21.0328 24.7599 23.1655 23.8234 23.9174 21.8976Z" fill="#E33C4C"/>
<g opacity="0.9">
<path d="M20.5131 26.6186C19.7071 26.6186 18.9258 26.4569 18.1893 26.1373C17.4783 25.8292 16.8398 25.3878 16.2918 24.8261C15.7437 24.2643 15.3131 23.6099 15.0125 22.8811C14.7007 22.1262 14.543 21.3254 14.543 20.4992C14.543 19.6731 14.7007 18.8723 15.0125 18.1174C15.3131 17.3886 15.7437 16.7341 16.2918 16.1724C16.8398 15.6107 17.4783 15.1692 18.1893 14.8612C18.9258 14.5416 19.7071 14.3799 20.5131 14.3799C21.319 14.3799 22.1004 14.5416 22.8368 14.8612C23.5478 15.1692 24.1863 15.6107 24.7344 16.1724C25.2824 16.7341 25.7131 17.3886 26.0136 18.1174C26.3254 18.8723 26.4832 19.6731 26.4832 20.4992C26.4832 21.3254 26.3254 22.1262 26.0136 22.8811C25.7131 23.6099 25.2824 24.2643 24.7344 24.8261C24.1863 25.3878 23.5478 25.8292 22.8368 26.1373C22.1004 26.4569 21.319 26.6186 20.5131 26.6186ZM20.5131 15.4221C17.7818 15.4221 15.559 17.6997 15.559 20.5C15.559 23.3003 17.7811 25.5779 20.5131 25.5779C23.245 25.5779 25.4671 23.3003 25.4671 20.5C25.4671 17.6997 23.245 15.4221 20.5131 15.4221Z" fill="#E33C4C"/>
</g>
<g opacity="0.8">
<path opacity="0.9" d="M20.5107 29.213C19.363 29.213 18.2498 28.9824 17.2015 28.5279C16.1892 28.0888 15.28 27.4612 14.4995 26.6611C13.7189 25.861 13.1058 24.9291 12.6782 23.8915C12.2348 22.817 12.0098 21.6759 12.0098 20.4996C12.0098 19.3232 12.2348 18.1821 12.6782 17.1077C13.1066 16.0701 13.7189 15.1382 14.4995 14.3381C15.28 13.538 16.1892 12.9096 17.2015 12.4713C18.2498 12.0168 19.363 11.7861 20.5107 11.7861C21.6584 11.7861 22.7716 12.0168 23.8199 12.4713C24.8322 12.9104 25.7414 13.538 26.5219 14.3381C27.3025 15.1382 27.9156 16.0701 28.3432 17.1077C28.7866 18.1821 29.0116 19.3232 29.0116 20.4996C29.0116 21.6759 28.7866 22.817 28.3432 23.8915C27.9148 24.9291 27.3025 25.861 26.5219 26.6611C25.7414 27.4612 24.8322 28.0896 23.8199 28.5279C22.7716 28.9824 21.6584 29.213 20.5107 29.213ZM20.5107 12.6973C16.3133 12.6973 12.8987 16.1973 12.8987 20.4996C12.8987 24.8019 16.3133 28.3018 20.5107 28.3018C24.7081 28.3018 28.1227 24.8019 28.1227 20.4996C28.1227 16.1973 24.7081 12.6973 20.5107 12.6973Z" fill="#E33C4C"/>
</g>
<g opacity="0.7">
<path opacity="0.8" d="M20.5153 32.0591C18.993 32.0591 17.5157 31.7533 16.1258 31.1502C14.783 30.5677 13.577 29.7347 12.5415 28.6733C11.5059 27.6119 10.6925 26.3758 10.125 24.9994C9.5366 23.574 9.23828 22.0604 9.23828 20.4994C9.23828 18.9383 9.5366 17.4247 10.125 16.0001C10.6932 14.6237 11.5059 13.3876 12.5415 12.3262C13.577 11.2648 14.783 10.431 16.1258 9.84933C17.5164 9.2462 18.993 8.94043 20.5153 8.94043C22.0375 8.94043 23.5149 9.2462 24.9048 9.84933C26.2476 10.4318 27.4536 11.2648 28.4891 12.3262C29.5246 13.3876 30.3381 14.6237 30.9056 16.0001C31.494 17.4255 31.7923 18.9391 31.7923 20.4994C31.7923 22.0597 31.494 23.574 30.9056 24.9994C30.3373 26.3758 29.5246 27.6119 28.4891 28.6733C27.4536 29.7347 26.2476 30.5685 24.9048 31.1502C23.5142 31.7533 22.0375 32.0591 20.5153 32.0591ZM20.5153 9.5903C14.6469 9.5903 9.8723 14.4842 9.8723 20.4994C9.8723 26.5145 14.6469 31.4084 20.5153 31.4084C26.3837 31.4084 31.1583 26.5145 31.1583 20.4994C31.1583 14.4842 26.3837 9.5903 20.5153 9.5903Z" fill="#E33C4C"/>
</g>
<g opacity="0.6">
<path opacity="0.7" d="M20.509 34.7872C18.6271 34.7872 16.8021 34.4094 15.0832 33.6645C14.257 33.3066 13.4608 32.8629 12.7154 32.3471C11.9774 31.836 11.2836 31.2489 10.6526 30.6029C10.0215 29.9561 9.44957 29.2449 8.95087 28.4885C8.4477 27.7245 8.0148 26.9083 7.66564 26.0615C6.93891 24.2996 6.57031 22.429 6.57031 20.5C6.57031 18.5711 6.93891 16.7005 7.66564 14.9386C8.0148 14.0918 8.4477 13.2756 8.95087 12.5116C9.44957 11.7552 10.0223 11.044 10.6526 10.3972C11.2836 9.75038 11.9774 9.16412 12.7154 8.65297C13.4608 8.13721 14.257 7.69349 15.0832 7.3356C16.8021 6.5907 18.6271 6.21289 20.509 6.21289C22.3909 6.21289 24.2159 6.5907 25.9348 7.3356C26.761 7.69349 27.5572 8.13721 28.3026 8.65297C29.0406 9.16412 29.7344 9.75115 30.3655 10.3972C30.9965 11.044 31.5684 11.7552 32.0671 12.5116C32.5703 13.2756 33.0032 14.0918 33.3524 14.9386C34.0791 16.7005 34.4477 18.5711 34.4477 20.5C34.4477 22.429 34.0791 24.2996 33.3524 26.0615C33.0032 26.9083 32.5703 27.7245 32.0671 28.4885C31.5684 29.2449 30.9957 29.9561 30.3655 30.6029C29.7344 31.2497 29.0406 31.836 28.3026 32.3471C27.5572 32.8629 26.761 33.3066 25.9348 33.6645C24.2159 34.4094 22.3909 34.7872 20.509 34.7872ZM20.509 6.73248C13.1034 6.73248 7.07798 12.9085 7.07798 20.4993C7.07798 28.09 13.1034 34.2661 20.509 34.2661C27.9146 34.2661 33.94 28.09 33.94 20.4993C33.94 12.9085 27.9146 6.73248 20.509 6.73248Z" fill="#E33C4C"/>
</g>
<g opacity="0.5">
<path opacity="0.6" d="M20.5139 37.8312C18.2313 37.8312 16.0167 37.3729 13.9322 36.4694C12.9303 36.0349 11.9636 35.4976 11.0597 34.8715C10.1647 34.2515 9.3221 33.5396 8.55724 32.7556C7.79238 31.9716 7.09781 31.1087 6.49295 30.1906C5.8821 29.2641 5.35799 28.2732 4.93407 27.2463C4.05257 25.1097 3.60547 22.8398 3.60547 20.5001C3.60547 18.1604 4.05257 15.8904 4.93407 13.7538C5.35799 12.7269 5.8821 11.736 6.49295 10.8095C7.09781 9.89218 7.79238 9.0285 8.55724 8.24451C9.3221 7.46053 10.164 6.74859 11.0597 6.12861C11.9636 5.5025 12.9303 4.96528 13.9322 4.53076C16.0167 3.62722 18.2313 3.16895 20.5139 3.16895C22.7965 3.16895 25.0111 3.62722 27.0956 4.53076C28.0974 4.96528 29.0642 5.5025 29.9681 6.12861C30.863 6.74859 31.7057 7.46053 32.4705 8.24451C33.2354 9.0285 33.93 9.89141 34.5348 10.8095C35.1457 11.736 35.6698 12.7269 36.0937 13.7538C36.9752 15.8904 37.4223 18.1604 37.4223 20.5001C37.4223 22.8398 36.9752 25.1097 36.0937 27.2463C35.6698 28.2732 35.1457 29.2641 34.5348 30.1906C33.93 31.108 33.2354 31.9716 32.4705 32.7556C31.7057 33.5396 30.8638 34.2515 29.9681 34.8715C29.0642 35.4976 28.0974 36.0349 27.0956 36.4694C25.0111 37.3729 22.7965 37.8312 20.5139 37.8312ZM20.5139 3.55902C11.4006 3.55902 3.98603 11.159 3.98603 20.5001C3.98603 29.8412 11.4006 37.4411 20.5139 37.4411C29.6271 37.4411 37.0417 29.8412 37.0417 20.5001C37.0417 11.159 29.6271 3.55902 20.5139 3.55902Z" fill="#E33C4C"/>
</g>
<g opacity="0.4">
<path opacity="0.4" d="M20.5117 41C19.1547 41 17.7984 40.8598 16.4811 40.5839C15.1966 40.3149 13.9338 39.9125 12.7263 39.3891C11.5413 38.8757 10.3981 38.2396 9.32891 37.4993C8.27022 36.7659 7.27433 35.9237 6.36891 34.9964C5.46424 34.0691 4.64256 33.0483 3.92705 31.9624C3.2048 30.8665 2.58424 29.6947 2.08331 28.4801C1.57265 27.2432 1.18088 25.948 0.9177 24.6314C0.647794 23.2811 0.511719 21.8909 0.511719 20.5C0.511719 19.1091 0.648541 17.7189 0.9177 16.3686C1.18013 15.052 1.57265 13.7576 2.08331 12.5199C2.58424 11.3053 3.2048 10.1335 3.92705 9.03763C4.64256 7.95247 5.46424 6.93168 6.36891 6.00363C7.27359 5.07634 8.26948 4.23411 9.32891 3.50071C10.3981 2.76041 11.5413 2.12434 12.7263 1.61088C13.933 1.08746 15.1966 0.685887 16.4811 0.41613C17.7984 0.139476 19.1547 0 20.5117 0C21.8687 0 23.225 0.140242 24.5424 0.41613C25.8269 0.685121 27.0897 1.08746 28.2971 1.61088C29.4822 2.12434 30.6254 2.76041 31.6945 3.50071C32.7532 4.23411 33.7491 5.07634 34.6545 6.00363C35.5592 6.93092 36.3809 7.9517 37.0964 9.03763C37.8186 10.1335 38.4392 11.3053 38.9401 12.5199C39.4508 13.7568 39.8426 15.052 40.1057 16.3686C40.3756 17.7189 40.5117 19.1091 40.5117 20.5C40.5117 21.8909 40.3749 23.2811 40.1057 24.6314C39.8433 25.948 39.4508 27.2424 38.9401 28.4801C38.4392 29.6947 37.8186 30.8665 37.0964 31.9624C36.3809 33.0475 35.5592 34.0683 34.6545 34.9964C33.7498 35.9237 32.754 36.7659 31.6945 37.4993C30.6254 38.2396 29.4822 38.8757 28.2971 39.3891C27.0904 39.9125 25.8269 40.3141 24.5424 40.5839C23.225 40.8605 21.8687 41 20.5117 41ZM20.5117 0.259796C9.62349 0.260562 0.765924 9.33957 0.765924 20.5C0.765924 31.6604 9.62424 40.7402 20.5125 40.7402C31.4007 40.7402 40.259 31.6604 40.259 20.5C40.259 9.33957 31.4007 0.259796 20.5125 0.259796H20.5117Z" fill="#E33C4C"/>
</g>
<circle cx="21" cy="20.5" r="11.5" fill="#E33C4C"/>
<path d="M15.1465 20.5099L18.8493 24.3125L25.9595 17.0318L24.9387 16L18.8493 22.2344L16.1531 19.4708L15.1465 20.5099Z" fill="white"/>
</svg>
