<svg width="41" height="42" viewBox="0 0 41 42" fill="none" xmlns="http://www.w3.org/2000/svg">
<path d="M23.9907 22.8858C24.7613 20.96 23.8249 18.774 21.899 18.0033C19.9732 17.2327 17.7872 18.1691 17.0165 20.095C16.2458 22.0208 17.1823 24.2068 19.1082 24.9775C21.034 25.7481 23.22 24.8117 23.9907 22.8858Z" fill="#E33C4C"/>
<g opacity="0.9">
<path d="M20.5022 27.6069C19.676 27.6069 18.8752 27.4452 18.1203 27.1256C17.3915 26.8175 16.7371 26.3761 16.1753 25.8144C15.6136 25.2526 15.1722 24.5981 14.8641 23.8693C14.5445 23.1145 14.3828 22.3136 14.3828 21.4875C14.3828 20.6614 14.5445 19.8605 14.8641 19.1057C15.1722 18.3769 15.6136 17.7224 16.1753 17.1607C16.7371 16.5989 17.3915 16.1575 18.1203 15.8494C18.8752 15.5299 19.676 15.3682 20.5022 15.3682C21.3283 15.3682 22.1291 15.5299 22.884 15.8494C23.6128 16.1575 24.2673 16.5989 24.829 17.1607C25.3907 17.7224 25.8322 18.3769 26.1402 19.1057C26.4598 19.8605 26.6215 20.6614 26.6215 21.4875C26.6215 22.3136 26.4598 23.1145 26.1402 23.8693C25.8322 24.5981 25.3907 25.2526 24.829 25.8144C24.2673 26.3761 23.6128 26.8175 22.884 27.1256C22.1291 27.4452 21.3283 27.6069 20.5022 27.6069ZM20.5022 16.4104C17.7027 16.4104 15.4243 18.688 15.4243 21.4883C15.4243 24.2885 17.7019 26.5661 20.5022 26.5661C23.3024 26.5661 25.58 24.2885 25.58 21.4883C25.58 18.688 23.3024 16.4104 20.5022 16.4104Z" fill="#E33C4C"/>
</g>
<g opacity="0.8">
<path opacity="0.9" d="M20.4986 30.2013C19.3223 30.2013 18.1812 29.9707 17.1067 29.5162C16.0691 29.0771 15.1372 28.4494 14.3371 27.6494C13.537 26.8493 12.9086 25.9174 12.4703 24.8798C12.0158 23.8053 11.7852 22.6642 11.7852 21.4879C11.7852 20.3115 12.0158 19.1704 12.4703 18.096C12.9094 17.0583 13.537 16.1265 14.3371 15.3264C15.1372 14.5263 16.0691 13.8979 17.1067 13.4595C18.1812 13.0051 19.3223 12.7744 20.4986 12.7744C21.675 12.7744 22.8161 13.0051 23.8905 13.4595C24.9281 13.8987 25.86 14.5263 26.6601 15.3264C27.4602 16.1265 28.0886 17.0583 28.527 18.096C28.9814 19.1704 29.2121 20.3115 29.2121 21.4879C29.2121 22.6642 28.9814 23.8053 28.527 24.8798C28.0878 25.9174 27.4602 26.8493 26.6601 27.6494C25.86 28.4494 24.9281 29.0779 23.8905 29.5162C22.8161 29.9707 21.675 30.2013 20.4986 30.2013ZM20.4986 13.6856C16.1963 13.6856 12.6964 17.1856 12.6964 21.4879C12.6964 25.7902 16.1963 29.2901 20.4986 29.2901C24.8009 29.2901 28.3009 25.7902 28.3009 21.4879C28.3009 17.1856 24.8009 13.6856 20.4986 13.6856Z" fill="#E33C4C"/>
</g>
<g opacity="0.7">
<path opacity="0.8" d="M20.5042 33.0473C18.9439 33.0473 17.4296 32.7416 16.005 32.1385C14.6286 31.556 13.3925 30.723 12.3311 29.6616C11.2697 28.6002 10.4359 27.3641 9.85421 25.9877C9.25109 24.5623 8.94531 23.0487 8.94531 21.4876C8.94531 19.9266 9.25109 18.413 9.85421 16.9884C10.4366 15.612 11.2697 14.3759 12.3311 13.3145C13.3925 12.2531 14.6286 11.4193 16.005 10.8376C17.4304 10.2345 18.9439 9.92871 20.5042 9.92871C22.0645 9.92871 23.5789 10.2345 25.0035 10.8376C26.3799 11.42 27.616 12.2531 28.6774 13.3145C29.7388 14.3759 30.5726 15.612 31.1543 16.9884C31.7574 18.4138 32.0632 19.9273 32.0632 21.4876C32.0632 23.0479 31.7574 24.5623 31.1543 25.9877C30.5719 27.3641 29.7388 28.6002 28.6774 29.6616C27.616 30.723 26.3799 31.5568 25.0035 32.1385C23.5781 32.7416 22.0645 33.0473 20.5042 33.0473ZM20.5042 10.5786C14.4891 10.5786 9.59518 15.4725 9.59518 21.4876C9.59518 27.5028 14.4891 32.3967 20.5042 32.3967C26.5194 32.3967 31.4133 27.5028 31.4133 21.4876C31.4133 15.4725 26.5194 10.5786 20.5042 10.5786Z" fill="#E33C4C"/>
</g>
<g opacity="0.6">
<path opacity="0.7" d="M20.4981 35.7755C18.5692 35.7755 16.6985 35.3977 14.9367 34.6528C14.0898 34.2949 13.2737 33.8512 12.5096 33.3354C11.7532 32.8243 11.042 32.2372 10.3952 31.5912C9.74843 30.9444 9.16217 30.2332 8.65101 29.4768C8.13526 28.7128 7.69154 27.8966 7.33365 27.0498C6.58875 25.2879 6.21094 23.4172 6.21094 21.4883C6.21094 19.5594 6.58875 17.6887 7.33365 15.9269C7.69154 15.0801 8.13526 14.2639 8.65101 13.4998C9.16217 12.7435 9.7492 12.0323 10.3952 11.3855C11.042 10.7387 11.7532 10.1524 12.5096 9.64125C13.2737 9.12549 14.0898 8.68177 14.9367 8.32388C16.6985 7.57898 18.5692 7.20117 20.4981 7.20117C22.427 7.20117 24.2977 7.57898 26.0595 8.32388C26.9064 8.68177 27.7225 9.12549 28.4866 9.64125C29.243 10.1524 29.9542 10.7394 30.601 11.3855C31.2478 12.0323 31.834 12.7435 32.3452 13.4998C32.8609 14.2639 33.3047 15.0801 33.6625 15.9269C34.4074 17.6887 34.7853 19.5594 34.7853 21.4883C34.7853 23.4172 34.4074 25.2879 33.6625 27.0498C33.3047 27.8966 32.8609 28.7128 32.3452 29.4768C31.834 30.2332 31.247 30.9444 30.601 31.5912C29.9542 32.238 29.243 32.8243 28.4866 33.3354C27.7225 33.8512 26.9064 34.2949 26.0595 34.6528C24.2977 35.3977 22.427 35.7755 20.4981 35.7755ZM20.4981 7.72076C12.9073 7.72076 6.73129 13.8968 6.73129 21.4876C6.73129 29.0783 12.9073 35.2544 20.4981 35.2544C28.0888 35.2544 34.2649 29.0783 34.2649 21.4876C34.2649 13.8968 28.0888 7.72076 20.4981 7.72076Z" fill="#E33C4C"/>
</g>
<g opacity="0.5">
<path opacity="0.6" d="M20.503 38.8195C18.1633 38.8195 15.8934 38.3612 13.7568 37.4577C12.7299 37.0231 11.739 36.4859 10.8124 35.8598C9.89511 35.2398 9.03143 34.5279 8.24745 33.7439C7.46346 32.9599 6.75152 32.097 6.13154 31.1789C5.50543 30.2524 4.96821 29.2615 4.53369 28.2346C3.63016 26.098 3.17188 23.828 3.17188 21.4883C3.17188 19.1487 3.63016 16.8787 4.53369 14.7421C4.96821 13.7152 5.50543 12.7243 6.13154 11.7978C6.75152 10.8805 7.46346 10.0168 8.24745 9.2328C9.03143 8.44881 9.89434 7.73687 10.8124 7.11689C11.739 6.49078 12.7299 5.95356 13.7568 5.51904C15.8934 4.61551 18.1633 4.15723 20.503 4.15723C22.8427 4.15723 25.1126 4.61551 27.2492 5.51904C28.2761 5.95356 29.267 6.49078 30.1936 7.11689C31.1109 7.73687 31.9746 8.44881 32.7585 9.2328C33.5425 10.0168 34.2545 10.8797 34.8745 11.7978C35.5006 12.7243 36.0378 13.7152 36.4723 14.7421C37.3758 16.8787 37.8341 19.1487 37.8341 21.4883C37.8341 23.828 37.3758 26.098 36.4723 28.2346C36.0378 29.2615 35.5006 30.2524 34.8745 31.1789C34.2545 32.0962 33.5425 32.9599 32.7585 33.7439C31.9746 34.5279 31.1117 35.2398 30.1936 35.8598C29.267 36.4859 28.2761 37.0231 27.2492 37.4577C25.1126 38.3612 22.8427 38.8195 20.503 38.8195ZM20.503 4.5473C11.1619 4.5473 3.56195 12.1472 3.56195 21.4883C3.56195 30.8295 11.1619 38.4294 20.503 38.4294C29.8441 38.4294 37.444 30.8295 37.444 21.4883C37.444 12.1472 29.8441 4.5473 20.503 4.5473Z" fill="#E33C4C"/>
</g>
<g opacity="0.4">
<path opacity="0.4" d="M20.5 41.9883C19.1091 41.9883 17.7189 41.848 16.3686 41.5722C15.052 41.3032 13.7576 40.9008 12.5199 40.3774C11.3053 39.8639 10.1335 39.2279 9.03763 38.4876C7.95247 37.7542 6.93168 36.9119 6.00363 35.9847C5.07634 35.0574 4.23411 34.0366 3.50071 32.9507C2.76041 31.8548 2.12434 30.683 1.61088 29.4683C1.08746 28.2314 0.685888 26.9363 0.416131 25.6197C0.139477 24.2694 0 22.8792 0 21.4883C0 20.0973 0.140243 18.7072 0.416131 17.3569C0.685122 16.0403 1.08746 14.7459 1.61088 13.5082C2.12434 12.2936 2.76041 11.1218 3.50071 10.0259C4.23411 8.94075 5.07634 7.91996 6.00363 6.99191C6.93092 6.06462 7.9517 5.22239 9.03763 4.48899C10.1335 3.74869 11.3053 3.11262 12.5199 2.59916C13.7568 2.07574 15.052 1.67417 16.3686 1.40441C17.7189 1.12776 19.1091 0.988281 20.5 0.988281C21.8909 0.988281 23.2811 1.12852 24.6314 1.40441C25.948 1.6734 27.2424 2.07574 28.4801 2.59916C29.6947 3.11262 30.8665 3.74869 31.9624 4.48899C33.0475 5.22239 34.0683 6.06462 34.9964 6.99191C35.9237 7.9192 36.7659 8.93998 37.4993 10.0259C38.2396 11.1218 38.8757 12.2936 39.3891 13.5082C39.9125 14.7451 40.3141 16.0403 40.5839 17.3569C40.8605 18.7072 41 20.0973 41 21.4883C41 22.8792 40.8598 24.2694 40.5839 25.6197C40.3149 26.9363 39.9125 28.2307 39.3891 29.4683C38.8757 30.683 38.2396 31.8548 37.4993 32.9507C36.7659 34.0358 35.9237 35.0566 34.9964 35.9847C34.0691 36.9119 33.0483 37.7542 31.9624 38.4876C30.8665 39.2279 29.6947 39.8639 28.4801 40.3774C27.2432 40.9008 25.948 41.3024 24.6314 41.5722C23.2811 41.8488 21.8909 41.9883 20.5 41.9883ZM20.5 1.24808C9.33957 1.24884 0.260561 10.3279 0.260561 21.4883C0.260561 32.6487 9.34034 41.7285 20.5008 41.7285C31.6612 41.7285 40.741 32.6487 40.741 21.4883C40.741 10.3279 31.6612 1.24808 20.5008 1.24808H20.5Z" fill="#E33C4C"/>
</g>
<circle cx="20.4766" cy="21.6934" r="7" fill="#E33C4C"/>
</svg>
