<svg width="40" height="40" viewBox="0 0 40 40" fill="none" xmlns="http://www.w3.org/2000/svg">
<path d="M23.4057 21.3638C24.1575 19.4849 23.2439 17.3522 21.365 16.6003C19.4862 15.8485 17.3535 16.7621 16.6016 18.641C15.8498 20.5198 16.7634 22.6525 18.6422 23.4044C20.5211 24.1562 22.6538 23.2426 23.4057 21.3638Z" fill="#E33C4C"/>
<g opacity="0.9">
<path d="M20.0013 25.9695C19.1954 25.9695 18.4141 25.8117 17.6776 25.4999C16.9666 25.1994 16.3281 24.7687 15.78 24.2207C15.232 23.6727 14.8013 23.0342 14.5008 22.3231C14.189 21.5867 14.0312 20.8054 14.0312 19.9994C14.0312 19.1934 14.189 18.4121 14.5008 17.6757C14.8013 16.9646 15.232 16.3261 15.78 15.7781C16.3281 15.23 16.9666 14.7994 17.6776 14.4988C18.4141 14.1871 19.1954 14.0293 20.0013 14.0293C20.8073 14.0293 21.5886 14.1871 22.3251 14.4988C23.0361 14.7994 23.6746 15.23 24.2227 15.7781C24.7707 16.3261 25.2013 16.9646 25.5019 17.6757C25.8137 18.4121 25.9714 19.1934 25.9714 19.9994C25.9714 20.8054 25.8137 21.5867 25.5019 22.3231C25.2013 23.0342 24.7707 23.6727 24.2227 24.2207C23.6746 24.7687 23.0361 25.1994 22.3251 25.4999C21.5886 25.8117 20.8073 25.9695 20.0013 25.9695ZM20.0013 15.0461C17.2701 15.0461 15.0473 17.2682 15.0473 20.0001C15.0473 22.7321 17.2694 24.9542 20.0013 24.9542C22.7333 24.9542 24.9554 22.7321 24.9554 20.0001C24.9554 17.2682 22.7333 15.0461 20.0013 15.0461Z" fill="#E33C4C"/>
</g>
<g opacity="0.8">
<path opacity="0.9" d="M19.999 28.5009C18.8513 28.5009 17.738 28.2758 16.6898 27.8325C15.6775 27.4041 14.7683 26.7917 13.9878 26.0112C13.2072 25.2306 12.5941 24.3215 12.1665 23.3091C11.7231 22.2609 11.498 21.1476 11.498 20C11.498 18.8523 11.7231 17.739 12.1665 16.6908C12.5949 15.6785 13.2072 14.7693 13.9878 13.9887C14.7683 13.2082 15.6775 12.5951 16.6898 12.1674C17.738 11.7241 18.8513 11.499 19.999 11.499C21.1466 11.499 22.2599 11.7241 23.3081 12.1674C24.3205 12.5958 25.2296 13.2082 26.0102 13.9887C26.7908 14.7693 27.4038 15.6785 27.8315 16.6908C28.2749 17.739 28.4999 18.8523 28.4999 20C28.4999 21.1476 28.2749 22.2609 27.8315 23.3091C27.4031 24.3215 26.7908 25.2306 26.0102 26.0112C25.2296 26.7917 24.3205 27.4048 23.3081 27.8325C22.2599 28.2758 21.1466 28.5009 19.999 28.5009ZM19.999 12.388C15.8016 12.388 12.387 15.8026 12.387 20C12.387 24.1973 15.8016 27.6119 19.999 27.6119C24.1964 27.6119 27.6109 24.1973 27.6109 20C27.6109 15.8026 24.1964 12.388 19.999 12.388Z" fill="#E33C4C"/>
</g>
<g opacity="0.7">
<path opacity="0.8" d="M20.0036 31.2774C18.4813 31.2774 17.0039 30.9791 15.614 30.3907C14.2712 29.8225 13.0653 29.0098 12.0297 27.9742C10.9942 26.9387 10.1808 25.7328 9.61329 24.3899C9.02488 22.9993 8.72656 21.5227 8.72656 19.9997C8.72656 18.4767 9.02488 17 9.61329 15.6101C10.1815 14.2673 10.9942 13.0613 12.0297 12.0258C13.0653 10.9903 14.2712 10.1769 15.614 9.60938C17.0047 9.02097 18.4813 8.72266 20.0036 8.72266C21.5258 8.72266 23.0032 9.02097 24.3931 9.60938C25.7359 10.1776 26.9419 10.9903 27.9774 12.0258C29.0129 13.0613 29.8264 14.2673 30.3939 15.6101C30.9823 17.0008 31.2806 18.4774 31.2806 19.9997C31.2806 21.5219 30.9823 22.9993 30.3939 24.3899C29.8256 25.7328 29.0129 26.9387 27.9774 27.9742C26.9419 29.0098 25.7359 29.8232 24.3931 30.3907C23.0024 30.9791 21.5258 31.2774 20.0036 31.2774ZM20.0036 9.35667C14.1352 9.35667 9.36058 14.1313 9.36058 19.9997C9.36058 25.8681 14.1352 30.6427 20.0036 30.6427C25.872 30.6427 30.6466 25.8681 30.6466 19.9997C30.6466 14.1313 25.872 9.35667 20.0036 9.35667Z" fill="#E33C4C"/>
</g>
<g opacity="0.6">
<path opacity="0.7" d="M19.9973 33.9389C18.1154 33.9389 16.2904 33.5703 14.5715 32.8436C13.7453 32.4944 12.9491 32.0615 12.2036 31.5583C11.4657 31.0597 10.7719 30.4869 10.1408 29.8567C9.50981 29.2256 8.93785 28.5318 8.43915 27.7939C7.93598 27.0484 7.50308 26.2522 7.15392 25.426C6.42719 23.7071 6.05859 21.8821 6.05859 20.0002C6.05859 18.1183 6.42719 16.2933 7.15392 14.5744C7.50308 13.7483 7.93598 12.952 8.43915 12.2066C8.93785 11.4686 9.51056 10.7748 10.1408 10.1438C10.7719 9.51274 11.4657 8.94078 12.2036 8.44208C12.9491 7.93891 13.7453 7.50601 14.5715 7.15685C16.2904 6.43012 18.1154 6.06152 19.9973 6.06152C21.8792 6.06152 23.7042 6.43012 25.4231 7.15685C26.2492 7.50601 27.0455 7.93891 27.7909 8.44208C28.5289 8.94078 29.2227 9.51348 29.8537 10.1438C30.4848 10.7748 31.0567 11.4686 31.5554 12.2066C32.0586 12.952 32.4915 13.7483 32.8407 14.5744C33.5674 16.2933 33.936 18.1183 33.936 20.0002C33.936 21.8821 33.5674 23.7071 32.8407 25.426C32.4915 26.2522 32.0586 27.0484 31.5554 27.7939C31.0567 28.5318 30.484 29.2256 29.8537 29.8567C29.2227 30.4877 28.5289 31.0597 27.7909 31.5583C27.0455 32.0615 26.2492 32.4944 25.4231 32.8436C23.7042 33.5703 21.8792 33.9389 19.9973 33.9389ZM19.9973 6.56844C12.5917 6.56844 6.56626 12.5939 6.56626 19.9995C6.56626 27.4051 12.5917 33.4305 19.9973 33.4305C27.4029 33.4305 33.4283 27.4051 33.4283 19.9995C33.4283 12.5939 27.4029 6.56844 19.9973 6.56844Z" fill="#E33C4C"/>
</g>
<g opacity="0.5">
<path opacity="0.6" d="M20.0022 36.9086C17.7195 36.9086 15.505 36.4615 13.4205 35.58C12.4186 35.1561 11.4519 34.632 10.548 34.0211C9.653 33.4163 8.81038 32.7217 8.04553 31.9568C7.28067 31.192 6.58609 30.3501 5.98123 29.4544C5.37039 28.5505 4.84627 27.5838 4.42235 26.5819C3.54085 24.4974 3.09375 22.2828 3.09375 20.0002C3.09375 17.7176 3.54085 15.503 4.42235 13.4185C4.84627 12.4167 5.37039 11.4499 5.98123 10.546C6.58609 9.65105 7.28067 8.80843 8.04553 8.04357C8.81038 7.27871 9.65225 6.58413 10.548 5.97927C11.4519 5.36843 12.4186 4.84432 13.4205 4.42039C15.505 3.5389 17.7195 3.0918 20.0022 3.0918C22.2848 3.0918 24.4994 3.5389 26.5838 4.42039C27.5857 4.84432 28.5524 5.36843 29.4564 5.97927C30.3513 6.58413 31.1939 7.27871 31.9588 8.04357C32.7237 8.80843 33.4182 9.6503 34.0231 10.546C34.6339 11.4499 35.158 12.4167 35.582 13.4185C36.4635 15.503 36.9106 17.7176 36.9106 20.0002C36.9106 22.2828 36.4635 24.4974 35.582 26.5819C35.158 27.5838 34.6339 28.5505 34.0231 29.4544C33.4182 30.3494 32.7237 31.192 31.9588 31.9568C31.1939 32.7217 30.3521 33.4163 29.4564 34.0211C28.5524 34.632 27.5857 35.1561 26.5838 35.58C24.4994 36.4615 22.2848 36.9086 20.0022 36.9086ZM20.0022 3.47236C10.8889 3.47236 3.47431 10.8869 3.47431 20.0002C3.47431 29.1135 10.8889 36.5281 20.0022 36.5281C29.1154 36.5281 36.53 29.1135 36.53 20.0002C36.53 10.8869 29.1154 3.47236 20.0022 3.47236Z" fill="#E33C4C"/>
</g>
<g opacity="0.4">
<path opacity="0.4" d="M20 40C18.643 40 17.2867 39.8632 15.9693 39.594C14.6849 39.3316 13.4221 38.9391 12.2146 38.4284C11.0295 37.9275 9.88635 37.3069 8.8172 36.5847C7.7585 35.8692 6.76262 35.0475 5.8572 34.1428C4.95252 33.2381 4.13084 32.2422 3.41533 31.1828C2.69308 30.1136 2.07252 28.9705 1.57159 27.7854C1.06093 26.5787 0.669159 25.3151 0.405981 24.0307C0.136075 22.7133 0 21.357 0 20C0 18.643 0.136822 17.2867 0.405981 15.9693C0.668411 14.6849 1.06093 13.4221 1.57159 12.2146C2.07252 11.0295 2.69308 9.88635 3.41533 8.8172C4.13084 7.7585 4.95252 6.76262 5.8572 5.8572C6.76187 4.95252 7.75776 4.13084 8.8172 3.41533C9.88635 2.69308 11.0295 2.07252 12.2146 1.57159C13.4213 1.06094 14.6849 0.669158 15.9693 0.405981C17.2867 0.136074 18.643 0 20 0C21.357 0 22.7133 0.136822 24.0307 0.405981C25.3151 0.668411 26.5779 1.06094 27.7854 1.57159C28.9705 2.07252 30.1136 2.69308 31.1828 3.41533C32.2415 4.13084 33.2374 4.95252 34.1428 5.8572C35.0475 6.76187 35.8692 7.75776 36.5847 8.8172C37.3069 9.88635 37.9275 11.0295 38.4284 12.2146C38.9391 13.4213 39.3308 14.6849 39.594 15.9693C39.8639 17.2867 40 18.643 40 20C40 21.357 39.8632 22.7133 39.594 24.0307C39.3316 25.3151 38.9391 26.5779 38.4284 27.7854C37.9275 28.9705 37.3069 30.1136 36.5847 31.1828C35.8692 32.2415 35.0475 33.2374 34.1428 34.1428C33.2381 35.0475 32.2422 35.8692 31.1828 36.5847C30.1136 37.3069 28.9705 37.9275 27.7854 38.4284C26.5787 38.9391 25.3151 39.3308 24.0307 39.594C22.7133 39.8639 21.357 40 20 40ZM20 0.253459C9.11178 0.254207 0.254206 9.11178 0.254206 20C0.254206 30.8882 9.11252 39.7465 20.0007 39.7465C30.889 39.7465 39.7473 30.8882 39.7473 20C39.7473 9.11178 30.889 0.253459 20.0007 0.253459H20Z" fill="#E33C4C"/>
</g>
</svg>
