<svg width="38" height="24" viewBox="0 0 38 24" fill="none" xmlns="http://www.w3.org/2000/svg">
<rect width="38" height="24" rx="4" fill="#6974DE"/>
<path d="M7.14091 10.8548C7.14091 10.5852 7.41406 10.4505 7.77825 10.4505C8.32454 10.4505 9.05292 10.6302 9.59921 10.9446V9.23749C9.0074 9.01286 8.37006 8.87809 7.77825 8.87809C6.32148 8.87809 5.31995 9.64182 5.31995 10.9446C5.31995 12.9214 8.05139 12.5619 8.05139 13.4605C8.05139 13.7749 7.77825 13.9097 7.36853 13.9097C6.77672 13.9097 6.00281 13.6402 5.41099 13.3257V15.0328C6.09386 15.3024 6.73119 15.4372 7.36853 15.4372C8.87083 15.4372 9.87236 14.7184 9.87236 13.4155C9.91788 11.2591 7.14091 11.6634 7.14091 10.8548ZM18.4764 15.3024H20.2974V9.01286H18.4764V15.3024ZM12.2851 7.53034L10.5097 7.88974V13.5503C10.5097 14.6285 11.3291 15.3922 12.3762 15.3922C12.968 15.3922 13.4232 15.3024 13.6509 15.1676V13.73C13.4232 13.8199 12.2851 14.1343 12.2851 13.1011V10.5403H13.6509V9.01286H12.2851V7.53034ZM16.1092 9.55197L16.0636 9.01286H14.4248V15.3024H16.2457V11.0345C16.701 10.4954 17.4749 10.5852 17.7025 10.6751V9.01286C17.4749 8.92301 16.5644 8.78824 16.1092 9.55197ZM18.4764 8.51869L20.2974 8.15929V6.67676L18.4764 7.03616V8.51869ZM32.6799 12.1576C32.6799 10.3157 31.7695 8.87809 30.0395 8.87809C28.3096 8.87809 27.2626 10.3157 27.2626 12.1576C27.2626 14.314 28.4917 15.3922 30.2672 15.3922C31.1321 15.3922 31.7695 15.2125 32.2702 14.8981V13.5054C31.7695 13.7749 31.2232 13.9097 30.4948 13.9097C29.7664 13.9097 29.1746 13.6402 29.0835 12.7866H32.6344C32.6799 12.6967 32.6799 12.3373 32.6799 12.1576ZM29.0835 11.4837C29.0835 10.6751 29.5843 10.3606 30.0395 10.3606C30.4948 10.3606 30.95 10.6751 30.95 11.4837H29.0835ZM24.3035 8.87809C23.5751 8.87809 23.1654 9.19256 22.8923 9.46212L22.8467 9.01286H21.2079V17.324L23.0288 17.0095V14.9879C23.302 15.1676 23.6662 15.4372 24.3035 15.4372C25.6237 15.4372 26.8073 14.4039 26.8073 12.1127C26.7618 10.0461 25.5782 8.87809 24.3035 8.87809ZM23.8483 13.8199C23.4386 13.8199 23.1654 13.6851 22.9833 13.4605V10.8099C23.1654 10.5852 23.4386 10.4505 23.8483 10.4505C24.5311 10.4505 24.9864 11.1693 24.9864 12.1127C24.9864 13.1011 24.5311 13.8199 23.8483 13.8199Z" fill="white"/>
</svg>
