<svg width="60" height="32" viewBox="0 0 60 32" fill="none" xmlns="http://www.w3.org/2000/svg">
<g clip-path="url(#clip0_7827_2592)">
<path d="M21.9494 9.6537H45.6504C48.0281 9.6537 50.0011 10.4129 51.6958 11.9565C53.34 13.4748 54.1494 15.2968 54.1747 17.5236H54.5036H54.1747C54.1494 19.6999 53.34 21.4966 51.6958 23.0402C50.0264 24.5838 48.0281 25.3683 45.6504 25.3683H21.9494C21.7723 25.3683 21.6205 25.5201 21.6205 25.6972C21.6205 25.8744 21.7723 26.0262 21.9494 26.0262H45.6504C48.1799 26.0262 50.3552 25.1911 52.1512 23.521C53.9218 21.8762 54.8324 19.8517 54.8324 17.4983C54.8071 15.1196 53.9218 13.0699 52.1259 11.4504C50.3299 9.80553 48.1546 8.97046 45.6251 8.97046H21.9494C21.7723 8.97046 21.6205 9.12229 21.6205 9.29943C21.6205 9.50187 21.7723 9.6537 21.9494 9.6537ZM21.9494 9.6537H45.6504C48.0281 9.6537 50.0011 10.4129 51.6958 11.9565C53.34 13.4748 54.1494 15.2968 54.1747 17.5236H54.5036H54.1747C54.1494 19.6999 53.34 21.4966 51.6958 23.0402C50.0264 24.5838 48.0281 25.3683 45.6504 25.3683H21.9494C21.7723 25.3683 21.6205 25.5201 21.6205 25.6972C21.6205 25.8744 21.7723 26.0262 21.9494 26.0262H45.6504C48.1799 26.0262 50.3552 25.1911 52.1512 23.521C53.9218 21.8762 54.8324 19.8517 54.8324 17.4983C54.8071 15.1196 53.9218 13.0699 52.1259 11.4504C50.3299 9.80553 48.1546 8.97046 45.6251 8.97046H21.9494C21.7723 8.97046 21.6205 9.12229 21.6205 9.29943C21.6205 9.50187 21.7723 9.6537 21.9494 9.6537Z" fill="#9B0033"/>
<path fill-rule="evenodd" clip-rule="evenodd" d="M19.8499 9.47657C21.2158 10.261 22.2782 11.3492 23.0623 12.665C23.8465 14.0315 24.2512 15.5245 24.2765 17.1694C24.2512 18.8648 23.8465 20.3832 23.0623 21.699C22.2782 23.0402 21.2158 24.1283 19.8499 24.9381C18.5093 25.7226 17.0169 26.1274 15.3475 26.1528C13.678 26.1274 12.1856 25.7226 10.845 24.9381C9.47912 24.1283 8.41674 23.0402 7.6579 21.7243C6.82318 20.3832 6.44376 18.8901 6.41847 17.1947C6.44376 15.5498 6.82318 14.0315 7.6579 12.6903C8.41674 11.3492 9.50441 10.2863 10.845 9.50188C12.1856 8.71742 13.7033 8.28723 15.3475 8.26192C16.9916 8.26192 18.5093 8.69211 19.8499 9.47657ZM15.3222 6.43994C13.3239 6.46525 11.5027 6.94605 9.88383 7.90765C8.29027 8.86925 7.02554 10.1598 6.03905 11.7541C5.07785 13.3736 4.59726 15.1956 4.57196 17.1947C4.59726 19.1938 5.07785 21.0158 6.03905 22.6353C7.02554 24.2549 8.29027 25.5454 9.88383 26.5323C11.5027 27.4686 13.3239 27.9494 15.3222 28C17.3457 27.9747 19.167 27.4939 20.7858 26.5323C22.4047 25.5454 23.6947 24.2549 24.6559 22.6353C25.5918 21.0158 26.0977 19.1938 26.123 17.1947C26.0977 15.1956 25.6171 13.3736 24.6559 11.7541C23.6947 10.1598 22.4047 8.86925 20.7858 7.90765C19.167 6.94605 17.3457 6.46525 15.3222 6.43994Z" fill="#9B0033"/>
<path d="M28.8548 14.0821H29.5883L30.3978 16.2583L31.2072 14.0821H31.9154L30.7013 17.1693H30.0942L28.8548 14.0821Z" fill="#9B0033"/>
<path d="M37.4296 14.8159H38.1126V17.1693H37.4296V14.8159ZM37.4043 13.9556H38.1126V14.5376H37.4043V13.9556ZM35.3048 14.8159H35.9625V15.2714C36.0384 15.1196 36.1396 14.9931 36.2407 14.8919C36.3419 14.7906 36.4937 14.74 36.696 14.7653V15.4739H36.6708C36.4178 15.4739 36.266 15.5498 36.1396 15.6763C36.0131 15.8029 35.9372 16.0306 35.9372 16.309V17.1693H35.2796V14.8159H35.3048ZM33.8631 15.8029C33.8378 15.651 33.7872 15.5498 33.7113 15.4233C33.6354 15.3474 33.5089 15.2967 33.3825 15.2967C33.2307 15.2967 33.1295 15.3474 33.0283 15.4233C32.9524 15.5245 32.8766 15.651 32.8513 15.8029H33.8631ZM33.433 17.2199C33.2813 17.2199 33.1042 17.1693 32.9524 17.1187C32.8007 17.0681 32.6742 16.9922 32.5477 16.8657C32.4466 16.7645 32.3707 16.6379 32.2948 16.4861C32.2189 16.3343 32.1936 16.1571 32.1936 15.98C32.1936 15.8029 32.2189 15.651 32.2695 15.4992C32.3454 15.3474 32.396 15.2208 32.5224 15.0943C32.6236 14.9931 32.7501 14.8919 32.9019 14.8413C33.0536 14.7653 33.2054 14.7653 33.3825 14.7653C33.5848 14.7653 33.7366 14.8159 33.8883 14.8666C34.0401 14.9425 34.1413 15.0184 34.2425 15.1449C34.3184 15.2461 34.3942 15.398 34.4701 15.5498C34.5207 15.7016 34.546 15.8788 34.546 16.0306L34.5207 16.1065V16.1824H32.9019C32.9271 16.3343 32.9777 16.4355 33.1042 16.5367C33.2054 16.6126 33.3319 16.6379 33.4836 16.6379C33.5848 16.6379 33.686 16.6126 33.7872 16.562C33.8631 16.5367 33.9389 16.4861 34.0401 16.3849L34.4195 16.7138C34.3184 16.8657 34.1666 16.9669 34.0148 17.0428C33.8378 17.1693 33.6607 17.2199 33.433 17.2199Z" fill="#9B0033"/>
<path d="M40.1615 17.1947C39.9086 17.1947 39.7062 17.1441 39.4533 17.0682C39.2256 16.9922 39.0485 16.8657 38.8462 16.6886L39.2509 16.2331C39.3774 16.3343 39.5039 16.4355 39.6556 16.4861C39.8074 16.562 39.9592 16.5874 40.1362 16.5874C40.288 16.5874 40.3892 16.562 40.465 16.5114C40.5409 16.4608 40.5662 16.4102 40.5662 16.309V16.1825L40.465 16.1066L40.288 16.0306L39.9592 15.9294L39.5544 15.8282L39.2256 15.6511L39.0233 15.398C38.9727 15.2968 38.9474 15.1703 38.9474 15.0184V14.9931L39.0233 14.6135C39.0991 14.5123 39.1497 14.3858 39.2762 14.3352C39.3521 14.2593 39.4786 14.1833 39.605 14.1327C39.7315 14.0821 39.8833 14.0568 40.035 14.0568C40.2627 14.0568 40.4398 14.1074 40.6421 14.158C40.8445 14.234 41.0215 14.3099 41.1733 14.4364L40.8192 14.9425L40.4145 14.7148C40.288 14.6388 40.1615 14.6388 40.0097 14.6388C39.8833 14.6388 39.7821 14.6642 39.7315 14.7148C39.6556 14.7654 39.6303 14.816 39.6303 14.8919V14.9172L39.6809 15.0437L39.7568 15.1196L39.9844 15.1956L40.3133 15.2715L40.718 15.4233C40.8192 15.4739 40.9456 15.5245 41.0215 15.6004L41.1986 15.8535C41.2492 15.9547 41.2745 16.0812 41.2745 16.2078V16.2331C41.2745 16.3849 41.2492 16.5114 41.1986 16.638C41.148 16.7392 41.0974 16.8657 40.9709 16.9416C40.8698 17.0175 40.7433 17.0682 40.5915 17.1188C40.465 17.1694 40.3133 17.1947 40.1615 17.1947Z" fill="#9B0033"/>
<path d="M42.1345 14.8159H42.8174V17.1693H42.1345V14.8159ZM42.1092 13.9556H42.8174V14.5376H42.1092V13.9556Z" fill="#9B0033"/>
<path d="M47.0416 14.8159H47.6992V15.1449L47.8257 15.0184L47.9775 14.8919L48.1546 14.8159L48.3822 14.7906C48.6351 14.7906 48.8375 14.8666 48.964 15.0437C49.1157 15.1955 49.1916 15.398 49.1916 15.6763V17.1946H48.5087V15.8282C48.5087 15.6763 48.4834 15.5751 48.4328 15.4739C48.3569 15.398 48.2557 15.3727 48.1293 15.3727C48.0028 15.3727 47.8763 15.4233 47.8257 15.4739C47.7498 15.5498 47.7245 15.6763 47.7245 15.8282V17.144H47.0669V14.8159H47.0416ZM44.9421 16.4102L45.1951 16.3596C45.271 16.3343 45.2963 16.309 45.3721 16.2583C45.4227 16.2077 45.448 16.1571 45.4733 16.0812C45.4986 16.0053 45.5239 15.9547 45.5239 15.8535L45.4733 15.6257C45.448 15.5498 45.3974 15.4992 45.3721 15.4486L45.1951 15.3474L44.9421 15.2967L44.7145 15.3474L44.5374 15.4486C44.4615 15.4992 44.4362 15.5498 44.4109 15.6257L44.3604 15.8535C44.3604 16.0306 44.4362 16.1571 44.5374 16.2583C44.6386 16.3596 44.7904 16.4102 44.9421 16.4102ZM44.8663 17.8526L44.3098 17.7767C44.1074 17.7514 43.9556 17.7007 43.8039 17.5995L44.0568 17.0934L44.4362 17.2706L44.841 17.3212C45.0686 17.3212 45.2457 17.2706 45.3468 17.1693C45.448 17.0681 45.4986 16.9163 45.4986 16.6885V16.5873C45.4227 16.6885 45.2963 16.8151 45.1951 16.8657C45.0939 16.9416 44.9421 16.9416 44.7398 16.9416C44.6133 16.9416 44.4868 16.9163 44.3351 16.8657C44.2339 16.8151 44.1074 16.7645 44.0062 16.6379C43.9303 16.562 43.8545 16.4355 43.7786 16.309C43.7027 16.1571 43.7027 16.0053 43.7027 15.8282C43.7027 15.651 43.728 15.4992 43.7786 15.3727C43.8545 15.2208 43.9051 15.1196 44.0062 15.0184C44.1074 14.9172 44.2339 14.8412 44.3604 14.7906L44.7398 14.7147C44.9421 14.7147 45.0939 14.7653 45.1951 14.8159C45.2963 14.8919 45.4227 14.9425 45.4986 15.069V14.8159H46.1563V16.6379C46.1563 17.0428 46.0804 17.3718 45.878 17.5489C45.7769 17.6501 45.6251 17.7514 45.4733 17.802L44.8663 17.8526Z" fill="#9B0033"/>
<path d="M30.5495 21.041C30.2966 21.041 30.0942 20.9904 29.8413 20.9145C29.6136 20.8386 29.4365 20.7121 29.2342 20.5349L29.6389 20.0795C29.7654 20.1807 29.8919 20.2819 30.0436 20.3325C30.1954 20.4084 30.3472 20.4337 30.5242 20.4337C30.676 20.4337 30.7772 20.4084 30.8531 20.3578C30.9289 20.3072 30.9542 20.2566 30.9542 20.1554V20.0288L30.8531 19.9529L30.676 19.877L30.3472 19.7758L29.9424 19.6746L29.6136 19.4974L29.4113 19.2444C29.3607 19.1432 29.3354 19.0166 29.3354 18.8648V18.8395L29.4113 18.4599C29.4871 18.3587 29.5377 18.2322 29.6642 18.1816C29.7401 18.1056 29.8666 18.0297 29.993 17.9791C30.1195 17.9285 30.2713 17.9032 30.423 17.9032C30.6507 17.9032 30.8278 17.9538 31.0301 18.0044C31.2325 18.0803 31.4095 18.1563 31.5613 18.2828L31.2072 18.7889L30.8025 18.5611C30.676 18.4852 30.5495 18.4852 30.3977 18.4852C30.246 18.4852 30.1701 18.5105 30.1195 18.5611C30.0436 18.6117 30.0183 18.6624 30.0183 18.7383V18.7636L30.0689 18.8901L30.1448 18.966L30.3725 19.0419L30.7013 19.1179L31.106 19.2697C31.2072 19.3203 31.3337 19.3709 31.4095 19.4468L31.5866 19.6999C31.6372 19.8011 31.6625 19.9276 31.6625 20.0541V20.0795C31.6625 20.2313 31.6372 20.3578 31.5866 20.4843C31.536 20.5856 31.4854 20.7121 31.3589 20.788C31.2578 20.8639 31.1313 20.9145 30.9795 20.9651C30.8783 21.0157 30.7266 21.041 30.5495 21.041Z" fill="#9B0033"/>
<path d="M36.772 21.0664C36.5949 21.0664 36.4431 21.0158 36.2914 20.9651C36.1396 20.8892 36.0131 20.8133 35.8867 20.7121C35.7855 20.6109 35.7096 20.4843 35.6337 20.3325C35.5578 20.1807 35.5325 20.0035 35.5325 19.8517C35.5325 19.6746 35.5831 19.5227 35.6337 19.3709C35.7096 19.2191 35.7602 19.0926 35.8867 18.966C35.9878 18.8648 36.1396 18.7636 36.2914 18.713C36.4431 18.6371 36.5949 18.6371 36.7973 18.6371C37.0249 18.6371 37.202 18.6877 37.3538 18.7383C37.5055 18.8142 37.6067 18.8901 37.7332 19.0166L37.3285 19.4468C37.2526 19.3709 37.1767 19.295 37.0755 19.2444C36.9996 19.1938 36.8985 19.1685 36.772 19.1685L36.5443 19.2191L36.3673 19.3709L36.2408 19.5734L36.1902 19.8264V19.8517C36.1902 19.9276 36.2155 20.0289 36.2408 20.1048C36.2661 20.1807 36.3167 20.2566 36.3673 20.3325C36.4179 20.4084 36.4684 20.4337 36.5443 20.459C36.6202 20.4843 36.6961 20.5097 36.7973 20.5097C36.8985 20.5097 36.9996 20.4843 37.0755 20.4337L37.3285 20.2566L37.7332 20.6615C37.632 20.7627 37.4802 20.8892 37.3285 20.9651C37.1767 21.0158 36.9996 21.0664 36.772 21.0664ZM34.1413 19.624C34.116 19.4721 34.0655 19.3709 33.9896 19.2444C33.9137 19.1685 33.7872 19.1179 33.6607 19.1179C33.509 19.1179 33.4078 19.1685 33.3066 19.2444C33.2307 19.3456 33.1548 19.4721 33.1296 19.624H34.1413ZM33.686 21.0664C33.5343 21.0664 33.3572 21.0158 33.2054 20.9651C33.0537 20.9145 32.9272 20.8386 32.8007 20.7121C32.6995 20.6109 32.6237 20.4843 32.5478 20.3325C32.4719 20.1807 32.4466 20.0035 32.4466 19.8264C32.4466 19.6493 32.4719 19.4974 32.5225 19.3456C32.5984 19.1938 32.649 19.0672 32.7754 18.9407C32.8766 18.8395 33.0031 18.7383 33.1548 18.6877C33.3066 18.6118 33.4584 18.6118 33.6354 18.6118C33.8378 18.6118 33.9896 18.6624 34.1413 18.713C34.2931 18.7889 34.3943 18.8648 34.4955 18.9913C34.5713 19.0926 34.6472 19.2444 34.7231 19.3962C34.7737 19.548 34.799 19.7252 34.799 19.877L34.7737 19.9529V20.0288H33.1548C33.1801 20.1807 33.2307 20.2819 33.3572 20.3831C33.4584 20.459 33.5849 20.4843 33.7366 20.4843C33.8378 20.4843 33.939 20.459 34.0402 20.4084C34.116 20.3831 34.1919 20.3325 34.2931 20.2313L34.6725 20.5603C34.5713 20.7121 34.4196 20.8133 34.2678 20.8892C34.116 21.0158 33.9137 21.0664 33.686 21.0664Z" fill="#9B0033"/>
<path d="M39.3269 21.0411C39.0739 21.0411 38.8968 20.9652 38.7451 20.788C38.6186 20.6362 38.5427 20.4338 38.5427 20.1554V18.6371H39.2004V19.953C39.2004 20.1048 39.251 20.206 39.3016 20.3072C39.3774 20.3831 39.4786 20.4085 39.6051 20.4085C39.7063 20.4085 39.8327 20.3578 39.9086 20.3072C39.9845 20.2313 40.0098 20.1048 40.0098 19.953V18.6371H40.6675V20.9905H40.0098V20.6615L39.8833 20.788L39.7316 20.9146L39.5545 20.9905L39.3269 21.0411Z" fill="#9B0033"/>
<path d="M48.1294 20.459C48.2052 20.459 48.3064 20.4337 48.3823 20.4084L48.5594 20.2819C48.61 20.206 48.6353 20.1554 48.6606 20.0795L48.7111 19.8264V19.8011L48.6606 19.548L48.5594 19.3456L48.3823 19.2191C48.3064 19.1938 48.2305 19.1685 48.1294 19.1685L47.9017 19.2191L47.7247 19.3456L47.5982 19.548C47.5729 19.624 47.5476 19.6999 47.5476 19.8011V19.8264L47.5982 20.0795C47.6235 20.1554 47.6741 20.206 47.7247 20.2819L47.9017 20.4084L48.1294 20.459ZM47.9776 21.041C47.8258 21.041 47.6994 21.0157 47.5729 20.9651C47.4717 20.9145 47.3452 20.8639 47.2441 20.7374C47.1429 20.6362 47.067 20.4843 46.9911 20.3325C46.9152 20.1807 46.9152 20.0288 46.9152 19.8264V19.8011C46.9152 19.5986 46.9405 19.4215 46.9911 19.2697C47.067 19.1179 47.1176 19.0166 47.2441 18.8901C47.3199 18.7889 47.4464 18.713 47.5729 18.6624C47.6994 18.5864 47.8258 18.5864 47.9776 18.5864C48.1547 18.5864 48.3064 18.6371 48.4076 18.6877C48.5088 18.7636 48.6353 18.8142 48.6858 18.9407V17.7767H49.3435V20.9651H48.6858V20.6362C48.61 20.7374 48.5088 20.8386 48.4076 20.8892C48.3064 20.9904 48.1547 21.041 47.9776 21.041ZM45.4734 19.624C45.4481 19.4721 45.3975 19.3709 45.3217 19.2444C45.2458 19.1685 45.1193 19.1179 44.9928 19.1179C44.8411 19.1179 44.7399 19.1685 44.6387 19.2444C44.5628 19.3456 44.4869 19.4721 44.4616 19.624H45.4734ZM45.0434 21.0664C44.8917 21.0664 44.7146 21.0157 44.5628 20.9651C44.4111 20.9145 44.2846 20.8386 44.1581 20.7121C44.0569 20.6109 43.981 20.4843 43.9052 20.3325C43.8293 20.1807 43.804 20.0035 43.804 19.8264C43.804 19.6493 43.8293 19.4974 43.8799 19.3456C43.9557 19.1938 44.0063 19.0672 44.1328 18.9407C44.234 18.8395 44.3605 18.7383 44.5122 18.6877C44.664 18.6117 44.8158 18.6117 44.9928 18.6117C45.1952 18.6117 45.347 18.6624 45.4987 18.713C45.6505 18.7889 45.7517 18.8648 45.8528 18.9913C45.9287 19.0925 46.0046 19.2444 46.0805 19.3962C46.1311 19.548 46.1564 19.7252 46.1564 19.877L46.1311 19.9529V20.0288H44.5122C44.5375 20.1807 44.5881 20.2819 44.7146 20.3831C44.8158 20.459 44.9422 20.4843 45.094 20.4843C45.1952 20.4843 45.2964 20.459 45.3975 20.4084C45.4734 20.3831 45.5493 20.3325 45.6505 20.2313L46.0299 20.5602C45.9287 20.7121 45.777 20.8133 45.6252 20.8892C45.4734 21.0157 45.2711 21.0664 45.0434 21.0664ZM41.7298 18.6371H42.3875V19.0925C42.4634 18.9407 42.5645 18.8142 42.6657 18.713C42.7669 18.6117 42.9187 18.5611 43.121 18.5864V19.295H43.0957C42.8428 19.295 42.691 19.3709 42.5645 19.4974C42.4381 19.624 42.3622 19.8517 42.3622 20.1301V20.9904H41.7045V18.6371H41.7298Z" fill="#9B0033"/>
<path fill-rule="evenodd" clip-rule="evenodd" d="M50.507 8.69208H51.4429V8.91983H51.114V9.83081H50.8611V8.91983H50.507V8.69208ZM52.8341 8.69208V9.80551H52.5811V9.07166L52.3029 9.55246H52.2523L51.974 9.07166V9.80551H51.7211V8.69208H51.9993L52.3029 9.17288L52.5811 8.69208H52.8341Z" fill="#9B0033"/>
<path fill-rule="evenodd" clip-rule="evenodd" d="M21.7217 12.0071H20.9122V12.8422H21.7217V12.0071ZM20.9122 9.90677H21.7217V10.7165H20.9122V9.90677ZM23.0117 7.75582H22.177V6.94605H23.0117V7.75582ZM24.6558 6.06037H26.2494V5.17468H24.6558V7.73052H23.037V8.56559H21.6458V9.14761H20.9122V9.88147H20.0269V11.172H19.1922V11.9818H18.6357V12.8169H18.0286C16.7892 14.6389 15.828 16.4355 15.1451 18.2575C13.5768 16.0306 12.1097 14.7401 10.7438 14.2846C10.3644 14.1834 10.1114 14.2593 9.95966 14.5882C9.80789 14.9172 9.93436 15.3221 10.3897 15.8282C11.7809 17.3465 13.0456 19.4975 14.2092 22.2304C14.3862 22.6606 14.7909 22.9137 15.4233 22.9643C16.0051 23.0149 16.4098 22.7872 16.5868 22.3064C17.4469 20.0542 18.4334 18.131 19.5716 16.4861V15.5498H20.2293V14.7401H20.9375V13.7532H21.747V12.8422H22.5817V12.0071H23.2393V10.9949H23.9729V10.3117H24.6811V8.5909H25.4906V7.75582H26.4265V6.92075H25.4906V7.75582H24.6811V8.5909H23.8717V9.40067H23.0623V8.5909H23.8717V6.06037H24.6558Z" fill="#02122E"/>
<path d="M25.4654 6.06036H24.6559V6.92074H25.4654V6.06036Z" fill="#A10045"/>
<path d="M21.7217 9.90674H20.9122V10.7165H21.7217V9.90674Z" fill="white"/>
<path d="M28.0455 5.17468H27.1602V6.06037H28.0455V5.17468Z" fill="#9B0033"/>
<path d="M27.1854 5.17465V4.31427H26.3V5.17465" fill="#02122E"/>
<path d="M28.0455 3.42859H27.1602V4.31427H28.0455V3.42859Z" fill="#9B0033"/>
</g>
<defs>
<clipPath id="clip0_7827_2592">
<rect width="50.2857" height="24.5714" fill="white" transform="translate(4.57196 3.42859)"/>
</clipPath>
</defs>
</svg>
