<svg width="49" height="33" viewBox="0 0 49 33" fill="none" xmlns="http://www.w3.org/2000/svg">
<rect x="0.5" y="0.253906" width="48" height="32" rx="4" fill="#00579F"/>
<path d="M21.0359 21.6977H18.3219L20.0194 11.4929H22.7333L21.0359 21.6977Z" fill="white"/>
<path d="M30.8735 11.7424C30.3382 11.5359 29.4891 11.3079 28.4393 11.3079C25.7591 11.3079 23.8717 12.6974 23.8601 14.684C23.8379 16.1497 25.2114 16.9638 26.2387 17.4525C27.2888 17.9519 27.6457 18.2779 27.6457 18.723C27.635 19.4067 26.7972 19.7218 26.0158 19.7218C24.9323 19.7218 24.3517 19.5593 23.4693 19.179L23.112 19.0159L22.7322 21.3067C23.3687 21.5886 24.5415 21.8388 25.7591 21.8498C28.6068 21.8498 30.4608 20.4818 30.4828 18.3647C30.4936 17.2031 29.7683 16.3129 28.2046 15.5856C27.2554 15.1186 26.674 14.8038 26.674 14.326C26.6852 13.8917 27.1657 13.4469 28.2373 13.4469C29.1196 13.4251 29.7678 13.6313 30.2589 13.8376L30.5044 13.946L30.8735 11.7424Z" fill="white"/>
<path d="M34.4821 18.0825C34.7056 17.4962 35.5657 15.2272 35.5657 15.2272C35.5544 15.249 35.7888 14.6302 35.9228 14.2502L36.1124 15.1296C36.1124 15.1296 36.6264 17.5722 36.738 18.0825C36.3138 18.0825 35.0182 18.0825 34.4821 18.0825ZM37.8323 11.4929H35.733C35.0856 11.4929 34.5937 11.6773 34.3144 12.3396L30.2831 21.6975H33.1308C33.1308 21.6975 33.5997 20.438 33.7004 20.1667C34.0129 20.1667 36.7831 20.1667 37.185 20.1667C37.2629 20.525 37.5089 21.6975 37.5089 21.6975H40.0218L37.8323 11.4929Z" fill="white"/>
<path d="M16.0547 11.4929L13.3968 18.4516L13.1063 17.0402C12.6149 15.4118 11.0738 13.6425 9.354 12.7628L11.7886 21.6868H14.6586L18.9246 11.4929H16.0547Z" fill="white"/>
<path d="M10.9287 11.4929H6.56213L6.51746 11.699C9.92368 12.5459 12.1796 14.5872 13.1064 17.0407L12.1572 12.3507C12.0009 11.6989 11.5206 11.5144 10.9287 11.4929Z" fill="#FAA61A"/>
</svg>
